<svg width="1527" height="477" viewBox="0 0 1527 477" fill="none" xmlns="http://www.w3.org/2000/svg">
<rect width="1527" height="477" rx="91" fill="white"/>
<rect x="72.7597" y="96.251" width="627" height="284" rx="142" fill="#7B7B7B"/>
<path d="M286.557 223.815L261.628 225.349C261.202 223.219 260.286 221.301 258.879 219.597C257.473 217.849 255.619 216.464 253.318 215.442C251.06 214.376 248.354 213.844 245.2 213.844C240.982 213.844 237.423 214.739 234.526 216.528C231.628 218.276 230.179 220.619 230.179 223.56C230.179 225.903 231.116 227.885 232.991 229.504C234.866 231.124 238.084 232.423 242.643 233.403L260.413 236.983C269.959 238.943 277.075 242.097 281.763 246.443C286.45 250.79 288.794 256.5 288.794 263.574C288.794 270.009 286.898 275.655 283.105 280.513C279.355 285.371 274.199 289.163 267.636 291.891C261.116 294.575 253.595 295.918 245.072 295.918C232.075 295.918 221.72 293.212 214.007 287.8C206.337 282.345 201.841 274.93 200.52 265.555L227.303 264.149C228.112 268.112 230.072 271.138 233.183 273.226C236.294 275.271 240.278 276.294 245.136 276.294C249.909 276.294 253.744 275.378 256.642 273.545C259.582 271.67 261.074 269.263 261.116 266.322C261.074 263.851 260.03 261.827 257.984 260.25C255.939 258.631 252.786 257.395 248.524 256.543L231.521 253.155C221.933 251.237 214.795 247.913 210.108 243.183C205.463 238.453 203.141 232.423 203.141 225.094C203.141 218.787 204.845 213.354 208.254 208.794C211.706 204.234 216.543 200.719 222.764 198.247C229.028 195.776 236.358 194.54 244.753 194.54C257.153 194.54 266.912 197.161 274.028 202.402C281.188 207.643 285.364 214.781 286.557 223.815ZM305.941 330.818V195.818H332.787V212.31H334.002C335.195 209.668 336.921 206.983 339.179 204.256C341.48 201.486 344.463 199.185 348.128 197.352C351.836 195.477 356.438 194.54 361.935 194.54C369.094 194.54 375.699 196.415 381.75 200.165C387.801 203.872 392.638 209.476 396.26 216.976C399.882 224.433 401.694 233.787 401.694 245.037C401.694 255.989 399.925 265.236 396.388 272.778C392.894 280.278 388.121 285.967 382.07 289.845C376.061 293.68 369.328 295.598 361.871 295.598C356.587 295.598 352.091 294.724 348.384 292.977C344.719 291.23 341.715 289.036 339.371 286.393C337.027 283.709 335.238 281.003 334.002 278.276H333.171V330.818H305.941ZM332.596 244.909C332.596 250.747 333.405 255.839 335.025 260.186C336.644 264.533 338.988 267.92 342.056 270.349C345.124 272.736 348.853 273.929 353.242 273.929C357.674 273.929 361.424 272.714 364.492 270.286C367.56 267.814 369.882 264.405 371.459 260.058C373.078 255.669 373.888 250.619 373.888 244.909C373.888 239.241 373.1 234.256 371.523 229.952C369.946 225.648 367.624 222.281 364.556 219.852C361.488 217.423 357.716 216.209 353.242 216.209C348.81 216.209 345.06 217.381 341.992 219.724C338.966 222.068 336.644 225.392 335.025 229.696C333.405 234 332.596 239.071 332.596 244.909ZM447.077 163.091V294H419.847V163.091H447.077ZM468.89 294V195.818H496.12V294H468.89ZM482.569 183.162C478.521 183.162 475.048 181.82 472.15 179.135C469.295 176.408 467.867 173.148 467.867 169.355C467.867 165.605 469.295 162.388 472.15 159.703C475.048 156.976 478.521 155.612 482.569 155.612C486.617 155.612 490.069 156.976 492.924 159.703C495.822 162.388 497.271 165.605 497.271 169.355C497.271 173.148 495.822 176.408 492.924 179.135C490.069 181.82 486.617 183.162 482.569 183.162ZM570.156 195.818V216.273H511.029V195.818H570.156ZM524.453 172.295H551.683V263.83C551.683 266.344 552.066 268.304 552.833 269.71C553.6 271.074 554.666 272.033 556.029 272.587C557.436 273.141 559.055 273.418 560.887 273.418C562.166 273.418 563.444 273.311 564.723 273.098C566.001 272.842 566.981 272.651 567.663 272.523L571.946 292.786C570.582 293.212 568.664 293.702 566.193 294.256C563.721 294.852 560.717 295.214 557.18 295.342C550.618 295.598 544.865 294.724 539.922 292.722C535.021 290.719 531.207 287.608 528.48 283.389C525.752 279.17 524.41 273.844 524.453 267.409V172.295Z" fill="white"/>
<rect x="755.76" y="68" width="21" height="341" rx="10.5" fill="#BCBCBC"/>
<rect x="832.76" y="96.25" width="621" height="285" rx="142.5" fill="url(#paint0_linear_303_2055)"/>
<path d="M992.097 163.091V294H964.866V163.091H992.097ZM1041.91 295.854C1035.64 295.854 1030.06 294.767 1025.16 292.594C1020.26 290.378 1016.38 287.118 1013.53 282.814C1010.71 278.467 1009.31 273.055 1009.31 266.578C1009.31 261.124 1010.31 256.543 1012.31 252.835C1014.31 249.128 1017.04 246.145 1020.49 243.886C1023.94 241.628 1027.87 239.923 1032.25 238.773C1036.69 237.622 1041.33 236.812 1046.19 236.344C1051.9 235.747 1056.5 235.193 1060 234.682C1063.49 234.128 1066.03 233.318 1067.6 232.253C1069.18 231.187 1069.97 229.611 1069.97 227.523V227.139C1069.97 223.091 1068.69 219.959 1066.13 217.743C1063.62 215.527 1060.04 214.419 1055.39 214.419C1050.49 214.419 1046.59 215.506 1043.7 217.679C1040.8 219.81 1038.88 222.494 1037.94 225.733L1012.76 223.688C1014.04 217.722 1016.55 212.565 1020.3 208.219C1024.05 203.83 1028.89 200.463 1034.81 198.119C1040.78 195.733 1047.68 194.54 1055.52 194.54C1060.98 194.54 1066.2 195.179 1071.18 196.457C1076.21 197.736 1080.66 199.717 1084.54 202.402C1088.46 205.087 1091.55 208.538 1093.81 212.757C1096.07 216.933 1097.2 221.94 1097.2 227.778V294H1071.37V280.385H1070.61C1069.03 283.453 1066.92 286.159 1064.28 288.503C1061.64 290.804 1058.46 292.615 1054.75 293.936C1051.05 295.214 1046.76 295.854 1041.91 295.854ZM1049.7 277.061C1053.71 277.061 1057.25 276.273 1060.32 274.696C1063.38 273.077 1065.79 270.903 1067.54 268.176C1069.29 265.449 1070.16 262.359 1070.16 258.908V248.489C1069.31 249.043 1068.14 249.554 1066.64 250.023C1065.19 250.449 1063.55 250.854 1061.72 251.237C1059.89 251.578 1058.06 251.898 1056.22 252.196C1054.39 252.452 1052.73 252.686 1051.24 252.899C1048.04 253.368 1045.25 254.114 1042.87 255.136C1040.48 256.159 1038.63 257.544 1037.3 259.291C1035.98 260.996 1035.32 263.126 1035.32 265.683C1035.32 269.391 1036.67 272.224 1039.35 274.185C1042.08 276.102 1045.53 277.061 1049.7 277.061ZM1145.55 237.239V294H1118.32V195.818H1144.28V213.141H1145.43C1147.6 207.43 1151.24 202.913 1156.36 199.589C1161.47 196.223 1167.67 194.54 1174.96 194.54C1181.78 194.54 1187.72 196.031 1192.79 199.014C1197.86 201.997 1201.8 206.259 1204.62 211.798C1207.43 217.295 1208.83 223.858 1208.83 231.486V294H1181.6V236.344C1181.65 230.335 1180.11 225.648 1177 222.281C1173.89 218.872 1169.61 217.168 1164.15 217.168C1160.49 217.168 1157.25 217.956 1154.44 219.533C1151.67 221.109 1149.5 223.411 1147.92 226.436C1146.38 229.419 1145.6 233.02 1145.55 237.239ZM1274.53 332.864C1265.71 332.864 1258.14 331.649 1251.84 329.22C1245.57 326.834 1240.59 323.574 1236.88 319.44C1233.17 315.307 1230.76 310.662 1229.66 305.506L1254.84 302.118C1255.61 304.078 1256.82 305.911 1258.49 307.615C1260.15 309.32 1262.34 310.683 1265.07 311.706C1267.84 312.771 1271.21 313.304 1275.17 313.304C1281.09 313.304 1285.97 311.855 1289.81 308.957C1293.68 306.102 1295.62 301.308 1295.62 294.575V276.614H1294.47C1293.28 279.341 1291.49 281.919 1289.1 284.348C1286.72 286.777 1283.65 288.759 1279.9 290.293C1276.15 291.827 1271.67 292.594 1266.48 292.594C1259.1 292.594 1252.39 290.889 1246.34 287.48C1240.33 284.028 1235.54 278.766 1231.96 271.692C1228.42 264.575 1226.65 255.584 1226.65 244.717C1226.65 233.595 1228.46 224.305 1232.09 216.848C1235.71 209.391 1240.52 203.808 1246.53 200.101C1252.58 196.393 1259.21 194.54 1266.41 194.54C1271.91 194.54 1276.51 195.477 1280.22 197.352C1283.93 199.185 1286.91 201.486 1289.17 204.256C1291.47 206.983 1293.24 209.668 1294.47 212.31H1295.5V195.818H1322.53V294.959C1322.53 303.311 1320.49 310.3 1316.4 315.925C1312.31 321.55 1306.64 325.768 1299.39 328.581C1292.19 331.436 1283.9 332.864 1274.53 332.864ZM1275.1 272.139C1279.49 272.139 1283.2 271.053 1286.23 268.879C1289.29 266.663 1291.64 263.51 1293.26 259.419C1294.92 255.286 1295.75 250.342 1295.75 244.589C1295.75 238.837 1294.94 233.851 1293.32 229.632C1291.7 225.371 1289.36 222.068 1286.29 219.724C1283.22 217.381 1279.49 216.209 1275.1 216.209C1270.63 216.209 1266.86 217.423 1263.79 219.852C1260.72 222.239 1258.4 225.562 1256.82 229.824C1255.25 234.085 1254.46 239.007 1254.46 244.589C1254.46 250.257 1255.25 255.158 1256.82 259.291C1258.44 263.382 1260.76 266.557 1263.79 268.815C1266.86 271.031 1270.63 272.139 1275.1 272.139Z" fill="white"/>
<defs>
<linearGradient id="paint0_linear_303_2055" x1="958.512" y1="96.25" x2="1261.62" y2="416.196" gradientUnits="userSpaceOnUse">
<stop stop-color="#01B7F8"/>
<stop offset="1" stop-color="#046BF5"/>
</linearGradient>
</defs>
</svg>
