<svg width="3471" height="1109" viewBox="0 0 3471 1109" fill="none" xmlns="http://www.w3.org/2000/svg">
<rect x="206" y="868" width="1400" height="106" rx="24" fill="#7B7B7B"/>
<path d="M256.455 895.455L267.705 930.818H268.136L279.409 895.455H290.318L274.273 942H261.591L245.523 895.455H256.455ZM295.739 942V907.091H305.42V942H295.739ZM300.602 902.591C299.163 902.591 297.928 902.114 296.898 901.159C295.883 900.189 295.375 899.03 295.375 897.682C295.375 896.348 295.883 895.205 296.898 894.25C297.928 893.28 299.163 892.795 300.602 892.795C302.042 892.795 303.269 893.28 304.284 894.25C305.314 895.205 305.83 896.348 305.83 897.682C305.83 899.03 305.314 900.189 304.284 901.159C303.269 902.114 302.042 902.591 300.602 902.591ZM329.085 942.682C325.494 942.682 322.403 941.955 319.812 940.5C317.237 939.03 315.252 936.955 313.858 934.273C312.464 931.576 311.767 928.386 311.767 924.705C311.767 921.114 312.464 917.962 313.858 915.25C315.252 912.538 317.214 910.424 319.744 908.909C322.29 907.394 325.275 906.636 328.699 906.636C331.002 906.636 333.146 907.008 335.131 907.75C337.131 908.477 338.873 909.576 340.358 911.045C341.858 912.515 343.025 914.364 343.858 916.591C344.691 918.803 345.108 921.394 345.108 924.364V927.023H315.631V921.023H335.994C335.994 919.629 335.691 918.394 335.085 917.318C334.479 916.242 333.638 915.402 332.562 914.795C331.502 914.174 330.267 913.864 328.858 913.864C327.388 913.864 326.085 914.205 324.949 914.886C323.828 915.553 322.949 916.455 322.312 917.591C321.676 918.712 321.35 919.962 321.335 921.341V927.045C321.335 928.773 321.653 930.265 322.29 931.523C322.941 932.78 323.858 933.75 325.04 934.432C326.222 935.114 327.623 935.455 329.244 935.455C330.32 935.455 331.305 935.303 332.199 935C333.093 934.697 333.858 934.242 334.494 933.636C335.131 933.03 335.616 932.288 335.949 931.409L344.903 932C344.449 934.152 343.517 936.03 342.108 937.636C340.714 939.227 338.911 940.47 336.699 941.364C334.502 942.242 331.964 942.682 329.085 942.682ZM361.108 895.455V942H351.426V895.455H361.108ZM384.773 942.682C381.182 942.682 378.091 941.955 375.5 940.5C372.924 939.03 370.939 936.955 369.545 934.273C368.152 931.576 367.455 928.386 367.455 924.705C367.455 921.114 368.152 917.962 369.545 915.25C370.939 912.538 372.902 910.424 375.432 908.909C377.977 907.394 380.962 906.636 384.386 906.636C386.689 906.636 388.833 907.008 390.818 907.75C392.818 908.477 394.561 909.576 396.045 911.045C397.545 912.515 398.712 914.364 399.545 916.591C400.379 918.803 400.795 921.394 400.795 924.364V927.023H371.318V921.023H391.682C391.682 919.629 391.379 918.394 390.773 917.318C390.167 916.242 389.326 915.402 388.25 914.795C387.189 914.174 385.955 913.864 384.545 913.864C383.076 913.864 381.773 914.205 380.636 914.886C379.515 915.553 378.636 916.455 378 917.591C377.364 918.712 377.038 919.962 377.023 921.341V927.045C377.023 928.773 377.341 930.265 377.977 931.523C378.629 932.78 379.545 933.75 380.727 934.432C381.909 935.114 383.311 935.455 384.932 935.455C386.008 935.455 386.992 935.303 387.886 935C388.78 934.697 389.545 934.242 390.182 933.636C390.818 933.03 391.303 932.288 391.636 931.409L400.591 932C400.136 934.152 399.205 936.03 397.795 937.636C396.402 939.227 394.598 940.47 392.386 941.364C390.189 942.242 387.652 942.682 384.773 942.682ZM416.795 921.818V942H407.114V907.091H416.341V913.25H416.75C417.523 911.22 418.818 909.614 420.636 908.432C422.455 907.235 424.659 906.636 427.25 906.636C429.674 906.636 431.788 907.167 433.591 908.227C435.394 909.288 436.795 910.803 437.795 912.773C438.795 914.727 439.295 917.061 439.295 919.773V942H429.614V921.5C429.629 919.364 429.083 917.697 427.977 916.5C426.871 915.288 425.348 914.682 423.409 914.682C422.106 914.682 420.955 914.962 419.955 915.523C418.97 916.083 418.197 916.902 417.636 917.977C417.091 919.038 416.811 920.318 416.795 921.818ZM478.42 942H461.92V895.455H478.557C483.239 895.455 487.269 896.386 490.648 898.25C494.027 900.098 496.625 902.758 498.443 906.227C500.277 909.697 501.193 913.848 501.193 918.682C501.193 923.53 500.277 927.697 498.443 931.182C496.625 934.667 494.011 937.341 490.602 939.205C487.208 941.068 483.148 942 478.42 942ZM471.761 933.568H478.011C480.92 933.568 483.367 933.053 485.352 932.023C487.352 930.977 488.852 929.364 489.852 927.182C490.867 924.985 491.375 922.152 491.375 918.682C491.375 915.242 490.867 912.432 489.852 910.25C488.852 908.068 487.36 906.462 485.375 905.432C483.39 904.402 480.943 903.886 478.034 903.886H471.761V933.568ZM518.256 942.659C516.028 942.659 514.044 942.273 512.301 941.5C510.559 940.712 509.18 939.553 508.165 938.023C507.165 936.477 506.665 934.553 506.665 932.25C506.665 930.311 507.021 928.682 507.733 927.364C508.445 926.045 509.415 924.985 510.642 924.182C511.869 923.379 513.263 922.773 514.824 922.364C516.4 921.955 518.051 921.667 519.778 921.5C521.809 921.288 523.445 921.091 524.688 920.909C525.93 920.712 526.831 920.424 527.392 920.045C527.953 919.667 528.233 919.106 528.233 918.364V918.227C528.233 916.788 527.778 915.674 526.869 914.886C525.975 914.098 524.703 913.705 523.051 913.705C521.309 913.705 519.922 914.091 518.892 914.864C517.862 915.621 517.18 916.576 516.847 917.727L507.892 917C508.347 914.879 509.241 913.045 510.574 911.5C511.907 909.939 513.627 908.742 515.733 907.909C517.854 907.061 520.309 906.636 523.097 906.636C525.036 906.636 526.892 906.864 528.665 907.318C530.453 907.773 532.036 908.477 533.415 909.432C534.809 910.386 535.907 911.614 536.71 913.114C537.513 914.598 537.915 916.379 537.915 918.455V942H528.733V937.159H528.46C527.9 938.25 527.15 939.212 526.21 940.045C525.271 940.864 524.142 941.508 522.824 941.977C521.506 942.432 519.983 942.659 518.256 942.659ZM521.028 935.977C522.453 935.977 523.71 935.697 524.801 935.136C525.892 934.561 526.748 933.788 527.369 932.818C527.991 931.848 528.301 930.75 528.301 929.523V925.818C527.998 926.015 527.581 926.197 527.051 926.364C526.536 926.515 525.953 926.659 525.301 926.795C524.65 926.917 523.998 927.03 523.347 927.136C522.695 927.227 522.104 927.311 521.574 927.386C520.438 927.553 519.445 927.818 518.597 928.182C517.748 928.545 517.089 929.038 516.619 929.659C516.15 930.265 515.915 931.023 515.915 931.932C515.915 933.25 516.392 934.258 517.347 934.955C518.316 935.636 519.544 935.977 521.028 935.977ZM555.108 921.818V942H545.426V907.091H554.653V913.25H555.062C555.835 911.22 557.131 909.614 558.949 908.432C560.767 907.235 562.972 906.636 565.562 906.636C567.987 906.636 570.1 907.167 571.903 908.227C573.706 909.288 575.108 910.803 576.108 912.773C577.108 914.727 577.608 917.061 577.608 919.773V942H567.926V921.5C567.941 919.364 567.396 917.697 566.29 916.5C565.184 915.288 563.661 914.682 561.722 914.682C560.419 914.682 559.267 914.962 558.267 915.523C557.282 916.083 556.509 916.902 555.949 917.977C555.403 919.038 555.123 920.318 555.108 921.818ZM594.011 931.955L594.034 920.341H595.443L606.625 907.091H617.739L602.716 924.636H600.42L594.011 931.955ZM585.239 942V895.455H594.92V942H585.239ZM607.057 942L596.784 926.795L603.239 919.955L618.398 942H607.057ZM637.301 942V907.091H646.528V913.25H646.938C647.665 911.205 648.877 909.591 650.574 908.409C652.271 907.227 654.301 906.636 656.665 906.636C659.059 906.636 661.097 907.235 662.778 908.432C664.46 909.614 665.581 911.22 666.142 913.25H666.506C667.218 911.25 668.506 909.652 670.369 908.455C672.248 907.242 674.468 906.636 677.028 906.636C680.286 906.636 682.93 907.674 684.96 909.75C687.006 911.811 688.028 914.735 688.028 918.523V942H678.369V920.432C678.369 918.492 677.854 917.038 676.824 916.068C675.794 915.098 674.506 914.614 672.96 914.614C671.203 914.614 669.831 915.174 668.847 916.295C667.862 917.402 667.369 918.864 667.369 920.682V942H657.983V920.227C657.983 918.515 657.491 917.152 656.506 916.136C655.536 915.121 654.256 914.614 652.665 914.614C651.589 914.614 650.619 914.886 649.756 915.432C648.907 915.962 648.233 916.712 647.733 917.682C647.233 918.636 646.983 919.758 646.983 921.045V942H637.301ZM711.585 942.682C707.994 942.682 704.903 941.955 702.312 940.5C699.737 939.03 697.752 936.955 696.358 934.273C694.964 931.576 694.267 928.386 694.267 924.705C694.267 921.114 694.964 917.962 696.358 915.25C697.752 912.538 699.714 910.424 702.244 908.909C704.79 907.394 707.775 906.636 711.199 906.636C713.502 906.636 715.646 907.008 717.631 907.75C719.631 908.477 721.373 909.576 722.858 911.045C724.358 912.515 725.525 914.364 726.358 916.591C727.191 918.803 727.608 921.394 727.608 924.364V927.023H698.131V921.023H718.494C718.494 919.629 718.191 918.394 717.585 917.318C716.979 916.242 716.138 915.402 715.062 914.795C714.002 914.174 712.767 913.864 711.358 913.864C709.888 913.864 708.585 914.205 707.449 914.886C706.328 915.553 705.449 916.455 704.812 917.591C704.176 918.712 703.85 919.962 703.835 921.341V927.045C703.835 928.773 704.153 930.265 704.79 931.523C705.441 932.78 706.358 933.75 707.54 934.432C708.722 935.114 710.123 935.455 711.744 935.455C712.82 935.455 713.805 935.303 714.699 935C715.593 934.697 716.358 934.242 716.994 933.636C717.631 933.03 718.116 932.288 718.449 931.409L727.403 932C726.949 934.152 726.017 936.03 724.608 937.636C723.214 939.227 721.411 940.47 719.199 941.364C717.002 942.242 714.464 942.682 711.585 942.682ZM733.926 942V907.091H743.312V913.182H743.676C744.313 911.015 745.381 909.379 746.881 908.273C748.381 907.152 750.108 906.591 752.062 906.591C752.547 906.591 753.07 906.621 753.631 906.682C754.191 906.742 754.684 906.826 755.108 906.932V915.523C754.653 915.386 754.025 915.265 753.222 915.159C752.419 915.053 751.684 915 751.017 915C749.593 915 748.32 915.311 747.199 915.932C746.093 916.538 745.214 917.386 744.562 918.477C743.926 919.568 743.608 920.826 743.608 922.25V942H733.926ZM774.261 942.682C770.686 942.682 767.61 941.924 765.034 940.409C762.473 938.879 760.504 936.758 759.125 934.045C757.761 931.333 757.08 928.212 757.08 924.682C757.08 921.106 757.769 917.97 759.148 915.273C760.542 912.561 762.519 910.447 765.08 908.932C767.64 907.402 770.686 906.636 774.216 906.636C777.261 906.636 779.928 907.189 782.216 908.295C784.504 909.402 786.314 910.955 787.648 912.955C788.981 914.955 789.716 917.303 789.852 920H780.716C780.458 918.258 779.777 916.856 778.67 915.795C777.58 914.72 776.148 914.182 774.375 914.182C772.875 914.182 771.564 914.591 770.443 915.409C769.337 916.212 768.473 917.386 767.852 918.932C767.231 920.477 766.92 922.348 766.92 924.545C766.92 926.773 767.223 928.667 767.83 930.227C768.451 931.788 769.322 932.977 770.443 933.795C771.564 934.614 772.875 935.023 774.375 935.023C775.481 935.023 776.473 934.795 777.352 934.341C778.246 933.886 778.981 933.227 779.557 932.364C780.148 931.485 780.534 930.432 780.716 929.205H789.852C789.701 931.871 788.973 934.22 787.67 936.25C786.383 938.265 784.602 939.841 782.33 940.977C780.057 942.114 777.367 942.682 774.261 942.682ZM796.051 942V907.091H805.733V942H796.051ZM800.915 902.591C799.475 902.591 798.241 902.114 797.21 901.159C796.195 900.189 795.688 899.03 795.688 897.682C795.688 896.348 796.195 895.205 797.21 894.25C798.241 893.28 799.475 892.795 800.915 892.795C802.354 892.795 803.581 893.28 804.597 894.25C805.627 895.205 806.142 896.348 806.142 897.682C806.142 899.03 805.627 900.189 804.597 901.159C803.581 902.114 802.354 902.591 800.915 902.591ZM828.483 942V895.455H838.165V912.955H838.46C838.884 912.015 839.498 911.061 840.301 910.091C841.119 909.106 842.18 908.288 843.483 907.636C844.801 906.97 846.438 906.636 848.392 906.636C850.938 906.636 853.286 907.303 855.438 908.636C857.589 909.955 859.309 911.947 860.597 914.614C861.884 917.265 862.528 920.591 862.528 924.591C862.528 928.485 861.9 931.773 860.642 934.455C859.4 937.121 857.703 939.144 855.551 940.523C853.415 941.886 851.021 942.568 848.369 942.568C846.491 942.568 844.892 942.258 843.574 941.636C842.271 941.015 841.203 940.235 840.369 939.295C839.536 938.341 838.9 937.379 838.46 936.409H838.028V942H828.483ZM837.96 924.545C837.96 926.621 838.248 928.432 838.824 929.977C839.4 931.523 840.233 932.727 841.324 933.591C842.415 934.439 843.741 934.864 845.301 934.864C846.877 934.864 848.21 934.432 849.301 933.568C850.392 932.689 851.218 931.477 851.778 929.932C852.354 928.371 852.642 926.576 852.642 924.545C852.642 922.53 852.362 920.758 851.801 919.227C851.241 917.697 850.415 916.5 849.324 915.636C848.233 914.773 846.892 914.341 845.301 914.341C843.725 914.341 842.392 914.758 841.301 915.591C840.225 916.424 839.4 917.606 838.824 919.136C838.248 920.667 837.96 922.47 837.96 924.545ZM884.898 942.682C881.307 942.682 878.216 941.955 875.625 940.5C873.049 939.03 871.064 936.955 869.67 934.273C868.277 931.576 867.58 928.386 867.58 924.705C867.58 921.114 868.277 917.962 869.67 915.25C871.064 912.538 873.027 910.424 875.557 908.909C878.102 907.394 881.087 906.636 884.511 906.636C886.814 906.636 888.958 907.008 890.943 907.75C892.943 908.477 894.686 909.576 896.17 911.045C897.67 912.515 898.837 914.364 899.67 916.591C900.504 918.803 900.92 921.394 900.92 924.364V927.023H871.443V921.023H891.807C891.807 919.629 891.504 918.394 890.898 917.318C890.292 916.242 889.451 915.402 888.375 914.795C887.314 914.174 886.08 913.864 884.67 913.864C883.201 913.864 881.898 914.205 880.761 914.886C879.64 915.553 878.761 916.455 878.125 917.591C877.489 918.712 877.163 919.962 877.148 921.341V927.045C877.148 928.773 877.466 930.265 878.102 931.523C878.754 932.78 879.67 933.75 880.852 934.432C882.034 935.114 883.436 935.455 885.057 935.455C886.133 935.455 887.117 935.303 888.011 935C888.905 934.697 889.67 934.242 890.307 933.636C890.943 933.03 891.428 932.288 891.761 931.409L900.716 932C900.261 934.152 899.33 936.03 897.92 937.636C896.527 939.227 894.723 940.47 892.511 941.364C890.314 942.242 887.777 942.682 884.898 942.682ZM917.193 942.659C914.966 942.659 912.981 942.273 911.239 941.5C909.496 940.712 908.117 939.553 907.102 938.023C906.102 936.477 905.602 934.553 905.602 932.25C905.602 930.311 905.958 928.682 906.67 927.364C907.383 926.045 908.352 924.985 909.58 924.182C910.807 923.379 912.201 922.773 913.761 922.364C915.337 921.955 916.989 921.667 918.716 921.5C920.746 921.288 922.383 921.091 923.625 920.909C924.867 920.712 925.769 920.424 926.33 920.045C926.89 919.667 927.17 919.106 927.17 918.364V918.227C927.17 916.788 926.716 915.674 925.807 914.886C924.913 914.098 923.64 913.705 921.989 913.705C920.246 913.705 918.86 914.091 917.83 914.864C916.799 915.621 916.117 916.576 915.784 917.727L906.83 917C907.284 914.879 908.178 913.045 909.511 911.5C910.845 909.939 912.564 908.742 914.67 907.909C916.792 907.061 919.246 906.636 922.034 906.636C923.973 906.636 925.83 906.864 927.602 907.318C929.39 907.773 930.973 908.477 932.352 909.432C933.746 910.386 934.845 911.614 935.648 913.114C936.451 914.598 936.852 916.379 936.852 918.455V942H927.67V937.159H927.398C926.837 938.25 926.087 939.212 925.148 940.045C924.208 940.864 923.08 941.508 921.761 941.977C920.443 942.432 918.92 942.659 917.193 942.659ZM919.966 935.977C921.39 935.977 922.648 935.697 923.739 935.136C924.83 934.561 925.686 933.788 926.307 932.818C926.928 931.848 927.239 930.75 927.239 929.523V925.818C926.936 926.015 926.519 926.197 925.989 926.364C925.473 926.515 924.89 926.659 924.239 926.795C923.587 926.917 922.936 927.03 922.284 927.136C921.633 927.227 921.042 927.311 920.511 927.386C919.375 927.553 918.383 927.818 917.534 928.182C916.686 928.545 916.027 929.038 915.557 929.659C915.087 930.265 914.852 931.023 914.852 931.932C914.852 933.25 915.33 934.258 916.284 934.955C917.254 935.636 918.481 935.977 919.966 935.977ZM966.75 927.136V907.091H976.432V942H967.136V935.659H966.773C965.985 937.705 964.674 939.348 962.841 940.591C961.023 941.833 958.803 942.455 956.182 942.455C953.848 942.455 951.795 941.924 950.023 940.864C948.25 939.803 946.864 938.295 945.864 936.341C944.879 934.386 944.379 932.045 944.364 929.318V907.091H954.045V927.591C954.061 929.652 954.614 931.28 955.705 932.477C956.795 933.674 958.258 934.273 960.091 934.273C961.258 934.273 962.348 934.008 963.364 933.477C964.379 932.932 965.197 932.129 965.818 931.068C966.455 930.008 966.765 928.697 966.75 927.136ZM999.949 942.682C996.373 942.682 993.297 941.924 990.722 940.409C988.161 938.879 986.191 936.758 984.812 934.045C983.449 931.333 982.767 928.212 982.767 924.682C982.767 921.106 983.456 917.97 984.835 915.273C986.229 912.561 988.206 910.447 990.767 908.932C993.328 907.402 996.373 906.636 999.903 906.636C1002.95 906.636 1005.62 907.189 1007.9 908.295C1010.19 909.402 1012 910.955 1013.34 912.955C1014.67 914.955 1015.4 917.303 1015.54 920H1006.4C1006.15 918.258 1005.46 916.856 1004.36 915.795C1003.27 914.72 1001.84 914.182 1000.06 914.182C998.562 914.182 997.252 914.591 996.131 915.409C995.025 916.212 994.161 917.386 993.54 918.932C992.919 920.477 992.608 922.348 992.608 924.545C992.608 926.773 992.911 928.667 993.517 930.227C994.138 931.788 995.009 932.977 996.131 933.795C997.252 934.614 998.562 935.023 1000.06 935.023C1001.17 935.023 1002.16 934.795 1003.04 934.341C1003.93 933.886 1004.67 933.227 1005.24 932.364C1005.84 931.485 1006.22 930.432 1006.4 929.205H1015.54C1015.39 931.871 1014.66 934.22 1013.36 936.25C1012.07 938.265 1010.29 939.841 1008.02 940.977C1005.74 942.114 1003.05 942.682 999.949 942.682ZM1037.51 942.682C1033.98 942.682 1030.93 941.932 1028.35 940.432C1025.79 938.917 1023.81 936.811 1022.42 934.114C1021.03 931.402 1020.33 928.258 1020.33 924.682C1020.33 921.076 1021.03 917.924 1022.42 915.227C1023.81 912.515 1025.79 910.409 1028.35 908.909C1030.93 907.394 1033.98 906.636 1037.51 906.636C1041.04 906.636 1044.09 907.394 1046.65 908.909C1049.22 910.409 1051.21 912.515 1052.6 915.227C1054 917.924 1054.69 921.076 1054.69 924.682C1054.69 928.258 1054 931.402 1052.6 934.114C1051.21 936.811 1049.22 938.917 1046.65 940.432C1044.09 941.932 1041.04 942.682 1037.51 942.682ZM1037.56 935.182C1039.16 935.182 1040.5 934.727 1041.58 933.818C1042.66 932.894 1043.47 931.636 1044.01 930.045C1044.57 928.455 1044.85 926.644 1044.85 924.614C1044.85 922.583 1044.57 920.773 1044.01 919.182C1043.47 917.591 1042.66 916.333 1041.58 915.409C1040.5 914.485 1039.16 914.023 1037.56 914.023C1035.94 914.023 1034.57 914.485 1033.47 915.409C1032.38 916.333 1031.55 917.591 1030.99 919.182C1030.44 920.773 1030.17 922.583 1030.17 924.614C1030.17 926.644 1030.44 928.455 1030.99 930.045C1031.55 931.636 1032.38 932.894 1033.47 933.818C1034.57 934.727 1035.94 935.182 1037.56 935.182ZM1083.38 927.136V907.091H1093.06V942H1083.76V935.659H1083.4C1082.61 937.705 1081.3 939.348 1079.47 940.591C1077.65 941.833 1075.43 942.455 1072.81 942.455C1070.47 942.455 1068.42 941.924 1066.65 940.864C1064.88 939.803 1063.49 938.295 1062.49 936.341C1061.5 934.386 1061 932.045 1060.99 929.318V907.091H1070.67V927.591C1070.69 929.652 1071.24 931.28 1072.33 932.477C1073.42 933.674 1074.88 934.273 1076.72 934.273C1077.88 934.273 1078.97 934.008 1079.99 933.477C1081 932.932 1081.82 932.129 1082.44 931.068C1083.08 930.008 1083.39 928.697 1083.38 927.136ZM1100.8 955.091V907.091H1110.35V912.955H1110.78C1111.2 912.015 1111.82 911.061 1112.62 910.091C1113.44 909.106 1114.5 908.288 1115.8 907.636C1117.12 906.97 1118.76 906.636 1120.71 906.636C1123.26 906.636 1125.6 907.303 1127.76 908.636C1129.91 909.955 1131.63 911.947 1132.91 914.614C1134.2 917.265 1134.85 920.591 1134.85 924.591C1134.85 928.485 1134.22 931.773 1132.96 934.455C1131.72 937.121 1130.02 939.144 1127.87 940.523C1125.73 941.886 1123.34 942.568 1120.69 942.568C1118.81 942.568 1117.21 942.258 1115.89 941.636C1114.59 941.015 1113.52 940.235 1112.69 939.295C1111.85 938.341 1111.22 937.379 1110.78 936.409H1110.48V955.091H1100.8ZM1110.28 924.545C1110.28 926.621 1110.57 928.432 1111.14 929.977C1111.72 931.523 1112.55 932.727 1113.64 933.591C1114.73 934.439 1116.06 934.864 1117.62 934.864C1119.2 934.864 1120.53 934.432 1121.62 933.568C1122.71 932.689 1123.54 931.477 1124.1 929.932C1124.67 928.371 1124.96 926.576 1124.96 924.545C1124.96 922.53 1124.68 920.758 1124.12 919.227C1123.56 917.697 1122.73 916.5 1121.64 915.636C1120.55 914.773 1119.21 914.341 1117.62 914.341C1116.04 914.341 1114.71 914.758 1113.62 915.591C1112.54 916.424 1111.72 917.606 1111.14 919.136C1110.57 920.667 1110.28 922.47 1110.28 924.545ZM1174.89 907.091V914.364H1153.34V907.091H1174.89ZM1158.27 942V904.568C1158.27 902.038 1158.77 899.939 1159.75 898.273C1160.75 896.606 1162.11 895.356 1163.84 894.523C1165.57 893.689 1167.53 893.273 1169.73 893.273C1171.21 893.273 1172.57 893.386 1173.8 893.614C1175.04 893.841 1175.96 894.045 1176.57 894.227L1174.84 901.5C1174.46 901.379 1173.99 901.265 1173.43 901.159C1172.89 901.053 1172.33 901 1171.75 901C1170.33 901 1169.33 901.333 1168.77 902C1168.21 902.652 1167.93 903.568 1167.93 904.75V942H1158.27ZM1195.32 942.682C1191.79 942.682 1188.74 941.932 1186.16 940.432C1183.6 938.917 1181.63 936.811 1180.23 934.114C1178.84 931.402 1178.14 928.258 1178.14 924.682C1178.14 921.076 1178.84 917.924 1180.23 915.227C1181.63 912.515 1183.6 910.409 1186.16 908.909C1188.74 907.394 1191.79 906.636 1195.32 906.636C1198.85 906.636 1201.9 907.394 1204.46 908.909C1207.04 910.409 1209.02 912.515 1210.41 915.227C1211.81 917.924 1212.51 921.076 1212.51 924.682C1212.51 928.258 1211.81 931.402 1210.41 934.114C1209.02 936.811 1207.04 938.917 1204.46 940.432C1201.9 941.932 1198.85 942.682 1195.32 942.682ZM1195.37 935.182C1196.98 935.182 1198.32 934.727 1199.39 933.818C1200.47 932.894 1201.28 931.636 1201.82 930.045C1202.38 928.455 1202.66 926.644 1202.66 924.614C1202.66 922.583 1202.38 920.773 1201.82 919.182C1201.28 917.591 1200.47 916.333 1199.39 915.409C1198.32 914.485 1196.98 914.023 1195.37 914.023C1193.75 914.023 1192.38 914.485 1191.28 915.409C1190.19 916.333 1189.36 917.591 1188.8 919.182C1188.26 920.773 1187.98 922.583 1187.98 924.614C1187.98 926.644 1188.26 928.455 1188.8 930.045C1189.36 931.636 1190.19 932.894 1191.28 933.818C1192.38 934.727 1193.75 935.182 1195.37 935.182ZM1218.8 942V907.091H1228.19V913.182H1228.55C1229.19 911.015 1230.26 909.379 1231.76 908.273C1233.26 907.152 1234.98 906.591 1236.94 906.591C1237.42 906.591 1237.95 906.621 1238.51 906.682C1239.07 906.742 1239.56 906.826 1239.98 906.932V915.523C1239.53 915.386 1238.9 915.265 1238.1 915.159C1237.29 915.053 1236.56 915 1235.89 915C1234.47 915 1233.2 915.311 1232.07 915.932C1230.97 916.538 1230.09 917.386 1229.44 918.477C1228.8 919.568 1228.48 920.826 1228.48 922.25V942H1218.8ZM1265.78 955.091C1264.55 955.091 1263.4 954.992 1262.32 954.795C1261.26 954.614 1260.38 954.379 1259.69 954.091L1261.87 946.864C1263.01 947.212 1264.03 947.402 1264.94 947.432C1265.86 947.462 1266.66 947.25 1267.32 946.795C1268.01 946.341 1268.56 945.568 1268.98 944.477L1269.55 943L1257.03 907.091H1267.21L1274.44 932.727H1274.8L1282.1 907.091H1292.35L1278.78 945.773C1278.13 947.652 1277.24 949.288 1276.12 950.682C1275.01 952.091 1273.61 953.174 1271.91 953.932C1270.22 954.705 1268.17 955.091 1265.78 955.091ZM1311.95 942.682C1308.42 942.682 1305.37 941.932 1302.79 940.432C1300.23 938.917 1298.25 936.811 1296.86 934.114C1295.46 931.402 1294.77 928.258 1294.77 924.682C1294.77 921.076 1295.46 917.924 1296.86 915.227C1298.25 912.515 1300.23 910.409 1302.79 908.909C1305.37 907.394 1308.42 906.636 1311.95 906.636C1315.48 906.636 1318.52 907.394 1321.09 908.909C1323.66 910.409 1325.65 912.515 1327.04 915.227C1328.43 917.924 1329.13 921.076 1329.13 924.682C1329.13 928.258 1328.43 931.402 1327.04 934.114C1325.65 936.811 1323.66 938.917 1321.09 940.432C1318.52 941.932 1315.48 942.682 1311.95 942.682ZM1311.99 935.182C1313.6 935.182 1314.94 934.727 1316.02 933.818C1317.09 932.894 1317.9 931.636 1318.45 930.045C1319.01 928.455 1319.29 926.644 1319.29 924.614C1319.29 922.583 1319.01 920.773 1318.45 919.182C1317.9 917.591 1317.09 916.333 1316.02 915.409C1314.94 914.485 1313.6 914.023 1311.99 914.023C1310.37 914.023 1309.01 914.485 1307.9 915.409C1306.81 916.333 1305.99 917.591 1305.43 919.182C1304.88 920.773 1304.61 922.583 1304.61 924.614C1304.61 926.644 1304.88 928.455 1305.43 930.045C1305.99 931.636 1306.81 932.894 1307.9 933.818C1309.01 934.727 1310.37 935.182 1311.99 935.182ZM1357.81 927.136V907.091H1367.49V942H1358.2V935.659H1357.84C1357.05 937.705 1355.74 939.348 1353.9 940.591C1352.09 941.833 1349.87 942.455 1347.24 942.455C1344.91 942.455 1342.86 941.924 1341.09 940.864C1339.31 939.803 1337.93 938.295 1336.93 936.341C1335.94 934.386 1335.44 932.045 1335.43 929.318V907.091H1345.11V927.591C1345.12 929.652 1345.68 931.28 1346.77 932.477C1347.86 933.674 1349.32 934.273 1351.15 934.273C1352.32 934.273 1353.41 934.008 1354.43 933.477C1355.44 932.932 1356.26 932.129 1356.88 931.068C1357.52 930.008 1357.83 928.697 1357.81 927.136ZM1375.24 942V907.091H1384.62V913.182H1384.99C1385.63 911.015 1386.69 909.379 1388.19 908.273C1389.69 907.152 1391.42 906.591 1393.38 906.591C1393.86 906.591 1394.38 906.621 1394.94 906.682C1395.5 906.742 1396 906.826 1396.42 906.932V915.523C1395.97 915.386 1395.34 915.265 1394.53 915.159C1393.73 915.053 1393 915 1392.33 915C1390.91 915 1389.63 915.311 1388.51 915.932C1387.41 916.538 1386.53 917.386 1385.88 918.477C1385.24 919.568 1384.92 920.826 1384.92 922.25V942H1375.24ZM1425.92 921.818V942H1416.24V895.455H1425.65V913.25H1426.06C1426.84 911.189 1428.12 909.576 1429.88 908.409C1431.63 907.227 1433.84 906.636 1436.49 906.636C1438.91 906.636 1441.03 907.167 1442.83 908.227C1444.65 909.273 1446.06 910.78 1447.06 912.75C1448.07 914.705 1448.57 917.045 1448.56 919.773V942H1438.88V921.5C1438.89 919.348 1438.34 917.674 1437.24 916.477C1436.15 915.28 1434.62 914.682 1432.65 914.682C1431.33 914.682 1430.16 914.962 1429.15 915.523C1428.15 916.083 1427.36 916.902 1426.78 917.977C1426.22 919.038 1425.94 920.318 1425.92 921.818ZM1472.09 942.682C1468.49 942.682 1465.4 941.955 1462.81 940.5C1460.24 939.03 1458.25 936.955 1456.86 934.273C1455.46 931.576 1454.77 928.386 1454.77 924.705C1454.77 921.114 1455.46 917.962 1456.86 915.25C1458.25 912.538 1460.21 910.424 1462.74 908.909C1465.29 907.394 1468.27 906.636 1471.7 906.636C1474 906.636 1476.15 907.008 1478.13 907.75C1480.13 908.477 1481.87 909.576 1483.36 911.045C1484.86 912.515 1486.02 914.364 1486.86 916.591C1487.69 918.803 1488.11 921.394 1488.11 924.364V927.023H1458.63V921.023H1478.99C1478.99 919.629 1478.69 918.394 1478.09 917.318C1477.48 916.242 1476.64 915.402 1475.56 914.795C1474.5 914.174 1473.27 913.864 1471.86 913.864C1470.39 913.864 1469.09 914.205 1467.95 914.886C1466.83 915.553 1465.95 916.455 1465.31 917.591C1464.68 918.712 1464.35 919.962 1464.34 921.341V927.045C1464.34 928.773 1464.65 930.265 1465.29 931.523C1465.94 932.78 1466.86 933.75 1468.04 934.432C1469.22 935.114 1470.62 935.455 1472.24 935.455C1473.32 935.455 1474.3 935.303 1475.2 935C1476.09 934.697 1476.86 934.242 1477.49 933.636C1478.13 933.03 1478.62 932.288 1478.95 931.409L1487.9 932C1487.45 934.152 1486.52 936.03 1485.11 937.636C1483.71 939.227 1481.91 940.47 1479.7 941.364C1477.5 942.242 1474.96 942.682 1472.09 942.682ZM1504.11 895.455V942H1494.43V895.455H1504.11ZM1511.86 955.091V907.091H1521.41V912.955H1521.84C1522.27 912.015 1522.88 911.061 1523.68 910.091C1524.5 909.106 1525.56 908.288 1526.86 907.636C1528.18 906.97 1529.82 906.636 1531.77 906.636C1534.32 906.636 1536.67 907.303 1538.82 908.636C1540.97 909.955 1542.69 911.947 1543.98 914.614C1545.27 917.265 1545.91 920.591 1545.91 924.591C1545.91 928.485 1545.28 931.773 1544.02 934.455C1542.78 937.121 1541.08 939.144 1538.93 940.523C1536.8 941.886 1534.4 942.568 1531.75 942.568C1529.87 942.568 1528.27 942.258 1526.95 941.636C1525.65 941.015 1524.58 940.235 1523.75 939.295C1522.92 938.341 1522.28 937.379 1521.84 936.409H1521.55V955.091H1511.86ZM1521.34 924.545C1521.34 926.621 1521.63 928.432 1522.2 929.977C1522.78 931.523 1523.61 932.727 1524.7 933.591C1525.8 934.439 1527.12 934.864 1528.68 934.864C1530.26 934.864 1531.59 934.432 1532.68 933.568C1533.77 932.689 1534.6 931.477 1535.16 929.932C1535.73 928.371 1536.02 926.576 1536.02 924.545C1536.02 922.53 1535.74 920.758 1535.18 919.227C1534.62 917.697 1533.8 916.5 1532.7 915.636C1531.61 914.773 1530.27 914.341 1528.68 914.341C1527.11 914.341 1525.77 914.758 1524.68 915.591C1523.61 916.424 1522.78 917.606 1522.2 919.136C1521.63 920.667 1521.34 922.47 1521.34 924.545ZM1558.02 942.591C1556.52 942.591 1555.23 942.061 1554.16 941C1553.1 939.924 1552.57 938.636 1552.57 937.136C1552.57 935.652 1553.1 934.379 1554.16 933.318C1555.23 932.258 1556.52 931.727 1558.02 931.727C1559.48 931.727 1560.75 932.258 1561.84 933.318C1562.93 934.379 1563.48 935.652 1563.48 937.136C1563.48 938.136 1563.22 939.053 1562.7 939.886C1562.2 940.705 1561.55 941.364 1560.73 941.864C1559.91 942.348 1559.01 942.591 1558.02 942.591Z" fill="white"/>
<rect x="1739" y="866" width="451" height="106" rx="24" fill="url(#paint0_linear_303_2046)"/>
<path d="M1789.45 893.455L1800.7 928.818H1801.14L1812.41 893.455H1823.32L1807.27 940H1794.59L1778.52 893.455H1789.45ZM1828.74 940V905.091H1838.42V940H1828.74ZM1833.6 900.591C1832.16 900.591 1830.93 900.114 1829.9 899.159C1828.88 898.189 1828.38 897.03 1828.38 895.682C1828.38 894.348 1828.88 893.205 1829.9 892.25C1830.93 891.28 1832.16 890.795 1833.6 890.795C1835.04 890.795 1836.27 891.28 1837.28 892.25C1838.31 893.205 1838.83 894.348 1838.83 895.682C1838.83 897.03 1838.31 898.189 1837.28 899.159C1836.27 900.114 1835.04 900.591 1833.6 900.591ZM1862.09 940.682C1858.49 940.682 1855.4 939.955 1852.81 938.5C1850.24 937.03 1848.25 934.955 1846.86 932.273C1845.46 929.576 1844.77 926.386 1844.77 922.705C1844.77 919.114 1845.46 915.962 1846.86 913.25C1848.25 910.538 1850.21 908.424 1852.74 906.909C1855.29 905.394 1858.27 904.636 1861.7 904.636C1864 904.636 1866.15 905.008 1868.13 905.75C1870.13 906.477 1871.87 907.576 1873.36 909.045C1874.86 910.515 1876.02 912.364 1876.86 914.591C1877.69 916.803 1878.11 919.394 1878.11 922.364V925.023H1848.63V919.023H1868.99C1868.99 917.629 1868.69 916.394 1868.09 915.318C1867.48 914.242 1866.64 913.402 1865.56 912.795C1864.5 912.174 1863.27 911.864 1861.86 911.864C1860.39 911.864 1859.09 912.205 1857.95 912.886C1856.83 913.553 1855.95 914.455 1855.31 915.591C1854.68 916.712 1854.35 917.962 1854.34 919.341V925.045C1854.34 926.773 1854.65 928.265 1855.29 929.523C1855.94 930.78 1856.86 931.75 1858.04 932.432C1859.22 933.114 1860.62 933.455 1862.24 933.455C1863.32 933.455 1864.3 933.303 1865.2 933C1866.09 932.697 1866.86 932.242 1867.49 931.636C1868.13 931.03 1868.62 930.288 1868.95 929.409L1877.9 930C1877.45 932.152 1876.52 934.03 1875.11 935.636C1873.71 937.227 1871.91 938.47 1869.7 939.364C1867.5 940.242 1864.96 940.682 1862.09 940.682ZM1894.11 893.455V940H1884.43V893.455H1894.11ZM1917.77 940.682C1914.18 940.682 1911.09 939.955 1908.5 938.5C1905.92 937.03 1903.94 934.955 1902.55 932.273C1901.15 929.576 1900.45 926.386 1900.45 922.705C1900.45 919.114 1901.15 915.962 1902.55 913.25C1903.94 910.538 1905.9 908.424 1908.43 906.909C1910.98 905.394 1913.96 904.636 1917.39 904.636C1919.69 904.636 1921.83 905.008 1923.82 905.75C1925.82 906.477 1927.56 907.576 1929.05 909.045C1930.55 910.515 1931.71 912.364 1932.55 914.591C1933.38 916.803 1933.8 919.394 1933.8 922.364V925.023H1904.32V919.023H1924.68C1924.68 917.629 1924.38 916.394 1923.77 915.318C1923.17 914.242 1922.33 913.402 1921.25 912.795C1920.19 912.174 1918.95 911.864 1917.55 911.864C1916.08 911.864 1914.77 912.205 1913.64 912.886C1912.52 913.553 1911.64 914.455 1911 915.591C1910.36 916.712 1910.04 917.962 1910.02 919.341V925.045C1910.02 926.773 1910.34 928.265 1910.98 929.523C1911.63 930.78 1912.55 931.75 1913.73 932.432C1914.91 933.114 1916.31 933.455 1917.93 933.455C1919.01 933.455 1919.99 933.303 1920.89 933C1921.78 932.697 1922.55 932.242 1923.18 931.636C1923.82 931.03 1924.3 930.288 1924.64 929.409L1933.59 930C1933.14 932.152 1932.2 934.03 1930.8 935.636C1929.4 937.227 1927.6 938.47 1925.39 939.364C1923.19 940.242 1920.65 940.682 1917.77 940.682ZM1949.8 919.818V940H1940.11V905.091H1949.34V911.25H1949.75C1950.52 909.22 1951.82 907.614 1953.64 906.432C1955.45 905.235 1957.66 904.636 1960.25 904.636C1962.67 904.636 1964.79 905.167 1966.59 906.227C1968.39 907.288 1969.8 908.803 1970.8 910.773C1971.8 912.727 1972.3 915.061 1972.3 917.773V940H1962.61V919.5C1962.63 917.364 1962.08 915.697 1960.98 914.5C1959.87 913.288 1958.35 912.682 1956.41 912.682C1955.11 912.682 1953.95 912.962 1952.95 913.523C1951.97 914.083 1951.2 914.902 1950.64 915.977C1950.09 917.038 1949.81 918.318 1949.8 919.818ZM2011.42 940H1994.92V893.455H2011.56C2016.24 893.455 2020.27 894.386 2023.65 896.25C2027.03 898.098 2029.63 900.758 2031.44 904.227C2033.28 907.697 2034.19 911.848 2034.19 916.682C2034.19 921.53 2033.28 925.697 2031.44 929.182C2029.63 932.667 2027.01 935.341 2023.6 937.205C2020.21 939.068 2016.15 940 2011.42 940ZM2004.76 931.568H2011.01C2013.92 931.568 2016.37 931.053 2018.35 930.023C2020.35 928.977 2021.85 927.364 2022.85 925.182C2023.87 922.985 2024.38 920.152 2024.38 916.682C2024.38 913.242 2023.87 910.432 2022.85 908.25C2021.85 906.068 2020.36 904.462 2018.38 903.432C2016.39 902.402 2013.94 901.886 2011.03 901.886H2004.76V931.568ZM2051.26 940.659C2049.03 940.659 2047.04 940.273 2045.3 939.5C2043.56 938.712 2042.18 937.553 2041.16 936.023C2040.16 934.477 2039.66 932.553 2039.66 930.25C2039.66 928.311 2040.02 926.682 2040.73 925.364C2041.45 924.045 2042.41 922.985 2043.64 922.182C2044.87 921.379 2046.26 920.773 2047.82 920.364C2049.4 919.955 2051.05 919.667 2052.78 919.5C2054.81 919.288 2056.45 919.091 2057.69 918.909C2058.93 918.712 2059.83 918.424 2060.39 918.045C2060.95 917.667 2061.23 917.106 2061.23 916.364V916.227C2061.23 914.788 2060.78 913.674 2059.87 912.886C2058.98 912.098 2057.7 911.705 2056.05 911.705C2054.31 911.705 2052.92 912.091 2051.89 912.864C2050.86 913.621 2050.18 914.576 2049.85 915.727L2040.89 915C2041.35 912.879 2042.24 911.045 2043.57 909.5C2044.91 907.939 2046.63 906.742 2048.73 905.909C2050.85 905.061 2053.31 904.636 2056.1 904.636C2058.04 904.636 2059.89 904.864 2061.66 905.318C2063.45 905.773 2065.04 906.477 2066.41 907.432C2067.81 908.386 2068.91 909.614 2069.71 911.114C2070.51 912.598 2070.91 914.379 2070.91 916.455V940H2061.73V935.159H2061.46C2060.9 936.25 2060.15 937.212 2059.21 938.045C2058.27 938.864 2057.14 939.508 2055.82 939.977C2054.51 940.432 2052.98 940.659 2051.26 940.659ZM2054.03 933.977C2055.45 933.977 2056.71 933.697 2057.8 933.136C2058.89 932.561 2059.75 931.788 2060.37 930.818C2060.99 929.848 2061.3 928.75 2061.3 927.523V923.818C2061 924.015 2060.58 924.197 2060.05 924.364C2059.54 924.515 2058.95 924.659 2058.3 924.795C2057.65 924.917 2057 925.03 2056.35 925.136C2055.7 925.227 2055.1 925.311 2054.57 925.386C2053.44 925.553 2052.45 925.818 2051.6 926.182C2050.75 926.545 2050.09 927.038 2049.62 927.659C2049.15 928.265 2048.91 929.023 2048.91 929.932C2048.91 931.25 2049.39 932.258 2050.35 932.955C2051.32 933.636 2052.54 933.977 2054.03 933.977ZM2088.11 919.818V940H2078.43V905.091H2087.65V911.25H2088.06C2088.84 909.22 2090.13 907.614 2091.95 906.432C2093.77 905.235 2095.97 904.636 2098.56 904.636C2100.99 904.636 2103.1 905.167 2104.9 906.227C2106.71 907.288 2108.11 908.803 2109.11 910.773C2110.11 912.727 2110.61 915.061 2110.61 917.773V940H2100.93V919.5C2100.94 917.364 2100.4 915.697 2099.29 914.5C2098.18 913.288 2096.66 912.682 2094.72 912.682C2093.42 912.682 2092.27 912.962 2091.27 913.523C2090.28 914.083 2089.51 914.902 2088.95 915.977C2088.4 917.038 2088.12 918.318 2088.11 919.818ZM2127.01 929.955L2127.03 918.341H2128.44L2139.62 905.091H2150.74L2135.72 922.636H2133.42L2127.01 929.955ZM2118.24 940V893.455H2127.92V940H2118.24ZM2140.06 940L2129.78 924.795L2136.24 917.955L2151.4 940H2140.06Z" fill="white"/>
<rect x="2214" y="866" width="580" height="106" rx="24" fill="url(#paint1_linear_303_2046)"/>
<path d="M2255.86 940V905.091H2265.09V911.25H2265.5C2266.23 909.205 2267.44 907.591 2269.14 906.409C2270.83 905.227 2272.86 904.636 2275.23 904.636C2277.62 904.636 2279.66 905.235 2281.34 906.432C2283.02 907.614 2284.14 909.22 2284.7 911.25H2285.07C2285.78 909.25 2287.07 907.652 2288.93 906.455C2290.81 905.242 2293.03 904.636 2295.59 904.636C2298.85 904.636 2301.49 905.674 2303.52 907.75C2305.57 909.811 2306.59 912.735 2306.59 916.523V940H2296.93V918.432C2296.93 916.492 2296.42 915.038 2295.39 914.068C2294.36 913.098 2293.07 912.614 2291.52 912.614C2289.77 912.614 2288.39 913.174 2287.41 914.295C2286.42 915.402 2285.93 916.864 2285.93 918.682V940H2276.55V918.227C2276.55 916.515 2276.05 915.152 2275.07 914.136C2274.1 913.121 2272.82 912.614 2271.23 912.614C2270.15 912.614 2269.18 912.886 2268.32 913.432C2267.47 913.962 2266.8 914.712 2266.3 915.682C2265.8 916.636 2265.55 917.758 2265.55 919.045V940H2255.86ZM2330.15 940.682C2326.56 940.682 2323.47 939.955 2320.88 938.5C2318.3 937.03 2316.31 934.955 2314.92 932.273C2313.53 929.576 2312.83 926.386 2312.83 922.705C2312.83 919.114 2313.53 915.962 2314.92 913.25C2316.31 910.538 2318.28 908.424 2320.81 906.909C2323.35 905.394 2326.34 904.636 2329.76 904.636C2332.06 904.636 2334.21 905.008 2336.19 905.75C2338.19 906.477 2339.94 907.576 2341.42 909.045C2342.92 910.515 2344.09 912.364 2344.92 914.591C2345.75 916.803 2346.17 919.394 2346.17 922.364V925.023H2316.69V919.023H2337.06C2337.06 917.629 2336.75 916.394 2336.15 915.318C2335.54 914.242 2334.7 913.402 2333.62 912.795C2332.56 912.174 2331.33 911.864 2329.92 911.864C2328.45 911.864 2327.15 912.205 2326.01 912.886C2324.89 913.553 2324.01 914.455 2323.38 915.591C2322.74 916.712 2322.41 917.962 2322.4 919.341V925.045C2322.4 926.773 2322.72 928.265 2323.35 929.523C2324 930.78 2324.92 931.75 2326.1 932.432C2327.28 933.114 2328.69 933.455 2330.31 933.455C2331.38 933.455 2332.37 933.303 2333.26 933C2334.16 932.697 2334.92 932.242 2335.56 931.636C2336.19 931.03 2336.68 930.288 2337.01 929.409L2345.97 930C2345.51 932.152 2344.58 934.03 2343.17 935.636C2341.78 937.227 2339.97 938.47 2337.76 939.364C2335.56 940.242 2333.03 940.682 2330.15 940.682ZM2352.49 940V905.091H2361.88V911.182H2362.24C2362.88 909.015 2363.94 907.379 2365.44 906.273C2366.94 905.152 2368.67 904.591 2370.62 904.591C2371.11 904.591 2371.63 904.621 2372.19 904.682C2372.75 904.742 2373.25 904.826 2373.67 904.932V913.523C2373.22 913.386 2372.59 913.265 2371.78 913.159C2370.98 913.053 2370.25 913 2369.58 913C2368.16 913 2366.88 913.311 2365.76 913.932C2364.66 914.538 2363.78 915.386 2363.12 916.477C2362.49 917.568 2362.17 918.826 2362.17 920.25V940H2352.49ZM2392.82 940.682C2389.25 940.682 2386.17 939.924 2383.6 938.409C2381.04 936.879 2379.07 934.758 2377.69 932.045C2376.32 929.333 2375.64 926.212 2375.64 922.682C2375.64 919.106 2376.33 915.97 2377.71 913.273C2379.1 910.561 2381.08 908.447 2383.64 906.932C2386.2 905.402 2389.25 904.636 2392.78 904.636C2395.82 904.636 2398.49 905.189 2400.78 906.295C2403.07 907.402 2404.88 908.955 2406.21 910.955C2407.54 912.955 2408.28 915.303 2408.41 918H2399.28C2399.02 916.258 2398.34 914.856 2397.23 913.795C2396.14 912.72 2394.71 912.182 2392.94 912.182C2391.44 912.182 2390.13 912.591 2389.01 913.409C2387.9 914.212 2387.04 915.386 2386.41 916.932C2385.79 918.477 2385.48 920.348 2385.48 922.545C2385.48 924.773 2385.79 926.667 2386.39 928.227C2387.01 929.788 2387.88 930.977 2389.01 931.795C2390.13 932.614 2391.44 933.023 2392.94 933.023C2394.04 933.023 2395.04 932.795 2395.91 932.341C2396.81 931.886 2397.54 931.227 2398.12 930.364C2398.71 929.485 2399.1 928.432 2399.28 927.205H2408.41C2408.26 929.871 2407.54 932.22 2406.23 934.25C2404.95 936.265 2403.16 937.841 2400.89 938.977C2398.62 940.114 2395.93 940.682 2392.82 940.682ZM2414.61 940V905.091H2424.3V940H2414.61ZM2419.48 900.591C2418.04 900.591 2416.8 900.114 2415.77 899.159C2414.76 898.189 2414.25 897.03 2414.25 895.682C2414.25 894.348 2414.76 893.205 2415.77 892.25C2416.8 891.28 2418.04 890.795 2419.48 890.795C2420.92 890.795 2422.14 891.28 2423.16 892.25C2424.19 893.205 2424.7 894.348 2424.7 895.682C2424.7 897.03 2424.19 898.189 2423.16 899.159C2422.14 900.114 2420.92 900.591 2419.48 900.591ZM2447.05 940V893.455H2456.73V910.955H2457.02C2457.45 910.015 2458.06 909.061 2458.86 908.091C2459.68 907.106 2460.74 906.288 2462.05 905.636C2463.36 904.97 2465 904.636 2466.95 904.636C2469.5 904.636 2471.85 905.303 2474 906.636C2476.15 907.955 2477.87 909.947 2479.16 912.614C2480.45 915.265 2481.09 918.591 2481.09 922.591C2481.09 926.485 2480.46 929.773 2479.2 932.455C2477.96 935.121 2476.27 937.144 2474.11 938.523C2471.98 939.886 2469.58 940.568 2466.93 940.568C2465.05 940.568 2463.45 940.258 2462.14 939.636C2460.83 939.015 2459.77 938.235 2458.93 937.295C2458.1 936.341 2457.46 935.379 2457.02 934.409H2456.59V940H2447.05ZM2456.52 922.545C2456.52 924.621 2456.81 926.432 2457.39 927.977C2457.96 929.523 2458.8 930.727 2459.89 931.591C2460.98 932.439 2462.3 932.864 2463.86 932.864C2465.44 932.864 2466.77 932.432 2467.86 931.568C2468.95 930.689 2469.78 929.477 2470.34 927.932C2470.92 926.371 2471.2 924.576 2471.2 922.545C2471.2 920.53 2470.92 918.758 2470.36 917.227C2469.8 915.697 2468.98 914.5 2467.89 913.636C2466.8 912.773 2465.45 912.341 2463.86 912.341C2462.29 912.341 2460.95 912.758 2459.86 913.591C2458.79 914.424 2457.96 915.606 2457.39 917.136C2456.81 918.667 2456.52 920.47 2456.52 922.545ZM2503.46 940.682C2499.87 940.682 2496.78 939.955 2494.19 938.5C2491.61 937.03 2489.63 934.955 2488.23 932.273C2486.84 929.576 2486.14 926.386 2486.14 922.705C2486.14 919.114 2486.84 915.962 2488.23 913.25C2489.63 910.538 2491.59 908.424 2494.12 906.909C2496.66 905.394 2499.65 904.636 2503.07 904.636C2505.38 904.636 2507.52 905.008 2509.51 905.75C2511.51 906.477 2513.25 907.576 2514.73 909.045C2516.23 910.515 2517.4 912.364 2518.23 914.591C2519.07 916.803 2519.48 919.394 2519.48 922.364V925.023H2490.01V919.023H2510.37C2510.37 917.629 2510.07 916.394 2509.46 915.318C2508.85 914.242 2508.01 913.402 2506.94 912.795C2505.88 912.174 2504.64 911.864 2503.23 911.864C2501.76 911.864 2500.46 912.205 2499.32 912.886C2498.2 913.553 2497.32 914.455 2496.69 915.591C2496.05 916.712 2495.73 917.962 2495.71 919.341V925.045C2495.71 926.773 2496.03 928.265 2496.66 929.523C2497.32 930.78 2498.23 931.75 2499.41 932.432C2500.6 933.114 2502 933.455 2503.62 933.455C2504.7 933.455 2505.68 933.303 2506.57 933C2507.47 932.697 2508.23 932.242 2508.87 931.636C2509.51 931.03 2509.99 930.288 2510.32 929.409L2519.28 930C2518.82 932.152 2517.89 934.03 2516.48 935.636C2515.09 937.227 2513.29 938.47 2511.07 939.364C2508.88 940.242 2506.34 940.682 2503.46 940.682ZM2535.76 940.659C2533.53 940.659 2531.54 940.273 2529.8 939.5C2528.06 938.712 2526.68 937.553 2525.66 936.023C2524.66 934.477 2524.16 932.553 2524.16 930.25C2524.16 928.311 2524.52 926.682 2525.23 925.364C2525.95 924.045 2526.91 922.985 2528.14 922.182C2529.37 921.379 2530.76 920.773 2532.32 920.364C2533.9 919.955 2535.55 919.667 2537.28 919.5C2539.31 919.288 2540.95 919.091 2542.19 918.909C2543.43 918.712 2544.33 918.424 2544.89 918.045C2545.45 917.667 2545.73 917.106 2545.73 916.364V916.227C2545.73 914.788 2545.28 913.674 2544.37 912.886C2543.48 912.098 2542.2 911.705 2540.55 911.705C2538.81 911.705 2537.42 912.091 2536.39 912.864C2535.36 913.621 2534.68 914.576 2534.35 915.727L2525.39 915C2525.85 912.879 2526.74 911.045 2528.07 909.5C2529.41 907.939 2531.13 906.742 2533.23 905.909C2535.35 905.061 2537.81 904.636 2540.6 904.636C2542.54 904.636 2544.39 904.864 2546.16 905.318C2547.95 905.773 2549.54 906.477 2550.91 907.432C2552.31 908.386 2553.41 909.614 2554.21 911.114C2555.01 912.598 2555.41 914.379 2555.41 916.455V940H2546.23V935.159H2545.96C2545.4 936.25 2544.65 937.212 2543.71 938.045C2542.77 938.864 2541.64 939.508 2540.32 939.977C2539.01 940.432 2537.48 940.659 2535.76 940.659ZM2538.53 933.977C2539.95 933.977 2541.21 933.697 2542.3 933.136C2543.39 932.561 2544.25 931.788 2544.87 930.818C2545.49 929.848 2545.8 928.75 2545.8 927.523V923.818C2545.5 924.015 2545.08 924.197 2544.55 924.364C2544.04 924.515 2543.45 924.659 2542.8 924.795C2542.15 924.917 2541.5 925.03 2540.85 925.136C2540.2 925.227 2539.6 925.311 2539.07 925.386C2537.94 925.553 2536.95 925.818 2536.1 926.182C2535.25 926.545 2534.59 927.038 2534.12 927.659C2533.65 928.265 2533.41 929.023 2533.41 929.932C2533.41 931.25 2533.89 932.258 2534.85 932.955C2535.82 933.636 2537.04 933.977 2538.53 933.977ZM2585.31 925.136V905.091H2594.99V940H2585.7V933.659H2585.34C2584.55 935.705 2583.24 937.348 2581.4 938.591C2579.59 939.833 2577.37 940.455 2574.74 940.455C2572.41 940.455 2570.36 939.924 2568.59 938.864C2566.81 937.803 2565.43 936.295 2564.43 934.341C2563.44 932.386 2562.94 930.045 2562.93 927.318V905.091H2572.61V925.591C2572.62 927.652 2573.18 929.28 2574.27 930.477C2575.36 931.674 2576.82 932.273 2578.65 932.273C2579.82 932.273 2580.91 932.008 2581.93 931.477C2582.94 930.932 2583.76 930.129 2584.38 929.068C2585.02 928.008 2585.33 926.697 2585.31 925.136ZM2618.51 940.682C2614.94 940.682 2611.86 939.924 2609.28 938.409C2606.72 936.879 2604.75 934.758 2603.38 932.045C2602.01 929.333 2601.33 926.212 2601.33 922.682C2601.33 919.106 2602.02 915.97 2603.4 913.273C2604.79 910.561 2606.77 908.447 2609.33 906.932C2611.89 905.402 2614.94 904.636 2618.47 904.636C2621.51 904.636 2624.18 905.189 2626.47 906.295C2628.75 907.402 2630.56 908.955 2631.9 910.955C2633.23 912.955 2633.97 915.303 2634.1 918H2624.97C2624.71 916.258 2624.03 914.856 2622.92 913.795C2621.83 912.72 2620.4 912.182 2618.62 912.182C2617.12 912.182 2615.81 912.591 2614.69 913.409C2613.59 914.212 2612.72 915.386 2612.1 916.932C2611.48 918.477 2611.17 920.348 2611.17 922.545C2611.17 924.773 2611.47 926.667 2612.08 928.227C2612.7 929.788 2613.57 930.977 2614.69 931.795C2615.81 932.614 2617.12 933.023 2618.62 933.023C2619.73 933.023 2620.72 932.795 2621.6 932.341C2622.5 931.886 2623.23 931.227 2623.81 930.364C2624.4 929.485 2624.78 928.432 2624.97 927.205H2634.1C2633.95 929.871 2633.22 932.22 2631.92 934.25C2630.63 936.265 2628.85 937.841 2626.58 938.977C2624.31 940.114 2621.62 940.682 2618.51 940.682ZM2656.07 940.682C2652.54 940.682 2649.49 939.932 2646.91 938.432C2644.35 936.917 2642.38 934.811 2640.98 932.114C2639.59 929.402 2638.89 926.258 2638.89 922.682C2638.89 919.076 2639.59 915.924 2640.98 913.227C2642.38 910.515 2644.35 908.409 2646.91 906.909C2649.49 905.394 2652.54 904.636 2656.07 904.636C2659.6 904.636 2662.65 905.394 2665.21 906.909C2667.79 908.409 2669.77 910.515 2671.16 913.227C2672.56 915.924 2673.26 919.076 2673.26 922.682C2673.26 926.258 2672.56 929.402 2671.16 932.114C2669.77 934.811 2667.79 936.917 2665.21 938.432C2662.65 939.932 2659.6 940.682 2656.07 940.682ZM2656.12 933.182C2657.73 933.182 2659.07 932.727 2660.14 931.818C2661.22 930.894 2662.03 929.636 2662.57 928.045C2663.13 926.455 2663.41 924.644 2663.41 922.614C2663.41 920.583 2663.13 918.773 2662.57 917.182C2662.03 915.591 2661.22 914.333 2660.14 913.409C2659.07 912.485 2657.73 912.023 2656.12 912.023C2654.5 912.023 2653.13 912.485 2652.03 913.409C2650.94 914.333 2650.11 915.591 2649.55 917.182C2649.01 918.773 2648.73 920.583 2648.73 922.614C2648.73 924.644 2649.01 926.455 2649.55 928.045C2650.11 929.636 2650.94 930.894 2652.03 931.818C2653.13 932.727 2654.5 933.182 2656.12 933.182ZM2701.94 925.136V905.091H2711.62V940H2702.32V933.659H2701.96C2701.17 935.705 2699.86 937.348 2698.03 938.591C2696.21 939.833 2693.99 940.455 2691.37 940.455C2689.04 940.455 2686.98 939.924 2685.21 938.864C2683.44 937.803 2682.05 936.295 2681.05 934.341C2680.07 932.386 2679.57 930.045 2679.55 927.318V905.091H2689.23V925.591C2689.25 927.652 2689.8 929.28 2690.89 930.477C2691.98 931.674 2693.45 932.273 2695.28 932.273C2696.45 932.273 2697.54 932.008 2698.55 931.477C2699.57 930.932 2700.38 930.129 2701.01 929.068C2701.64 928.008 2701.95 926.697 2701.94 925.136ZM2719.36 953.091V905.091H2728.91V910.955H2729.34C2729.77 910.015 2730.38 909.061 2731.18 908.091C2732 907.106 2733.06 906.288 2734.36 905.636C2735.68 904.97 2737.32 904.636 2739.27 904.636C2741.82 904.636 2744.17 905.303 2746.32 906.636C2748.47 907.955 2750.19 909.947 2751.48 912.614C2752.77 915.265 2753.41 918.591 2753.41 922.591C2753.41 926.485 2752.78 929.773 2751.52 932.455C2750.28 935.121 2748.58 937.144 2746.43 938.523C2744.3 939.886 2741.9 940.568 2739.25 940.568C2737.37 940.568 2735.77 940.258 2734.45 939.636C2733.15 939.015 2732.08 938.235 2731.25 937.295C2730.42 936.341 2729.78 935.379 2729.34 934.409H2729.05V953.091H2719.36ZM2728.84 922.545C2728.84 924.621 2729.13 926.432 2729.7 927.977C2730.28 929.523 2731.11 930.727 2732.2 931.591C2733.3 932.439 2734.62 932.864 2736.18 932.864C2737.76 932.864 2739.09 932.432 2740.18 931.568C2741.27 930.689 2742.1 929.477 2742.66 927.932C2743.23 926.371 2743.52 924.576 2743.52 922.545C2743.52 920.53 2743.24 918.758 2742.68 917.227C2742.12 915.697 2741.3 914.5 2740.2 913.636C2739.11 912.773 2737.77 912.341 2736.18 912.341C2734.61 912.341 2733.27 912.758 2732.18 913.591C2731.11 914.424 2730.28 915.606 2729.7 917.136C2729.13 918.667 2728.84 920.47 2728.84 922.545Z" fill="white"/>
<rect x="2818" y="866" width="492" height="106" rx="24" fill="url(#paint2_linear_303_2046)"/>
<path d="M2878.64 905.091V912.364H2857.09V905.091H2878.64ZM2862.02 940V902.568C2862.02 900.038 2862.52 897.939 2863.5 896.273C2864.5 894.606 2865.86 893.356 2867.59 892.523C2869.32 891.689 2871.28 891.273 2873.48 891.273C2874.96 891.273 2876.32 891.386 2877.55 891.614C2878.79 891.841 2879.71 892.045 2880.32 892.227L2878.59 899.5C2878.21 899.379 2877.74 899.265 2877.18 899.159C2876.64 899.053 2876.08 899 2875.5 899C2874.08 899 2873.08 899.333 2872.52 900C2871.96 900.652 2871.68 901.568 2871.68 902.75V940H2862.02ZM2899.07 940.682C2895.54 940.682 2892.49 939.932 2889.91 938.432C2887.35 936.917 2885.38 934.811 2883.98 932.114C2882.59 929.402 2881.89 926.258 2881.89 922.682C2881.89 919.076 2882.59 915.924 2883.98 913.227C2885.38 910.515 2887.35 908.409 2889.91 906.909C2892.49 905.394 2895.54 904.636 2899.07 904.636C2902.6 904.636 2905.65 905.394 2908.21 906.909C2910.79 908.409 2912.77 910.515 2914.16 913.227C2915.56 915.924 2916.26 919.076 2916.26 922.682C2916.26 926.258 2915.56 929.402 2914.16 932.114C2912.77 934.811 2910.79 936.917 2908.21 938.432C2905.65 939.932 2902.6 940.682 2899.07 940.682ZM2899.12 933.182C2900.73 933.182 2902.07 932.727 2903.14 931.818C2904.22 930.894 2905.03 929.636 2905.57 928.045C2906.13 926.455 2906.41 924.644 2906.41 922.614C2906.41 920.583 2906.13 918.773 2905.57 917.182C2905.03 915.591 2904.22 914.333 2903.14 913.409C2902.07 912.485 2900.73 912.023 2899.12 912.023C2897.5 912.023 2896.13 912.485 2895.03 913.409C2893.94 914.333 2893.11 915.591 2892.55 917.182C2892.01 918.773 2891.73 920.583 2891.73 922.614C2891.73 924.644 2892.01 926.455 2892.55 928.045C2893.11 929.636 2893.94 930.894 2895.03 931.818C2896.13 932.727 2897.5 933.182 2899.12 933.182ZM2922.55 940V905.091H2931.94V911.182H2932.3C2932.94 909.015 2934.01 907.379 2935.51 906.273C2937.01 905.152 2938.73 904.591 2940.69 904.591C2941.17 904.591 2941.7 904.621 2942.26 904.682C2942.82 904.742 2943.31 904.826 2943.73 904.932V913.523C2943.28 913.386 2942.65 913.265 2941.85 913.159C2941.04 913.053 2940.31 913 2939.64 913C2938.22 913 2936.95 913.311 2935.82 913.932C2934.72 914.538 2933.84 915.386 2933.19 916.477C2932.55 917.568 2932.23 918.826 2932.23 920.25V940H2922.55ZM2969.53 953.091C2968.3 953.091 2967.15 952.992 2966.07 952.795C2965.01 952.614 2964.13 952.379 2963.44 952.091L2965.62 944.864C2966.76 945.212 2967.78 945.402 2968.69 945.432C2969.61 945.462 2970.41 945.25 2971.07 944.795C2971.76 944.341 2972.31 943.568 2972.73 942.477L2973.3 941L2960.78 905.091H2970.96L2978.19 930.727H2978.55L2985.85 905.091H2996.1L2982.53 943.773C2981.88 945.652 2980.99 947.288 2979.87 948.682C2978.76 950.091 2977.36 951.174 2975.66 951.932C2973.97 952.705 2971.92 953.091 2969.53 953.091ZM3015.7 940.682C3012.17 940.682 3009.12 939.932 3006.54 938.432C3003.98 936.917 3002 934.811 3000.61 932.114C2999.21 929.402 2998.52 926.258 2998.52 922.682C2998.52 919.076 2999.21 915.924 3000.61 913.227C3002 910.515 3003.98 908.409 3006.54 906.909C3009.12 905.394 3012.17 904.636 3015.7 904.636C3019.23 904.636 3022.27 905.394 3024.84 906.909C3027.41 908.409 3029.4 910.515 3030.79 913.227C3032.18 915.924 3032.88 919.076 3032.88 922.682C3032.88 926.258 3032.18 929.402 3030.79 932.114C3029.4 934.811 3027.41 936.917 3024.84 938.432C3022.27 939.932 3019.23 940.682 3015.7 940.682ZM3015.74 933.182C3017.35 933.182 3018.69 932.727 3019.77 931.818C3020.84 930.894 3021.65 929.636 3022.2 928.045C3022.76 926.455 3023.04 924.644 3023.04 922.614C3023.04 920.583 3022.76 918.773 3022.2 917.182C3021.65 915.591 3020.84 914.333 3019.77 913.409C3018.69 912.485 3017.35 912.023 3015.74 912.023C3014.12 912.023 3012.76 912.485 3011.65 913.409C3010.56 914.333 3009.74 915.591 3009.18 917.182C3008.63 918.773 3008.36 920.583 3008.36 922.614C3008.36 924.644 3008.63 926.455 3009.18 928.045C3009.74 929.636 3010.56 930.894 3011.65 931.818C3012.76 932.727 3014.12 933.182 3015.74 933.182ZM3061.56 925.136V905.091H3071.24V940H3061.95V933.659H3061.59C3060.8 935.705 3059.49 937.348 3057.65 938.591C3055.84 939.833 3053.62 940.455 3050.99 940.455C3048.66 940.455 3046.61 939.924 3044.84 938.864C3043.06 937.803 3041.68 936.295 3040.68 934.341C3039.69 932.386 3039.19 930.045 3039.18 927.318V905.091H3048.86V925.591C3048.87 927.652 3049.43 929.28 3050.52 930.477C3051.61 931.674 3053.07 932.273 3054.9 932.273C3056.07 932.273 3057.16 932.008 3058.18 931.477C3059.19 930.932 3060.01 930.129 3060.63 929.068C3061.27 928.008 3061.58 926.697 3061.56 925.136ZM3078.99 940V905.091H3088.38V911.182H3088.74C3089.38 909.015 3090.44 907.379 3091.94 906.273C3093.44 905.152 3095.17 904.591 3097.12 904.591C3097.61 904.591 3098.13 904.621 3098.69 904.682C3099.25 904.742 3099.75 904.826 3100.17 904.932V913.523C3099.72 913.386 3099.09 913.265 3098.28 913.159C3097.48 913.053 3096.75 913 3096.08 913C3094.66 913 3093.38 913.311 3092.26 913.932C3091.16 914.538 3090.28 915.386 3089.62 916.477C3088.99 917.568 3088.67 918.826 3088.67 920.25V940H3078.99ZM3129.67 919.818V940H3119.99V893.455H3129.4V911.25H3129.81C3130.59 909.189 3131.87 907.576 3133.62 906.409C3135.38 905.227 3137.59 904.636 3140.24 904.636C3142.66 904.636 3144.78 905.167 3146.58 906.227C3148.4 907.273 3149.81 908.78 3150.81 910.75C3151.82 912.705 3152.32 915.045 3152.31 917.773V940H3142.62V919.5C3142.64 917.348 3142.09 915.674 3140.99 914.477C3139.9 913.28 3138.37 912.682 3136.4 912.682C3135.08 912.682 3133.91 912.962 3132.9 913.523C3131.9 914.083 3131.11 914.902 3130.53 915.977C3129.97 917.038 3129.69 918.318 3129.67 919.818ZM3175.84 940.682C3172.24 940.682 3169.15 939.955 3166.56 938.5C3163.99 937.03 3162 934.955 3160.61 932.273C3159.21 929.576 3158.52 926.386 3158.52 922.705C3158.52 919.114 3159.21 915.962 3160.61 913.25C3162 910.538 3163.96 908.424 3166.49 906.909C3169.04 905.394 3172.02 904.636 3175.45 904.636C3177.75 904.636 3179.9 905.008 3181.88 905.75C3183.88 906.477 3185.62 907.576 3187.11 909.045C3188.61 910.515 3189.77 912.364 3190.61 914.591C3191.44 916.803 3191.86 919.394 3191.86 922.364V925.023H3162.38V919.023H3182.74C3182.74 917.629 3182.44 916.394 3181.84 915.318C3181.23 914.242 3180.39 913.402 3179.31 912.795C3178.25 912.174 3177.02 911.864 3175.61 911.864C3174.14 911.864 3172.84 912.205 3171.7 912.886C3170.58 913.553 3169.7 914.455 3169.06 915.591C3168.43 916.712 3168.1 917.962 3168.09 919.341V925.045C3168.09 926.773 3168.4 928.265 3169.04 929.523C3169.69 930.78 3170.61 931.75 3171.79 932.432C3172.97 933.114 3174.37 933.455 3175.99 933.455C3177.07 933.455 3178.05 933.303 3178.95 933C3179.84 932.697 3180.61 932.242 3181.24 931.636C3181.88 931.03 3182.37 930.288 3182.7 929.409L3191.65 930C3191.2 932.152 3190.27 934.03 3188.86 935.636C3187.46 937.227 3185.66 938.47 3183.45 939.364C3181.25 940.242 3178.71 940.682 3175.84 940.682ZM3207.86 893.455V940H3198.18V893.455H3207.86ZM3215.61 953.091V905.091H3225.16V910.955H3225.59C3226.02 910.015 3226.63 909.061 3227.43 908.091C3228.25 907.106 3229.31 906.288 3230.61 905.636C3231.93 904.97 3233.57 904.636 3235.52 904.636C3238.07 904.636 3240.42 905.303 3242.57 906.636C3244.72 907.955 3246.44 909.947 3247.73 912.614C3249.02 915.265 3249.66 918.591 3249.66 922.591C3249.66 926.485 3249.03 929.773 3247.77 932.455C3246.53 935.121 3244.83 937.144 3242.68 938.523C3240.55 939.886 3238.15 940.568 3235.5 940.568C3233.62 940.568 3232.02 940.258 3230.7 939.636C3229.4 939.015 3228.33 938.235 3227.5 937.295C3226.67 936.341 3226.03 935.379 3225.59 934.409H3225.3V953.091H3215.61ZM3225.09 922.545C3225.09 924.621 3225.38 926.432 3225.95 927.977C3226.53 929.523 3227.36 930.727 3228.45 931.591C3229.55 932.439 3230.87 932.864 3232.43 932.864C3234.01 932.864 3235.34 932.432 3236.43 931.568C3237.52 930.689 3238.35 929.477 3238.91 927.932C3239.48 926.371 3239.77 924.576 3239.77 922.545C3239.77 920.53 3239.49 918.758 3238.93 917.227C3238.37 915.697 3237.55 914.5 3236.45 913.636C3235.36 912.773 3234.02 912.341 3232.43 912.341C3230.86 912.341 3229.52 912.758 3228.43 913.591C3227.36 914.424 3226.53 915.606 3225.95 917.136C3225.38 918.667 3225.09 920.47 3225.09 922.545ZM3261.77 940.591C3260.27 940.591 3258.98 940.061 3257.91 939C3256.85 937.924 3256.32 936.636 3256.32 935.136C3256.32 933.652 3256.85 932.379 3257.91 931.318C3258.98 930.258 3260.27 929.727 3261.77 929.727C3263.23 929.727 3264.5 930.258 3265.59 931.318C3266.68 932.379 3267.23 933.652 3267.23 935.136C3267.23 936.136 3266.97 937.053 3266.45 937.886C3265.95 938.705 3265.3 939.364 3264.48 939.864C3263.66 940.348 3262.76 940.591 3261.77 940.591Z" fill="white"/>
<rect x="893" y="667" width="713" height="131" rx="24" fill="#7B7B7B"/>
<path d="M949.12 694.56L958.16 697.36C956.08 702.88 953.52 708.48 950.56 713.76V768.8H941.44V727.92C939.68 730.32 937.84 732.48 936.08 734.4C935.2 732 932.56 726.8 930.96 724.48C938.16 717.28 945.12 705.92 949.12 694.56ZM963.92 729.84L973.2 731.76C970.88 741.92 966.8 752 962.32 758.48C960.48 756.96 956.48 754.56 954.16 753.36C958.72 747.76 962.08 738.72 963.92 729.84ZM997.2 717.36H986.48V758.32C986.48 762.88 985.68 765.52 982.8 767.12C980 768.64 976.16 769.04 971.04 769.04C970.64 766.24 969.2 762 967.76 759.44C971.12 759.52 974.48 759.52 975.6 759.52C976.64 759.52 977.04 759.2 977.04 758.16V717.36H967.76C965.52 722 962.88 726.24 960.24 729.6C958.56 727.92 954.72 724.8 952.56 723.36C958.64 716.56 963.44 705.52 966.16 694.56L975.44 696.64C974.4 700.72 973.12 704.64 971.68 708.56H999.2L1000.72 708.24L1007.44 709.52C1006.48 716 1005.12 723.44 1004 728.08L995.92 726.72C996.32 724.24 996.8 720.88 997.2 717.36ZM989.36 731.92L997.84 729.04C1002 737.28 1005.44 747.92 1006.56 755.12L997.44 758.24C996.56 751.12 993.2 740.16 989.36 731.92ZM1044.88 709.04V705.76H1016.16V698.96H1044.88V694.16H1054.56V698.96H1084V705.76H1054.56V709.04H1079.2V715.6H1021.68V709.04H1044.88ZM1067.52 755.52H1032.88V760.4H1067.52V755.52ZM1023.52 768.96V749.2H1077.36V768.88H1067.52V766.8H1032.88V768.96H1023.52ZM1060.24 734.08H1039.44C1040.4 735.68 1041.2 737.52 1041.68 739.04H1058.16C1058.96 737.44 1059.68 735.68 1060.24 734.08ZM1034.16 724.24V728.24H1066.08V724.24H1034.16ZM1068 739.04H1086.48V746.24H1013.44V739.04H1031.76C1031.28 737.6 1030.56 736.08 1029.92 734.88L1033.28 734.08H1025.12V718.24H1075.68V734.08H1071.12C1070.08 735.92 1068.96 737.6 1068 739.04ZM1093.12 702.64H1118.56V711.12H1093.12V702.64ZM1116 702.64H1117.52L1119.12 702.32L1124.96 704.32C1121.44 731.6 1111.92 751.84 1097.52 763.52C1096.08 761.28 1093.2 757.92 1091.12 756.32C1103.84 747.12 1113.12 726.96 1116 704.64V702.64ZM1092.88 719.92L1099.6 714.64C1108.16 726 1119.36 741.2 1124 750.96L1116.56 757.44C1112.08 747.44 1101.44 731.6 1092.88 719.92ZM1134.4 705.36H1159.44V714H1134.4V705.36ZM1131.6 694.24L1140.64 695.36C1138.96 709.2 1135.68 722 1130 730.16C1128.4 728.64 1124.48 725.84 1122.4 724.64C1127.68 717.68 1130.32 706.24 1131.6 694.24ZM1157.6 705.36H1159.04L1160.48 705.04L1166.96 706.72C1165.28 714.08 1162.8 722.16 1160.4 727.44L1152.96 724.96C1154.64 720.32 1156.64 712.8 1157.6 706.72V705.36ZM1146.96 724.32C1149.6 741.28 1155.52 755.2 1168.56 761.12C1166.48 762.96 1163.68 766.72 1162.32 769.2C1148.08 761.52 1142.32 746 1139.12 725.36L1146.96 724.32ZM1138.88 717.76H1147.92V723.92C1147.92 736.72 1145.84 756.24 1124.88 769.28C1123.44 767.2 1120.24 764.08 1118.08 762.56C1137.12 751.2 1138.88 734.56 1138.88 723.76V717.76ZM1228.4 740.08V736.64H1199.44V740.08H1228.4ZM1199.44 759.12H1228.4V755.44H1199.44V759.12ZM1228.4 749.52V746H1199.44V749.52H1228.4ZM1245.52 726.16H1202.4C1201.84 727.28 1201.2 728.32 1200.56 729.44H1238V769.2H1228.4V766.32H1199.44V769.2H1190.32V742.88C1186.72 746.48 1182.64 749.76 1178 752.48C1176.64 750.24 1173.84 746.72 1172 744.8C1180.32 740.32 1186.72 733.68 1191.52 726.16H1174.48V718.64H1195.52C1196.08 717.52 1196.56 716.32 1197.04 715.2H1180.08V708H1199.6C1199.92 706.88 1200.24 705.76 1200.48 704.56C1193.84 704.8 1187.2 704.88 1180.96 704.8C1180.88 702.72 1180 699.6 1179.2 697.68C1198.72 697.68 1221.84 696.72 1235.28 694.48L1240.88 701.28C1232.4 702.72 1221.92 703.6 1210.96 704.16C1210.64 705.44 1210.24 706.72 1209.84 708H1241.2V715.2H1207.28C1206.88 716.32 1206.4 717.52 1205.92 718.64H1245.52V726.16ZM1326.4 707.84C1325.52 708.88 1324 710.8 1323.28 712C1319.52 718.24 1311.92 728.32 1304.08 733.92L1295.76 727.28C1302.16 723.36 1308.4 716.32 1310.48 712.4H1268.8C1265.44 712.4 1262.8 712.64 1259.04 712.96V701.84C1262.08 702.32 1265.44 702.64 1268.8 702.64H1311.92C1314.16 702.64 1318.56 702.4 1320.08 701.92L1326.4 707.84ZM1293.76 718.64C1293.76 738.48 1293.36 754.8 1271.6 766.48L1262.24 758.88C1264.8 758 1267.68 756.64 1270.64 754.48C1280.8 747.44 1282.72 738.96 1282.72 725.84C1282.72 723.36 1282.56 721.2 1282.16 718.64H1293.76ZM1342.04 707.68C1344.92 708 1348.68 708.16 1351.4 708.16H1384.52C1387.72 708.16 1391.16 707.92 1393.4 707.68V719.28C1391.08 719.2 1387.32 718.96 1384.52 718.96H1351.48C1348.44 718.96 1344.76 719.12 1342.04 719.28V707.68ZM1335.32 746.8C1338.44 747.04 1342.2 747.28 1345.32 747.28H1391.24C1393.96 747.28 1397.32 747.12 1400.04 746.8V759.04C1397.24 758.72 1393.64 758.56 1391.24 758.56H1345.32C1342.2 758.56 1338.28 758.8 1335.32 759.04V746.8ZM1475.88 703.2C1474.84 705.04 1473.32 708.56 1472.52 710.4C1470.12 716.72 1466.52 724.8 1461.8 732.16C1468.84 737.92 1475.56 744.08 1481 749.84L1472.76 758.96C1467.16 752.4 1461.4 746.8 1455 741.28C1447.96 749.76 1438.76 758.64 1425.24 766L1416.28 757.92C1429.32 751.6 1438.76 743.84 1446.68 734.32C1440.92 729.76 1433.24 724.08 1425.08 719.12L1431.88 710.96C1438.28 714.88 1446.68 720.64 1453.16 725.44C1457.24 719.04 1459.96 712.72 1462.04 706.4C1462.76 704.32 1463.64 701.12 1463.96 699.04L1475.88 703.2ZM1555.16 728.8H1564.36C1564.36 728.8 1564.2 731.36 1564.12 732.56C1562.44 753.68 1560.76 762.32 1557.88 765.36C1556.04 767.6 1554.12 768.4 1551.56 768.64C1549.32 768.96 1545.72 768.96 1541.88 768.88C1541.72 766.24 1540.76 762.64 1539.32 760.24C1542.68 760.64 1545.72 760.64 1547.24 760.64C1548.52 760.64 1549.32 760.48 1550.2 759.6C1552.12 757.6 1553.88 749.68 1555.16 730.24V728.8ZM1521.48 698.16H1552.92V706.8H1521.48V698.16ZM1525.32 709.92L1534.28 710.4C1533.56 719.12 1532.44 730.16 1531.4 736.88H1522.44C1523.56 729.84 1524.76 718.56 1525.32 709.92ZM1525 728.8H1557.8V736.88H1525V728.8ZM1498.36 701.04H1517.64V748.24H1498.36V739.44H1509.08V709.84H1498.36V701.04ZM1493.56 701.04H1502.28V755.36H1493.56V701.04ZM1519.88 744.64H1550.2V753.12H1519.88V744.64ZM1549.24 698.16H1550.28L1551.72 697.84L1558.52 698.48C1557.8 709.2 1556.28 723.36 1554.76 734.64L1545.72 733.92C1547.24 722.56 1548.76 707.2 1549.24 699.12V698.16Z" fill="white"/>
<rect x="1739" y="667" width="394" height="131" rx="24" fill="url(#paint3_linear_303_2046)"/>
<path d="M1795.12 694.56L1804.16 697.36C1802.08 702.88 1799.52 708.48 1796.56 713.76V768.8H1787.44V727.92C1785.68 730.32 1783.84 732.48 1782.08 734.4C1781.2 732 1778.56 726.8 1776.96 724.48C1784.16 717.28 1791.12 705.92 1795.12 694.56ZM1809.92 729.84L1819.2 731.76C1816.88 741.92 1812.8 752 1808.32 758.48C1806.48 756.96 1802.48 754.56 1800.16 753.36C1804.72 747.76 1808.08 738.72 1809.92 729.84ZM1843.2 717.36H1832.48V758.32C1832.48 762.88 1831.68 765.52 1828.8 767.12C1826 768.64 1822.16 769.04 1817.04 769.04C1816.64 766.24 1815.2 762 1813.76 759.44C1817.12 759.52 1820.48 759.52 1821.6 759.52C1822.64 759.52 1823.04 759.2 1823.04 758.16V717.36H1813.76C1811.52 722 1808.88 726.24 1806.24 729.6C1804.56 727.92 1800.72 724.8 1798.56 723.36C1804.64 716.56 1809.44 705.52 1812.16 694.56L1821.44 696.64C1820.4 700.72 1819.12 704.64 1817.68 708.56H1845.2L1846.72 708.24L1853.44 709.52C1852.48 716 1851.12 723.44 1850 728.08L1841.92 726.72C1842.32 724.24 1842.8 720.88 1843.2 717.36ZM1835.36 731.92L1843.84 729.04C1848 737.28 1851.44 747.92 1852.56 755.12L1843.44 758.24C1842.56 751.12 1839.2 740.16 1835.36 731.92ZM1890.88 709.04V705.76H1862.16V698.96H1890.88V694.16H1900.56V698.96H1930V705.76H1900.56V709.04H1925.2V715.6H1867.68V709.04H1890.88ZM1913.52 755.52H1878.88V760.4H1913.52V755.52ZM1869.52 768.96V749.2H1923.36V768.88H1913.52V766.8H1878.88V768.96H1869.52ZM1906.24 734.08H1885.44C1886.4 735.68 1887.2 737.52 1887.68 739.04H1904.16C1904.96 737.44 1905.68 735.68 1906.24 734.08ZM1880.16 724.24V728.24H1912.08V724.24H1880.16ZM1914 739.04H1932.48V746.24H1859.44V739.04H1877.76C1877.28 737.6 1876.56 736.08 1875.92 734.88L1879.28 734.08H1871.12V718.24H1921.68V734.08H1917.12C1916.08 735.92 1914.96 737.6 1914 739.04ZM1939.12 702.64H1964.56V711.12H1939.12V702.64ZM1962 702.64H1963.52L1965.12 702.32L1970.96 704.32C1967.44 731.6 1957.92 751.84 1943.52 763.52C1942.08 761.28 1939.2 757.92 1937.12 756.32C1949.84 747.12 1959.12 726.96 1962 704.64V702.64ZM1938.88 719.92L1945.6 714.64C1954.16 726 1965.36 741.2 1970 750.96L1962.56 757.44C1958.08 747.44 1947.44 731.6 1938.88 719.92ZM1980.4 705.36H2005.44V714H1980.4V705.36ZM1977.6 694.24L1986.64 695.36C1984.96 709.2 1981.68 722 1976 730.16C1974.4 728.64 1970.48 725.84 1968.4 724.64C1973.68 717.68 1976.32 706.24 1977.6 694.24ZM2003.6 705.36H2005.04L2006.48 705.04L2012.96 706.72C2011.28 714.08 2008.8 722.16 2006.4 727.44L1998.96 724.96C2000.64 720.32 2002.64 712.8 2003.6 706.72V705.36ZM1992.96 724.32C1995.6 741.28 2001.52 755.2 2014.56 761.12C2012.48 762.96 2009.68 766.72 2008.32 769.2C1994.08 761.52 1988.32 746 1985.12 725.36L1992.96 724.32ZM1984.88 717.76H1993.92V723.92C1993.92 736.72 1991.84 756.24 1970.88 769.28C1969.44 767.2 1966.24 764.08 1964.08 762.56C1983.12 751.2 1984.88 734.56 1984.88 723.76V717.76ZM2074.4 740.08V736.64H2045.44V740.08H2074.4ZM2045.44 759.12H2074.4V755.44H2045.44V759.12ZM2074.4 749.52V746H2045.44V749.52H2074.4ZM2091.52 726.16H2048.4C2047.84 727.28 2047.2 728.32 2046.56 729.44H2084V769.2H2074.4V766.32H2045.44V769.2H2036.32V742.88C2032.72 746.48 2028.64 749.76 2024 752.48C2022.64 750.24 2019.84 746.72 2018 744.8C2026.32 740.32 2032.72 733.68 2037.52 726.16H2020.48V718.64H2041.52C2042.08 717.52 2042.56 716.32 2043.04 715.2H2026.08V708H2045.6C2045.92 706.88 2046.24 705.76 2046.48 704.56C2039.84 704.8 2033.2 704.88 2026.96 704.8C2026.88 702.72 2026 699.6 2025.2 697.68C2044.72 697.68 2067.84 696.72 2081.28 694.48L2086.88 701.28C2078.4 702.72 2067.92 703.6 2056.96 704.16C2056.64 705.44 2056.24 706.72 2055.84 708H2087.2V715.2H2053.28C2052.88 716.32 2052.4 717.52 2051.92 718.64H2091.52V726.16Z" fill="white"/>
<rect x="2165" y="667" width="313" height="131" rx="24" fill="url(#paint4_linear_303_2046)"/>
<path d="M2278.4 707.84C2277.52 708.88 2276 710.8 2275.28 712C2271.52 718.24 2263.92 728.32 2256.08 733.92L2247.76 727.28C2254.16 723.36 2260.4 716.32 2262.48 712.4H2220.8C2217.44 712.4 2214.8 712.64 2211.04 712.96V701.84C2214.08 702.32 2217.44 702.64 2220.8 702.64H2263.92C2266.16 702.64 2270.56 702.4 2272.08 701.92L2278.4 707.84ZM2245.76 718.64C2245.76 738.48 2245.36 754.8 2223.6 766.48L2214.24 758.88C2216.8 758 2219.68 756.64 2222.64 754.48C2232.8 747.44 2234.72 738.96 2234.72 725.84C2234.72 723.36 2234.56 721.2 2234.16 718.64H2245.76ZM2294.04 707.68C2296.92 708 2300.68 708.16 2303.4 708.16H2336.52C2339.72 708.16 2343.16 707.92 2345.4 707.68V719.28C2343.08 719.2 2339.32 718.96 2336.52 718.96H2303.48C2300.44 718.96 2296.76 719.12 2294.04 719.28V707.68ZM2287.32 746.8C2290.44 747.04 2294.2 747.28 2297.32 747.28H2343.24C2345.96 747.28 2349.32 747.12 2352.04 746.8V759.04C2349.24 758.72 2345.64 758.56 2343.24 758.56H2297.32C2294.2 758.56 2290.28 758.8 2287.32 759.04V746.8ZM2427.88 703.2C2426.84 705.04 2425.32 708.56 2424.52 710.4C2422.12 716.72 2418.52 724.8 2413.8 732.16C2420.84 737.92 2427.56 744.08 2433 749.84L2424.76 758.96C2419.16 752.4 2413.4 746.8 2407 741.28C2399.96 749.76 2390.76 758.64 2377.24 766L2368.28 757.92C2381.32 751.6 2390.76 743.84 2398.68 734.32C2392.92 729.76 2385.24 724.08 2377.08 719.12L2383.88 710.96C2390.28 714.88 2398.68 720.64 2405.16 725.44C2409.24 719.04 2411.96 712.72 2414.04 706.4C2414.76 704.32 2415.64 701.12 2415.96 699.04L2427.88 703.2Z" fill="white"/>
<rect x="2510" y="667" width="154" height="131" rx="24" fill="url(#paint5_linear_303_2046)"/>
<path d="M2613.72 728.8H2622.92C2622.92 728.8 2622.76 731.36 2622.68 732.56C2621 753.68 2619.32 762.32 2616.44 765.36C2614.6 767.6 2612.68 768.4 2610.12 768.64C2607.88 768.96 2604.28 768.96 2600.44 768.88C2600.28 766.24 2599.32 762.64 2597.88 760.24C2601.24 760.64 2604.28 760.64 2605.8 760.64C2607.08 760.64 2607.88 760.48 2608.76 759.6C2610.68 757.6 2612.44 749.68 2613.72 730.24V728.8ZM2580.04 698.16H2611.48V706.8H2580.04V698.16ZM2583.88 709.92L2592.84 710.4C2592.12 719.12 2591 730.16 2589.96 736.88H2581C2582.12 729.84 2583.32 718.56 2583.88 709.92ZM2583.56 728.8H2616.36V736.88H2583.56V728.8ZM2556.92 701.04H2576.2V748.24H2556.92V739.44H2567.64V709.84H2556.92V701.04ZM2552.12 701.04H2560.84V755.36H2552.12V701.04ZM2578.44 744.64H2608.76V753.12H2578.44V744.64ZM2607.8 698.16H2608.84L2610.28 697.84L2617.08 698.48C2616.36 709.2 2614.84 723.36 2613.32 734.64L2604.28 733.92C2605.8 722.56 2607.32 707.2 2607.8 699.12V698.16Z" fill="white"/>
<rect x="906" y="78" width="1527" height="477" rx="91" fill="white"/>
<rect x="978.76" y="174.251" width="627" height="284" rx="142" fill="#7B7B7B"/>
<path d="M1192.56 301.815L1167.63 303.349C1167.2 301.219 1166.29 299.301 1164.88 297.597C1163.47 295.849 1161.62 294.464 1159.32 293.442C1157.06 292.376 1154.35 291.844 1151.2 291.844C1146.98 291.844 1143.42 292.739 1140.53 294.528C1137.63 296.276 1136.18 298.619 1136.18 301.56C1136.18 303.903 1137.12 305.885 1138.99 307.504C1140.87 309.124 1144.08 310.423 1148.64 311.403L1166.41 314.983C1175.96 316.943 1183.08 320.097 1187.76 324.443C1192.45 328.79 1194.79 334.5 1194.79 341.574C1194.79 348.009 1192.9 353.655 1189.11 358.513C1185.36 363.371 1180.2 367.163 1173.64 369.891C1167.12 372.575 1159.6 373.918 1151.07 373.918C1138.08 373.918 1127.72 371.212 1120.01 365.8C1112.34 360.345 1107.84 352.93 1106.52 343.555L1133.3 342.149C1134.11 346.112 1136.07 349.138 1139.18 351.226C1142.29 353.271 1146.28 354.294 1151.14 354.294C1155.91 354.294 1159.74 353.378 1162.64 351.545C1165.58 349.67 1167.07 347.263 1167.12 344.322C1167.07 341.851 1166.03 339.827 1163.98 338.25C1161.94 336.631 1158.79 335.395 1154.52 334.543L1137.52 331.155C1127.93 329.237 1120.8 325.913 1116.11 321.183C1111.46 316.453 1109.14 310.423 1109.14 303.094C1109.14 296.787 1110.85 291.354 1114.25 286.794C1117.71 282.234 1122.54 278.719 1128.76 276.247C1135.03 273.776 1142.36 272.54 1150.75 272.54C1163.15 272.54 1172.91 275.161 1180.03 280.402C1187.19 285.643 1191.36 292.781 1192.56 301.815ZM1211.94 408.818V273.818H1238.79V290.31H1240C1241.19 287.668 1242.92 284.983 1245.18 282.256C1247.48 279.486 1250.46 277.185 1254.13 275.352C1257.84 273.477 1262.44 272.54 1267.94 272.54C1275.09 272.54 1281.7 274.415 1287.75 278.165C1293.8 281.872 1298.64 287.476 1302.26 294.976C1305.88 302.433 1307.69 311.787 1307.69 323.037C1307.69 333.989 1305.93 343.236 1302.39 350.778C1298.89 358.278 1294.12 363.967 1288.07 367.845C1282.06 371.68 1275.33 373.598 1267.87 373.598C1262.59 373.598 1258.09 372.724 1254.38 370.977C1250.72 369.23 1247.71 367.036 1245.37 364.393C1243.03 361.709 1241.24 359.003 1240 356.276H1239.17V408.818H1211.94ZM1238.6 322.909C1238.6 328.747 1239.41 333.839 1241.02 338.186C1242.64 342.533 1244.99 345.92 1248.06 348.349C1251.12 350.736 1254.85 351.929 1259.24 351.929C1263.67 351.929 1267.42 350.714 1270.49 348.286C1273.56 345.814 1275.88 342.405 1277.46 338.058C1279.08 333.669 1279.89 328.619 1279.89 322.909C1279.89 317.241 1279.1 312.256 1277.52 307.952C1275.95 303.648 1273.62 300.281 1270.56 297.852C1267.49 295.423 1263.72 294.209 1259.24 294.209C1254.81 294.209 1251.06 295.381 1247.99 297.724C1244.97 300.068 1242.64 303.392 1241.02 307.696C1239.41 312 1238.6 317.071 1238.6 322.909ZM1353.08 241.091V372H1325.85V241.091H1353.08ZM1374.89 372V273.818H1402.12V372H1374.89ZM1388.57 261.162C1384.52 261.162 1381.05 259.82 1378.15 257.135C1375.29 254.408 1373.87 251.148 1373.87 247.355C1373.87 243.605 1375.29 240.388 1378.15 237.703C1381.05 234.976 1384.52 233.612 1388.57 233.612C1392.62 233.612 1396.07 234.976 1398.92 237.703C1401.82 240.388 1403.27 243.605 1403.27 247.355C1403.27 251.148 1401.82 254.408 1398.92 257.135C1396.07 259.82 1392.62 261.162 1388.57 261.162ZM1476.16 273.818V294.273H1417.03V273.818H1476.16ZM1430.45 250.295H1457.68V341.83C1457.68 344.344 1458.07 346.304 1458.83 347.71C1459.6 349.074 1460.67 350.033 1462.03 350.587C1463.44 351.141 1465.06 351.418 1466.89 351.418C1468.17 351.418 1469.44 351.311 1470.72 351.098C1472 350.842 1472.98 350.651 1473.66 350.523L1477.95 370.786C1476.58 371.212 1474.66 371.702 1472.19 372.256C1469.72 372.852 1466.72 373.214 1463.18 373.342C1456.62 373.598 1450.86 372.724 1445.92 370.722C1441.02 368.719 1437.21 365.608 1434.48 361.389C1431.75 357.17 1430.41 351.844 1430.45 345.409V250.295Z" fill="white"/>
<rect x="1661.76" y="146" width="21" height="341" rx="10.5" fill="#BCBCBC"/>
<rect x="1738.76" y="174.25" width="621" height="285" rx="142.5" fill="url(#paint6_linear_303_2046)"/>
<path d="M1898.1 241.091V372H1870.87V241.091H1898.1ZM1947.91 373.854C1941.64 373.854 1936.06 372.767 1931.16 370.594C1926.26 368.378 1922.38 365.118 1919.53 360.814C1916.71 356.467 1915.31 351.055 1915.31 344.578C1915.31 339.124 1916.31 334.543 1918.31 330.835C1920.31 327.128 1923.04 324.145 1926.49 321.886C1929.94 319.628 1933.87 317.923 1938.25 316.773C1942.69 315.622 1947.33 314.812 1952.19 314.344C1957.9 313.747 1962.5 313.193 1966 312.682C1969.49 312.128 1972.03 311.318 1973.6 310.253C1975.18 309.187 1975.97 307.611 1975.97 305.523V305.139C1975.97 301.091 1974.69 297.959 1972.13 295.743C1969.62 293.527 1966.04 292.419 1961.39 292.419C1956.49 292.419 1952.59 293.506 1949.7 295.679C1946.8 297.81 1944.88 300.494 1943.94 303.733L1918.76 301.688C1920.04 295.722 1922.55 290.565 1926.3 286.219C1930.05 281.83 1934.89 278.463 1940.81 276.119C1946.78 273.733 1953.68 272.54 1961.52 272.54C1966.98 272.54 1972.2 273.179 1977.18 274.457C1982.21 275.736 1986.66 277.717 1990.54 280.402C1994.46 283.087 1997.55 286.538 1999.81 290.757C2002.07 294.933 2003.2 299.94 2003.2 305.778V372H1977.37V358.385H1976.61C1975.03 361.453 1972.92 364.159 1970.28 366.503C1967.64 368.804 1964.46 370.615 1960.75 371.936C1957.05 373.214 1952.76 373.854 1947.91 373.854ZM1955.7 355.061C1959.71 355.061 1963.25 354.273 1966.32 352.696C1969.38 351.077 1971.79 348.903 1973.54 346.176C1975.29 343.449 1976.16 340.359 1976.16 336.908V326.489C1975.31 327.043 1974.14 327.554 1972.64 328.023C1971.19 328.449 1969.55 328.854 1967.72 329.237C1965.89 329.578 1964.06 329.898 1962.22 330.196C1960.39 330.452 1958.73 330.686 1957.24 330.899C1954.04 331.368 1951.25 332.114 1948.87 333.136C1946.48 334.159 1944.63 335.544 1943.3 337.291C1941.98 338.996 1941.32 341.126 1941.32 343.683C1941.32 347.391 1942.67 350.224 1945.35 352.185C1948.08 354.102 1951.53 355.061 1955.7 355.061ZM2051.55 315.239V372H2024.32V273.818H2050.28V291.141H2051.43C2053.6 285.43 2057.24 280.913 2062.36 277.589C2067.47 274.223 2073.67 272.54 2080.96 272.54C2087.78 272.54 2093.72 274.031 2098.79 277.014C2103.86 279.997 2107.8 284.259 2110.62 289.798C2113.43 295.295 2114.83 301.858 2114.83 309.486V372H2087.6V314.344C2087.65 308.335 2086.11 303.648 2083 300.281C2079.89 296.872 2075.61 295.168 2070.15 295.168C2066.49 295.168 2063.25 295.956 2060.44 297.533C2057.67 299.109 2055.5 301.411 2053.92 304.436C2052.38 307.419 2051.6 311.02 2051.55 315.239ZM2180.53 410.864C2171.71 410.864 2164.14 409.649 2157.84 407.22C2151.57 404.834 2146.59 401.574 2142.88 397.44C2139.17 393.307 2136.76 388.662 2135.66 383.506L2160.84 380.118C2161.61 382.078 2162.82 383.911 2164.49 385.615C2166.15 387.32 2168.34 388.683 2171.07 389.706C2173.84 390.771 2177.21 391.304 2181.17 391.304C2187.09 391.304 2191.97 389.855 2195.81 386.957C2199.68 384.102 2201.62 379.308 2201.62 372.575V354.614H2200.47C2199.28 357.341 2197.49 359.919 2195.1 362.348C2192.72 364.777 2189.65 366.759 2185.9 368.293C2182.15 369.827 2177.67 370.594 2172.48 370.594C2165.1 370.594 2158.39 368.889 2152.34 365.48C2146.33 362.028 2141.54 356.766 2137.96 349.692C2134.42 342.575 2132.65 333.584 2132.65 322.717C2132.65 311.595 2134.46 302.305 2138.09 294.848C2141.71 287.391 2146.52 281.808 2152.53 278.101C2158.58 274.393 2165.21 272.54 2172.41 272.54C2177.91 272.54 2182.51 273.477 2186.22 275.352C2189.93 277.185 2192.91 279.486 2195.17 282.256C2197.47 284.983 2199.24 287.668 2200.47 290.31H2201.5V273.818H2228.53V372.959C2228.53 381.311 2226.49 388.3 2222.4 393.925C2218.31 399.55 2212.64 403.768 2205.39 406.581C2198.19 409.436 2189.9 410.864 2180.53 410.864ZM2181.1 350.139C2185.49 350.139 2189.2 349.053 2192.23 346.879C2195.29 344.663 2197.64 341.51 2199.26 337.419C2200.92 333.286 2201.75 328.342 2201.75 322.589C2201.75 316.837 2200.94 311.851 2199.32 307.632C2197.7 303.371 2195.36 300.068 2192.29 297.724C2189.22 295.381 2185.49 294.209 2181.1 294.209C2176.63 294.209 2172.86 295.423 2169.79 297.852C2166.72 300.239 2164.4 303.562 2162.82 307.824C2161.25 312.085 2160.46 317.007 2160.46 322.589C2160.46 328.257 2161.25 333.158 2162.82 337.291C2164.44 341.382 2166.76 344.557 2169.79 346.815C2172.86 349.031 2176.63 350.139 2181.1 350.139Z" fill="white"/>
<defs>
<linearGradient id="paint0_linear_303_2046" x1="1830.33" y1="866" x2="1919.01" y2="1048.78" gradientUnits="userSpaceOnUse">
<stop stop-color="#01B7F8"/>
<stop offset="1" stop-color="#046BF5"/>
</linearGradient>
<linearGradient id="paint1_linear_303_2046" x1="2331.45" y1="866" x2="2406.02" y2="1063.67" gradientUnits="userSpaceOnUse">
<stop stop-color="#01B7F8"/>
<stop offset="1" stop-color="#046BF5"/>
</linearGradient>
<linearGradient id="paint2_linear_303_2046" x1="2917.63" y1="866" x2="3001.47" y2="1054.51" gradientUnits="userSpaceOnUse">
<stop stop-color="#01B7F8"/>
<stop offset="1" stop-color="#046BF5"/>
</linearGradient>
<linearGradient id="paint3_linear_303_2046" x1="1818.78" y1="667" x2="1948.98" y2="856.695" gradientUnits="userSpaceOnUse">
<stop stop-color="#01B7F8"/>
<stop offset="1" stop-color="#046BF5"/>
</linearGradient>
<linearGradient id="paint4_linear_303_2046" x1="2228.38" y1="667" x2="2366.43" y2="826.786" gradientUnits="userSpaceOnUse">
<stop stop-color="#01B7F8"/>
<stop offset="1" stop-color="#046BF5"/>
</linearGradient>
<linearGradient id="paint5_linear_303_2046" x1="2541.18" y1="667" x2="2661.18" y2="735.338" gradientUnits="userSpaceOnUse">
<stop stop-color="#01B7F8"/>
<stop offset="1" stop-color="#046BF5"/>
</linearGradient>
<linearGradient id="paint6_linear_303_2046" x1="1864.51" y1="174.25" x2="2167.62" y2="494.196" gradientUnits="userSpaceOnUse">
<stop stop-color="#01B7F8"/>
<stop offset="1" stop-color="#046BF5"/>
</linearGradient>
</defs>
</svg>
