<svg width="1845" height="943" viewBox="0 0 1845 943" fill="none" xmlns="http://www.w3.org/2000/svg">
<rect x="518" y="108" width="809" height="145" rx="24" fill="#7B7B7B"/>
<path d="M576.988 136.444L587.384 139.664C584.992 146.012 582.048 152.452 578.644 158.524V221.82H568.156V174.808C566.132 177.568 564.016 180.052 561.992 182.26C560.98 179.5 557.944 173.52 556.104 170.852C564.384 162.572 572.388 149.508 576.988 136.444ZM594.008 177.016L604.68 179.224C602.012 190.908 597.32 202.5 592.168 209.952C590.052 208.204 585.452 205.444 582.784 204.064C588.028 197.624 591.892 187.228 594.008 177.016ZM632.28 162.664H619.952V209.768C619.952 215.012 619.032 218.048 615.72 219.888C612.5 221.636 608.084 222.096 602.196 222.096C601.736 218.876 600.08 214 598.424 211.056C602.288 211.148 606.152 211.148 607.44 211.148C608.636 211.148 609.096 210.78 609.096 209.584V162.664H598.424C595.848 168 592.812 172.876 589.776 176.74C587.844 174.808 583.428 171.22 580.944 169.564C587.936 161.744 593.456 149.048 596.584 136.444L607.256 138.836C606.06 143.528 604.588 148.036 602.932 152.544H634.58L636.328 152.176L644.056 153.648C642.952 161.1 641.388 169.656 640.1 174.992L630.808 173.428C631.268 170.576 631.82 166.712 632.28 162.664ZM623.264 179.408L633.016 176.096C637.8 185.572 641.756 197.808 643.044 206.088L632.556 209.676C631.544 201.488 627.68 188.884 623.264 179.408ZM687.112 153.096V149.324H654.084V141.504H687.112V135.984H698.244V141.504H732.1V149.324H698.244V153.096H726.58V160.64H660.432V153.096H687.112ZM713.148 206.548H673.312V212.16H713.148V206.548ZM662.548 222.004V199.28H724.464V221.912H713.148V219.52H673.312V222.004H662.548ZM704.776 181.892H680.856C681.96 183.732 682.88 185.848 683.432 187.596H702.384C703.304 185.756 704.132 183.732 704.776 181.892ZM674.784 170.576V175.176H711.492V170.576H674.784ZM713.7 187.596H734.952V195.876H650.956V187.596H672.024C671.472 185.94 670.644 184.192 669.908 182.812L673.772 181.892H664.388V163.676H722.532V181.892H717.288C716.092 184.008 714.804 185.94 713.7 187.596ZM742.588 145.736H771.844V155.488H742.588V145.736ZM768.9 145.736H770.648L772.488 145.368L779.204 147.668C775.156 179.04 764.208 202.316 747.648 215.748C745.992 213.172 742.68 209.308 740.288 207.468C754.916 196.888 765.588 173.704 768.9 148.036V145.736ZM742.312 165.608L750.04 159.536C759.884 172.6 772.764 190.08 778.1 201.304L769.544 208.756C764.392 197.256 752.156 179.04 742.312 165.608ZM790.06 148.864H818.856V158.8H790.06V148.864ZM786.84 136.076L797.236 137.364C795.304 153.28 791.532 168 785 177.384C783.16 175.636 778.652 172.416 776.26 171.036C782.332 163.032 785.368 149.876 786.84 136.076ZM816.74 148.864H818.396L820.052 148.496L827.504 150.428C825.572 158.892 822.72 168.184 819.96 174.256L811.404 171.404C813.336 166.068 815.636 157.42 816.74 150.428V148.864ZM804.504 170.668C807.54 190.172 814.348 206.18 829.344 212.988C826.952 215.104 823.732 219.428 822.168 222.28C805.792 213.448 799.168 195.6 795.488 171.864L804.504 170.668ZM795.212 163.124H805.608V170.208C805.608 184.928 803.216 207.376 779.112 222.372C777.456 219.98 773.776 216.392 771.292 214.644C793.188 201.58 795.212 182.444 795.212 170.024V163.124ZM898.16 188.792V184.836H864.856V188.792H898.16ZM864.856 210.688H898.16V206.456H864.856V210.688ZM898.16 199.648V195.6H864.856V199.648H898.16ZM917.848 172.784H868.26C867.616 174.072 866.88 175.268 866.144 176.556H909.2V222.28H898.16V218.968H864.856V222.28H854.368V192.012C850.228 196.152 845.536 199.924 840.2 203.052C838.636 200.476 835.416 196.428 833.3 194.22C842.868 189.068 850.228 181.432 855.748 172.784H836.152V164.136H860.348C860.992 162.848 861.544 161.468 862.096 160.18H842.592V151.9H865.04C865.408 150.612 865.776 149.324 866.052 147.944C858.416 148.22 850.78 148.312 843.604 148.22C843.512 145.828 842.5 142.24 841.58 140.032C864.028 140.032 890.616 138.928 906.072 136.352L912.512 144.172C902.76 145.828 890.708 146.84 878.104 147.484C877.736 148.956 877.276 150.428 876.816 151.9H912.88V160.18H873.872C873.412 161.468 872.86 162.848 872.308 164.136H917.848V172.784ZM1010.86 151.716C1009.85 152.912 1008.1 155.12 1007.27 156.5C1002.95 163.676 994.208 175.268 985.192 181.708L975.624 174.072C982.984 169.564 990.16 161.468 992.552 156.96H944.62C940.756 156.96 937.72 157.236 933.396 157.604V144.816C936.892 145.368 940.756 145.736 944.62 145.736H994.208C996.784 145.736 1001.84 145.46 1003.59 144.908L1010.86 151.716ZM973.324 164.136C973.324 186.952 972.864 205.72 947.84 219.152L937.076 210.412C940.02 209.4 943.332 207.836 946.736 205.352C958.42 197.256 960.628 187.504 960.628 172.416C960.628 169.564 960.444 167.08 959.984 164.136H973.324ZM1028.84 151.532C1032.16 151.9 1036.48 152.084 1039.61 152.084H1077.7C1081.38 152.084 1085.33 151.808 1087.91 151.532V164.872C1085.24 164.78 1080.92 164.504 1077.7 164.504H1039.7C1036.2 164.504 1031.97 164.688 1028.84 164.872V151.532ZM1021.12 196.52C1024.7 196.796 1029.03 197.072 1032.62 197.072H1085.42C1088.55 197.072 1092.42 196.888 1095.54 196.52V210.596C1092.32 210.228 1088.18 210.044 1085.42 210.044H1032.62C1029.03 210.044 1024.52 210.32 1021.12 210.596V196.52ZM1182.76 146.38C1181.56 148.496 1179.82 152.544 1178.9 154.66C1176.14 161.928 1172 171.22 1166.57 179.684C1174.66 186.308 1182.39 193.392 1188.65 200.016L1179.17 210.504C1172.73 202.96 1166.11 196.52 1158.75 190.172C1150.65 199.924 1140.07 210.136 1124.52 218.6L1114.22 209.308C1129.22 202.04 1140.07 193.116 1149.18 182.168C1142.56 176.924 1133.72 170.392 1124.34 164.688L1132.16 155.304C1139.52 159.812 1149.18 166.436 1156.63 171.956C1161.32 164.596 1164.45 157.328 1166.84 150.06C1167.67 147.668 1168.68 143.988 1169.05 141.596L1182.76 146.38ZM1273.93 175.82H1284.51C1284.51 175.82 1284.33 178.764 1284.24 180.144C1282.3 204.432 1280.37 214.368 1277.06 217.864C1274.94 220.44 1272.74 221.36 1269.79 221.636C1267.22 222.004 1263.08 222.004 1258.66 221.912C1258.48 218.876 1257.37 214.736 1255.72 211.976C1259.58 212.436 1263.08 212.436 1264.82 212.436C1266.3 212.436 1267.22 212.252 1268.23 211.24C1270.44 208.94 1272.46 199.832 1273.93 177.476V175.82ZM1235.2 140.584H1271.36V150.52H1235.2V140.584ZM1239.62 154.108L1249.92 154.66C1249.09 164.688 1247.8 177.384 1246.61 185.112H1236.3C1237.59 177.016 1238.97 164.044 1239.62 154.108ZM1239.25 175.82H1276.97V185.112H1239.25V175.82ZM1208.61 143.896H1230.78V198.176H1208.61V188.056H1220.94V154.016H1208.61V143.896ZM1203.09 143.896H1213.12V206.364H1203.09V143.896ZM1233.36 194.036H1268.23V203.788H1233.36V194.036ZM1267.12 140.584H1268.32L1269.98 140.216L1277.8 140.952C1276.97 153.28 1275.22 169.564 1273.47 182.536L1263.08 181.708C1264.82 168.644 1266.57 150.98 1267.12 141.688V140.584Z" fill="white"/>
<rect x="431" y="327" width="394" height="131" rx="24" fill="url(#paint0_linear_303_2046)"/>
<path d="M487.12 354.56L496.16 357.36C494.08 362.88 491.52 368.48 488.56 373.76V428.8H479.44V387.92C477.68 390.32 475.84 392.48 474.08 394.4C473.2 392 470.56 386.8 468.96 384.48C476.16 377.28 483.12 365.92 487.12 354.56ZM501.92 389.84L511.2 391.76C508.88 401.92 504.8 412 500.32 418.48C498.48 416.96 494.48 414.56 492.16 413.36C496.72 407.76 500.08 398.72 501.92 389.84ZM535.2 377.36H524.48V418.32C524.48 422.88 523.68 425.52 520.8 427.12C518 428.64 514.16 429.04 509.04 429.04C508.64 426.24 507.2 422 505.76 419.44C509.12 419.52 512.48 419.52 513.6 419.52C514.64 419.52 515.04 419.2 515.04 418.16V377.36H505.76C503.52 382 500.88 386.24 498.24 389.6C496.56 387.92 492.72 384.8 490.56 383.36C496.64 376.56 501.44 365.52 504.16 354.56L513.44 356.64C512.4 360.72 511.12 364.64 509.68 368.56H537.2L538.72 368.24L545.44 369.52C544.48 376 543.12 383.44 542 388.08L533.92 386.72C534.32 384.24 534.8 380.88 535.2 377.36ZM527.36 391.92L535.84 389.04C540 397.28 543.44 407.92 544.56 415.12L535.44 418.24C534.56 411.12 531.2 400.16 527.36 391.92ZM582.88 369.04V365.76H554.16V358.96H582.88V354.16H592.56V358.96H622V365.76H592.56V369.04H617.2V375.6H559.68V369.04H582.88ZM605.52 415.52H570.88V420.4H605.52V415.52ZM561.52 428.96V409.2H615.36V428.88H605.52V426.8H570.88V428.96H561.52ZM598.24 394.08H577.44C578.4 395.68 579.2 397.52 579.68 399.04H596.16C596.96 397.44 597.68 395.68 598.24 394.08ZM572.16 384.24V388.24H604.08V384.24H572.16ZM606 399.04H624.48V406.24H551.44V399.04H569.76C569.28 397.6 568.56 396.08 567.92 394.88L571.28 394.08H563.12V378.24H613.68V394.08H609.12C608.08 395.92 606.96 397.6 606 399.04ZM631.12 362.64H656.56V371.12H631.12V362.64ZM654 362.64H655.52L657.12 362.32L662.96 364.32C659.44 391.6 649.92 411.84 635.52 423.52C634.08 421.28 631.2 417.92 629.12 416.32C641.84 407.12 651.12 386.96 654 364.64V362.64ZM630.88 379.92L637.6 374.64C646.16 386 657.36 401.2 662 410.96L654.56 417.44C650.08 407.44 639.44 391.6 630.88 379.92ZM672.4 365.36H697.44V374H672.4V365.36ZM669.6 354.24L678.64 355.36C676.96 369.2 673.68 382 668 390.16C666.4 388.64 662.48 385.84 660.4 384.64C665.68 377.68 668.32 366.24 669.6 354.24ZM695.6 365.36H697.04L698.48 365.04L704.96 366.72C703.28 374.08 700.8 382.16 698.4 387.44L690.96 384.96C692.64 380.32 694.64 372.8 695.6 366.72V365.36ZM684.96 384.32C687.6 401.28 693.52 415.2 706.56 421.12C704.48 422.96 701.68 426.72 700.32 429.2C686.08 421.52 680.32 406 677.12 385.36L684.96 384.32ZM676.88 377.76H685.92V383.92C685.92 396.72 683.84 416.24 662.88 429.28C661.44 427.2 658.24 424.08 656.08 422.56C675.12 411.2 676.88 394.56 676.88 383.76V377.76ZM766.4 400.08V396.64H737.44V400.08H766.4ZM737.44 419.12H766.4V415.44H737.44V419.12ZM766.4 409.52V406H737.44V409.52H766.4ZM783.52 386.16H740.4C739.84 387.28 739.2 388.32 738.56 389.44H776V429.2H766.4V426.32H737.44V429.2H728.32V402.88C724.72 406.48 720.64 409.76 716 412.48C714.64 410.24 711.84 406.72 710 404.8C718.32 400.32 724.72 393.68 729.52 386.16H712.48V378.64H733.52C734.08 377.52 734.56 376.32 735.04 375.2H718.08V368H737.6C737.92 366.88 738.24 365.76 738.48 364.56C731.84 364.8 725.2 364.88 718.96 364.8C718.88 362.72 718 359.6 717.2 357.68C736.72 357.68 759.84 356.72 773.28 354.48L778.88 361.28C770.4 362.72 759.92 363.6 748.96 364.16C748.64 365.44 748.24 366.72 747.84 368H779.2V375.2H745.28C744.88 376.32 744.4 377.52 743.92 378.64H783.52V386.16Z" fill="white"/>
<rect x="845" y="309" width="21" height="167" rx="10.5" fill="#BCBCBC"/>
<rect x="886" y="327" width="313" height="131" rx="24" fill="url(#paint1_linear_303_2046)"/>
<path d="M999.4 367.84C998.52 368.88 997 370.8 996.28 372C992.52 378.24 984.92 388.32 977.08 393.92L968.76 387.28C975.16 383.36 981.4 376.32 983.48 372.4H941.8C938.44 372.4 935.8 372.64 932.04 372.96V361.84C935.08 362.32 938.44 362.64 941.8 362.64H984.92C987.16 362.64 991.56 362.4 993.08 361.92L999.4 367.84ZM966.76 378.64C966.76 398.48 966.36 414.8 944.6 426.48L935.24 418.88C937.8 418 940.68 416.64 943.64 414.48C953.8 407.44 955.72 398.96 955.72 385.84C955.72 383.36 955.56 381.2 955.16 378.64H966.76ZM1015.04 367.68C1017.92 368 1021.68 368.16 1024.4 368.16H1057.52C1060.72 368.16 1064.16 367.92 1066.4 367.68V379.28C1064.08 379.2 1060.32 378.96 1057.52 378.96H1024.48C1021.44 378.96 1017.76 379.12 1015.04 379.28V367.68ZM1008.32 406.8C1011.44 407.04 1015.2 407.28 1018.32 407.28H1064.24C1066.96 407.28 1070.32 407.12 1073.04 406.8V419.04C1070.24 418.72 1066.64 418.56 1064.24 418.56H1018.32C1015.2 418.56 1011.28 418.8 1008.32 419.04V406.8ZM1148.88 363.2C1147.84 365.04 1146.32 368.56 1145.52 370.4C1143.12 376.72 1139.52 384.8 1134.8 392.16C1141.84 397.92 1148.56 404.08 1154 409.84L1145.76 418.96C1140.16 412.4 1134.4 406.8 1128 401.28C1120.96 409.76 1111.76 418.64 1098.24 426L1089.28 417.92C1102.32 411.6 1111.76 403.84 1119.68 394.32C1113.92 389.76 1106.24 384.08 1098.08 379.12L1104.88 370.96C1111.28 374.88 1119.68 380.64 1126.16 385.44C1130.24 379.04 1132.96 372.72 1135.04 366.4C1135.76 364.32 1136.64 361.12 1136.96 359.04L1148.88 363.2Z" fill="white"/>
<rect x="1219" y="309" width="21" height="167" rx="10.5" fill="#BCBCBC"/>
<rect x="1260" y="327" width="154" height="131" rx="24" fill="url(#paint2_linear_303_2046)"/>
<path d="M1363.72 388.8H1372.92C1372.92 388.8 1372.76 391.36 1372.68 392.56C1371 413.68 1369.32 422.32 1366.44 425.36C1364.6 427.6 1362.68 428.4 1360.12 428.64C1357.88 428.96 1354.28 428.96 1350.44 428.88C1350.28 426.24 1349.32 422.64 1347.88 420.24C1351.24 420.64 1354.28 420.64 1355.8 420.64C1357.08 420.64 1357.88 420.48 1358.76 419.6C1360.68 417.6 1362.44 409.68 1363.72 390.24V388.8ZM1330.04 358.16H1361.48V366.8H1330.04V358.16ZM1333.88 369.92L1342.84 370.4C1342.12 379.12 1341 390.16 1339.96 396.88H1331C1332.12 389.84 1333.32 378.56 1333.88 369.92ZM1333.56 388.8H1366.36V396.88H1333.56V388.8ZM1306.92 361.04H1326.2V408.24H1306.92V399.44H1317.64V369.84H1306.92V361.04ZM1302.12 361.04H1310.84V415.36H1302.12V361.04ZM1328.44 404.64H1358.76V413.12H1328.44V404.64ZM1357.8 358.16H1358.84L1360.28 357.84L1367.08 358.48C1366.36 369.2 1364.84 383.36 1363.32 394.64L1354.28 393.92C1355.8 382.56 1357.32 367.2 1357.8 359.12V358.16Z" fill="white"/>
<rect x="139.5" y="532" width="1566" height="116" rx="24" fill="#7B7B7B"/>
<path d="M191.511 561.636L204.168 601.42H204.653L217.335 561.636H229.608L211.557 614H197.29L179.213 561.636H191.511ZM235.706 614V574.727H246.598V614H235.706ZM241.178 569.665C239.558 569.665 238.169 569.128 237.01 568.054C235.868 566.963 235.297 565.659 235.297 564.142C235.297 562.642 235.868 561.355 237.01 560.281C238.169 559.19 239.558 558.645 241.178 558.645C242.797 558.645 244.178 559.19 245.32 560.281C246.479 561.355 247.058 562.642 247.058 564.142C247.058 565.659 246.479 566.963 245.32 568.054C244.178 569.128 242.797 569.665 241.178 569.665ZM273.221 614.767C269.181 614.767 265.704 613.949 262.789 612.312C259.891 610.659 257.658 608.324 256.09 605.307C254.522 602.273 253.738 598.685 253.738 594.543C253.738 590.503 254.522 586.957 256.09 583.906C257.658 580.855 259.866 578.477 262.712 576.773C265.576 575.068 268.934 574.216 272.786 574.216C275.377 574.216 277.789 574.634 280.022 575.469C282.272 576.287 284.232 577.523 285.903 579.176C287.59 580.83 288.903 582.909 289.84 585.415C290.778 587.903 291.246 590.818 291.246 594.159V597.151H258.085V590.401H280.994C280.994 588.832 280.653 587.443 279.971 586.233C279.289 585.023 278.343 584.077 277.133 583.395C275.94 582.696 274.55 582.347 272.965 582.347C271.312 582.347 269.846 582.73 268.567 583.497C267.306 584.247 266.317 585.261 265.602 586.54C264.886 587.801 264.519 589.207 264.502 590.759V597.176C264.502 599.119 264.86 600.798 265.576 602.213C266.309 603.628 267.34 604.719 268.67 605.486C269.999 606.253 271.576 606.636 273.4 606.636C274.61 606.636 275.718 606.466 276.724 606.125C277.729 605.784 278.59 605.273 279.306 604.591C280.022 603.909 280.567 603.074 280.942 602.085L291.016 602.75C290.505 605.17 289.457 607.284 287.871 609.091C286.303 610.881 284.275 612.278 281.786 613.284C279.315 614.273 276.46 614.767 273.221 614.767ZM309.246 561.636V614H298.354V561.636H309.246ZM335.869 614.767C331.83 614.767 328.352 613.949 325.438 612.312C322.54 610.659 320.307 608.324 318.739 605.307C317.17 602.273 316.386 598.685 316.386 594.543C316.386 590.503 317.17 586.957 318.739 583.906C320.307 580.855 322.514 578.477 325.361 576.773C328.224 575.068 331.582 574.216 335.435 574.216C338.026 574.216 340.438 574.634 342.67 575.469C344.92 576.287 346.881 577.523 348.551 579.176C350.239 580.83 351.551 582.909 352.489 585.415C353.426 587.903 353.895 590.818 353.895 594.159V597.151H320.733V590.401H343.642C343.642 588.832 343.301 587.443 342.619 586.233C341.938 585.023 340.991 584.077 339.781 583.395C338.588 582.696 337.199 582.347 335.614 582.347C333.96 582.347 332.494 582.73 331.216 583.497C329.955 584.247 328.966 585.261 328.25 586.54C327.534 587.801 327.168 589.207 327.151 590.759V597.176C327.151 599.119 327.509 600.798 328.224 602.213C328.957 603.628 329.989 604.719 331.318 605.486C332.648 606.253 334.224 606.636 336.048 606.636C337.259 606.636 338.366 606.466 339.372 606.125C340.378 605.784 341.239 605.273 341.955 604.591C342.67 603.909 343.216 603.074 343.591 602.085L353.665 602.75C353.153 605.17 352.105 607.284 350.52 609.091C348.952 610.881 346.923 612.278 344.435 613.284C341.963 614.273 339.108 614.767 335.869 614.767ZM371.895 591.295V614H361.003V574.727H371.384V581.656H371.844C372.713 579.372 374.17 577.565 376.216 576.236C378.261 574.889 380.741 574.216 383.656 574.216C386.384 574.216 388.761 574.812 390.79 576.006C392.818 577.199 394.395 578.903 395.52 581.119C396.645 583.318 397.207 585.943 397.207 588.994V614H386.315V590.938C386.332 588.534 385.719 586.659 384.474 585.312C383.23 583.949 381.517 583.267 379.335 583.267C377.869 583.267 376.574 583.582 375.449 584.213C374.341 584.844 373.472 585.764 372.841 586.974C372.227 588.168 371.912 589.608 371.895 591.295ZM441.223 614H422.661V561.636H441.376C446.643 561.636 451.178 562.685 454.979 564.781C458.78 566.861 461.703 569.852 463.749 573.756C465.811 577.659 466.842 582.33 466.842 587.767C466.842 593.222 465.811 597.909 463.749 601.83C461.703 605.75 458.763 608.759 454.928 610.855C451.109 612.952 446.541 614 441.223 614ZM433.732 604.514H440.763C444.036 604.514 446.788 603.935 449.021 602.776C451.271 601.599 452.959 599.784 454.084 597.33C455.226 594.858 455.797 591.67 455.797 587.767C455.797 583.898 455.226 580.736 454.084 578.281C452.959 575.827 451.28 574.02 449.047 572.861C446.814 571.702 444.061 571.122 440.788 571.122H433.732V604.514ZM486.038 614.741C483.532 614.741 481.299 614.307 479.339 613.438C477.379 612.551 475.827 611.247 474.685 609.526C473.56 607.787 472.998 605.622 472.998 603.031C472.998 600.849 473.398 599.017 474.2 597.534C475.001 596.051 476.092 594.858 477.472 593.955C478.853 593.051 480.421 592.369 482.177 591.909C483.95 591.449 485.808 591.125 487.751 590.938C490.035 590.699 491.876 590.477 493.273 590.273C494.671 590.051 495.685 589.727 496.316 589.301C496.947 588.875 497.262 588.244 497.262 587.409V587.256C497.262 585.636 496.751 584.384 495.728 583.497C494.722 582.611 493.29 582.168 491.433 582.168C489.472 582.168 487.913 582.602 486.754 583.472C485.594 584.324 484.827 585.398 484.452 586.693L474.379 585.875C474.89 583.489 475.896 581.426 477.396 579.688C478.896 577.932 480.83 576.585 483.2 575.648C485.586 574.693 488.347 574.216 491.484 574.216C493.665 574.216 495.754 574.472 497.748 574.983C499.759 575.494 501.54 576.287 503.092 577.361C504.66 578.435 505.896 579.815 506.799 581.503C507.702 583.173 508.154 585.176 508.154 587.511V614H497.825V608.554H497.518C496.887 609.781 496.043 610.864 494.987 611.801C493.93 612.722 492.66 613.446 491.177 613.974C489.694 614.486 487.981 614.741 486.038 614.741ZM489.157 607.224C490.759 607.224 492.174 606.909 493.401 606.278C494.629 605.631 495.592 604.761 496.29 603.67C496.989 602.58 497.339 601.344 497.339 599.963V595.795C496.998 596.017 496.529 596.222 495.933 596.409C495.353 596.58 494.697 596.741 493.964 596.895C493.231 597.031 492.498 597.159 491.765 597.278C491.032 597.381 490.367 597.474 489.771 597.56C488.492 597.747 487.376 598.045 486.421 598.455C485.467 598.864 484.725 599.418 484.197 600.116C483.668 600.798 483.404 601.651 483.404 602.673C483.404 604.156 483.941 605.29 485.015 606.074C486.106 606.841 487.487 607.224 489.157 607.224ZM527.496 591.295V614H516.604V574.727H526.985V581.656H527.445C528.315 579.372 529.772 577.565 531.817 576.236C533.863 574.889 536.343 574.216 539.258 574.216C541.985 574.216 544.363 574.812 546.391 576.006C548.42 577.199 549.996 578.903 551.121 581.119C552.246 583.318 552.809 585.943 552.809 588.994V614H541.917V590.938C541.934 588.534 541.32 586.659 540.076 585.312C538.832 583.949 537.119 583.267 534.937 583.267C533.471 583.267 532.175 583.582 531.05 584.213C529.942 584.844 529.073 585.764 528.442 586.974C527.829 588.168 527.513 589.608 527.496 591.295ZM571.263 602.699L571.288 589.634H572.874L585.453 574.727H597.956L581.055 594.466H578.473L571.263 602.699ZM561.393 614V561.636H572.286V614H561.393ZM585.939 614L574.382 596.895L581.643 589.199L598.697 614H585.939ZM619.964 614V574.727H630.344V581.656H630.805C631.623 579.355 632.987 577.54 634.896 576.21C636.805 574.881 639.089 574.216 641.748 574.216C644.441 574.216 646.734 574.889 648.626 576.236C650.518 577.565 651.779 579.372 652.41 581.656H652.819C653.62 579.406 655.069 577.608 657.165 576.261C659.279 574.898 661.776 574.216 664.657 574.216C668.322 574.216 671.296 575.384 673.58 577.719C675.881 580.037 677.032 583.327 677.032 587.588V614H666.165V589.736C666.165 587.554 665.586 585.918 664.427 584.827C663.268 583.736 661.819 583.19 660.08 583.19C658.103 583.19 656.56 583.821 655.452 585.082C654.344 586.327 653.79 587.972 653.79 590.017V614H643.231V589.506C643.231 587.58 642.677 586.045 641.569 584.903C640.478 583.761 639.038 583.19 637.248 583.19C636.038 583.19 634.947 583.497 633.975 584.111C633.021 584.707 632.262 585.551 631.7 586.642C631.137 587.716 630.856 588.977 630.856 590.426V614H619.964ZM703.533 614.767C699.494 614.767 696.016 613.949 693.102 612.312C690.204 610.659 687.971 608.324 686.403 605.307C684.835 602.273 684.05 598.685 684.05 594.543C684.05 590.503 684.835 586.957 686.403 583.906C687.971 580.855 690.178 578.477 693.025 576.773C695.888 575.068 699.246 574.216 703.099 574.216C705.69 574.216 708.102 574.634 710.335 575.469C712.585 576.287 714.545 577.523 716.215 579.176C717.903 580.83 719.215 582.909 720.153 585.415C721.09 587.903 721.559 590.818 721.559 594.159V597.151H688.397V590.401H711.306C711.306 588.832 710.965 587.443 710.283 586.233C709.602 585.023 708.656 584.077 707.445 583.395C706.252 582.696 704.863 582.347 703.278 582.347C701.624 582.347 700.158 582.73 698.88 583.497C697.619 584.247 696.63 585.261 695.914 586.54C695.198 587.801 694.832 589.207 694.815 590.759V597.176C694.815 599.119 695.173 600.798 695.888 602.213C696.621 603.628 697.653 604.719 698.982 605.486C700.312 606.253 701.888 606.636 703.712 606.636C704.923 606.636 706.031 606.466 707.036 606.125C708.042 605.784 708.903 605.273 709.619 604.591C710.335 603.909 710.88 603.074 711.255 602.085L721.329 602.75C720.817 605.17 719.769 607.284 718.184 609.091C716.616 610.881 714.587 612.278 712.099 613.284C709.627 614.273 706.772 614.767 703.533 614.767ZM728.667 614V574.727H739.227V581.58H739.636C740.352 579.142 741.553 577.301 743.241 576.057C744.928 574.795 746.871 574.165 749.07 574.165C749.616 574.165 750.204 574.199 750.835 574.267C751.465 574.335 752.019 574.429 752.496 574.548V584.213C751.985 584.06 751.278 583.923 750.374 583.804C749.471 583.685 748.644 583.625 747.894 583.625C746.292 583.625 744.86 583.974 743.599 584.673C742.354 585.355 741.366 586.31 740.633 587.537C739.917 588.764 739.559 590.179 739.559 591.781V614H728.667ZM774.044 614.767C770.021 614.767 766.561 613.915 763.663 612.21C760.783 610.489 758.567 608.102 757.016 605.051C755.482 602 754.714 598.489 754.714 594.517C754.714 590.494 755.49 586.966 757.041 583.932C758.609 580.881 760.834 578.503 763.714 576.798C766.595 575.077 770.021 574.216 773.993 574.216C777.419 574.216 780.419 574.838 782.993 576.082C785.567 577.327 787.604 579.074 789.104 581.324C790.604 583.574 791.43 586.216 791.584 589.25H781.305C781.016 587.29 780.249 585.713 779.004 584.52C777.777 583.31 776.166 582.705 774.172 582.705C772.484 582.705 771.01 583.165 769.749 584.085C768.504 584.989 767.533 586.31 766.834 588.048C766.135 589.787 765.786 591.892 765.786 594.364C765.786 596.869 766.126 599 766.808 600.756C767.507 602.511 768.487 603.849 769.749 604.77C771.01 605.69 772.484 606.151 774.172 606.151C775.416 606.151 776.533 605.895 777.521 605.384C778.527 604.872 779.354 604.131 780.001 603.159C780.666 602.17 781.101 600.986 781.305 599.605H791.584C791.413 602.605 790.595 605.247 789.129 607.531C787.68 609.798 785.678 611.571 783.121 612.849C780.564 614.128 777.538 614.767 774.044 614.767ZM798.558 614V574.727H809.45V614H798.558ZM804.029 569.665C802.41 569.665 801.021 569.128 799.862 568.054C798.719 566.963 798.148 565.659 798.148 564.142C798.148 562.642 798.719 561.355 799.862 560.281C801.021 559.19 802.41 558.645 804.029 558.645C805.648 558.645 807.029 559.19 808.171 560.281C809.33 561.355 809.91 562.642 809.91 564.142C809.91 565.659 809.33 566.963 808.171 568.054C807.029 569.128 805.648 569.665 804.029 569.665ZM835.043 614V561.636H845.935V581.324H846.268C846.745 580.267 847.435 579.193 848.339 578.102C849.259 576.994 850.452 576.074 851.918 575.341C853.401 574.591 855.242 574.216 857.441 574.216C860.305 574.216 862.947 574.966 865.367 576.466C867.788 577.949 869.722 580.19 871.171 583.19C872.62 586.173 873.344 589.915 873.344 594.415C873.344 598.795 872.637 602.494 871.222 605.511C869.825 608.511 867.915 610.787 865.495 612.338C863.092 613.872 860.398 614.639 857.415 614.639C855.302 614.639 853.504 614.29 852.021 613.591C850.555 612.892 849.353 612.014 848.415 610.957C847.478 609.884 846.762 608.801 846.268 607.71H845.782V614H835.043ZM845.705 594.364C845.705 596.699 846.029 598.736 846.677 600.474C847.325 602.213 848.262 603.568 849.489 604.54C850.717 605.494 852.208 605.972 853.964 605.972C855.737 605.972 857.237 605.486 858.464 604.514C859.691 603.526 860.62 602.162 861.251 600.423C861.898 598.668 862.222 596.648 862.222 594.364C862.222 592.097 861.907 590.102 861.276 588.381C860.646 586.659 859.717 585.312 858.489 584.341C857.262 583.369 855.754 582.884 853.964 582.884C852.191 582.884 850.691 583.352 849.464 584.29C848.254 585.227 847.325 586.557 846.677 588.278C846.029 590 845.705 592.028 845.705 594.364ZM898.51 614.767C894.47 614.767 890.993 613.949 888.078 612.312C885.18 610.659 882.947 608.324 881.379 605.307C879.811 602.273 879.027 598.685 879.027 594.543C879.027 590.503 879.811 586.957 881.379 583.906C882.947 580.855 885.155 578.477 888.001 576.773C890.865 575.068 894.223 574.216 898.075 574.216C900.666 574.216 903.078 574.634 905.311 575.469C907.561 576.287 909.521 577.523 911.192 579.176C912.879 580.83 914.192 582.909 915.129 585.415C916.067 587.903 916.536 590.818 916.536 594.159V597.151H883.374V590.401H906.283C906.283 588.832 905.942 587.443 905.26 586.233C904.578 585.023 903.632 584.077 902.422 583.395C901.229 582.696 899.839 582.347 898.254 582.347C896.601 582.347 895.135 582.73 893.857 583.497C892.595 584.247 891.607 585.261 890.891 586.54C890.175 587.801 889.808 589.207 889.791 590.759V597.176C889.791 599.119 890.149 600.798 890.865 602.213C891.598 603.628 892.629 604.719 893.959 605.486C895.288 606.253 896.865 606.636 898.689 606.636C899.899 606.636 901.007 606.466 902.013 606.125C903.018 605.784 903.879 605.273 904.595 604.591C905.311 603.909 905.857 603.074 906.232 602.085L916.305 602.75C915.794 605.17 914.746 607.284 913.161 609.091C911.592 610.881 909.564 612.278 907.075 613.284C904.604 614.273 901.749 614.767 898.51 614.767ZM934.842 614.741C932.337 614.741 930.104 614.307 928.143 613.438C926.183 612.551 924.632 611.247 923.49 609.526C922.365 607.787 921.803 605.622 921.803 603.031C921.803 600.849 922.203 599.017 923.004 597.534C923.805 596.051 924.896 594.858 926.277 593.955C927.658 593.051 929.226 592.369 930.982 591.909C932.754 591.449 934.612 591.125 936.555 590.938C938.839 590.699 940.68 590.477 942.078 590.273C943.476 590.051 944.49 589.727 945.121 589.301C945.751 588.875 946.067 588.244 946.067 587.409V587.256C946.067 585.636 945.555 584.384 944.533 583.497C943.527 582.611 942.095 582.168 940.237 582.168C938.277 582.168 936.717 582.602 935.558 583.472C934.399 584.324 933.632 585.398 933.257 586.693L923.183 585.875C923.695 583.489 924.7 581.426 926.2 579.688C927.7 577.932 929.635 576.585 932.004 575.648C934.391 574.693 937.152 574.216 940.288 574.216C942.47 574.216 944.558 574.472 946.553 574.983C948.564 575.494 950.345 576.287 951.896 577.361C953.464 578.435 954.7 579.815 955.604 581.503C956.507 583.173 956.959 585.176 956.959 587.511V614H946.629V608.554H946.322C945.692 609.781 944.848 610.864 943.791 611.801C942.734 612.722 941.464 613.446 939.982 613.974C938.499 614.486 936.786 614.741 934.842 614.741ZM937.962 607.224C939.564 607.224 940.979 606.909 942.206 606.278C943.433 605.631 944.396 604.761 945.095 603.67C945.794 602.58 946.143 601.344 946.143 599.963V595.795C945.803 596.017 945.334 596.222 944.737 596.409C944.158 596.58 943.501 596.741 942.768 596.895C942.036 597.031 941.303 597.159 940.57 597.278C939.837 597.381 939.172 597.474 938.575 597.56C937.297 597.747 936.18 598.045 935.226 598.455C934.271 598.864 933.53 599.418 933.001 600.116C932.473 600.798 932.209 601.651 932.209 602.673C932.209 604.156 932.746 605.29 933.82 606.074C934.911 606.841 936.291 607.224 937.962 607.224ZM990.594 597.278V574.727H1001.49V614H991.028V606.866H990.619C989.733 609.168 988.259 611.017 986.196 612.415C984.151 613.812 981.653 614.511 978.705 614.511C976.08 614.511 973.77 613.915 971.776 612.722C969.781 611.528 968.222 609.832 967.097 607.634C965.989 605.435 965.426 602.801 965.409 599.733V574.727H976.301V597.79C976.318 600.108 976.94 601.94 978.168 603.287C979.395 604.634 981.04 605.307 983.102 605.307C984.415 605.307 985.642 605.009 986.784 604.412C987.926 603.798 988.847 602.895 989.545 601.702C990.261 600.509 990.611 599.034 990.594 597.278ZM1027.94 614.767C1023.92 614.767 1020.46 613.915 1017.56 612.21C1014.68 610.489 1012.47 608.102 1010.91 605.051C1009.38 602 1008.61 598.489 1008.61 594.517C1008.61 590.494 1009.39 586.966 1010.94 583.932C1012.51 580.881 1014.73 578.503 1017.61 576.798C1020.49 575.077 1023.92 574.216 1027.89 574.216C1031.32 574.216 1034.32 574.838 1036.89 576.082C1039.47 577.327 1041.5 579.074 1043 581.324C1044.5 583.574 1045.33 586.216 1045.48 589.25H1035.2C1034.91 587.29 1034.15 585.713 1032.9 584.52C1031.68 583.31 1030.06 582.705 1028.07 582.705C1026.38 582.705 1024.91 583.165 1023.65 584.085C1022.4 584.989 1021.43 586.31 1020.73 588.048C1020.03 589.787 1019.68 591.892 1019.68 594.364C1019.68 596.869 1020.02 599 1020.71 600.756C1021.41 602.511 1022.39 603.849 1023.65 604.77C1024.91 605.69 1026.38 606.151 1028.07 606.151C1029.31 606.151 1030.43 605.895 1031.42 605.384C1032.43 604.872 1033.25 604.131 1033.9 603.159C1034.56 602.17 1035 600.986 1035.2 599.605H1045.48C1045.31 602.605 1044.49 605.247 1043.03 607.531C1041.58 609.798 1039.58 611.571 1037.02 612.849C1034.46 614.128 1031.44 614.767 1027.94 614.767ZM1070.2 614.767C1066.23 614.767 1062.79 613.923 1059.9 612.236C1057.02 610.531 1054.79 608.162 1053.22 605.128C1051.65 602.077 1050.87 598.54 1050.87 594.517C1050.87 590.46 1051.65 586.915 1053.22 583.881C1054.79 580.83 1057.02 578.46 1059.9 576.773C1062.79 575.068 1066.23 574.216 1070.2 574.216C1074.17 574.216 1077.6 575.068 1080.48 576.773C1083.38 578.46 1085.61 580.83 1087.18 583.881C1088.75 586.915 1089.53 590.46 1089.53 594.517C1089.53 598.54 1088.75 602.077 1087.18 605.128C1085.61 608.162 1083.38 610.531 1080.48 612.236C1077.6 613.923 1074.17 614.767 1070.2 614.767ZM1070.25 606.33C1072.06 606.33 1073.57 605.818 1074.78 604.795C1075.99 603.756 1076.9 602.341 1077.51 600.551C1078.14 598.761 1078.46 596.724 1078.46 594.44C1078.46 592.156 1078.14 590.119 1077.51 588.33C1076.9 586.54 1075.99 585.125 1074.78 584.085C1073.57 583.045 1072.06 582.526 1070.25 582.526C1068.43 582.526 1066.89 583.045 1065.65 584.085C1064.42 585.125 1063.49 586.54 1062.86 588.33C1062.25 590.119 1061.94 592.156 1061.94 594.44C1061.94 596.724 1062.25 598.761 1062.86 600.551C1063.49 602.341 1064.42 603.756 1065.65 604.795C1066.89 605.818 1068.43 606.33 1070.25 606.33ZM1121.8 597.278V574.727H1132.69V614H1122.23V606.866H1121.82C1120.94 609.168 1119.46 611.017 1117.4 612.415C1115.35 613.812 1112.86 614.511 1109.91 614.511C1107.28 614.511 1104.97 613.915 1102.98 612.722C1100.98 611.528 1099.42 609.832 1098.3 607.634C1097.19 605.435 1096.63 602.801 1096.61 599.733V574.727H1107.5V597.79C1107.52 600.108 1108.14 601.94 1109.37 603.287C1110.6 604.634 1112.24 605.307 1114.31 605.307C1115.62 605.307 1116.85 605.009 1117.99 604.412C1119.13 603.798 1120.05 602.895 1120.75 601.702C1121.46 600.509 1121.81 599.034 1121.8 597.278ZM1141.4 628.727V574.727H1152.14V581.324H1152.63C1153.1 580.267 1153.79 579.193 1154.7 578.102C1155.62 576.994 1156.81 576.074 1158.28 575.341C1159.76 574.591 1161.6 574.216 1163.8 574.216C1166.66 574.216 1169.3 574.966 1171.73 576.466C1174.15 577.949 1176.08 580.19 1177.53 583.19C1178.98 586.173 1179.7 589.915 1179.7 594.415C1179.7 598.795 1179 602.494 1177.58 605.511C1176.18 608.511 1174.27 610.787 1171.85 612.338C1169.45 613.872 1166.76 614.639 1163.77 614.639C1161.66 614.639 1159.86 614.29 1158.38 613.591C1156.91 612.892 1155.71 612.014 1154.77 610.957C1153.84 609.884 1153.12 608.801 1152.63 607.71H1152.29V628.727H1141.4ZM1152.06 594.364C1152.06 596.699 1152.39 598.736 1153.03 600.474C1153.68 602.213 1154.62 603.568 1155.85 604.54C1157.07 605.494 1158.57 605.972 1160.32 605.972C1162.09 605.972 1163.59 605.486 1164.82 604.514C1166.05 603.526 1166.98 602.162 1167.61 600.423C1168.26 598.668 1168.58 596.648 1168.58 594.364C1168.58 592.097 1168.26 590.102 1167.63 588.381C1167 586.659 1166.07 585.312 1164.85 584.341C1163.62 583.369 1162.11 582.884 1160.32 582.884C1158.55 582.884 1157.05 583.352 1155.82 584.29C1154.61 585.227 1153.68 586.557 1153.03 588.278C1152.39 590 1152.06 592.028 1152.06 594.364ZM1224.75 574.727V582.909H1200.51V574.727H1224.75ZM1206.06 614V571.889C1206.06 569.043 1206.61 566.682 1207.72 564.807C1208.84 562.932 1210.38 561.526 1212.32 560.588C1214.26 559.651 1216.47 559.182 1218.94 559.182C1220.61 559.182 1222.14 559.31 1223.52 559.565C1224.92 559.821 1225.96 560.051 1226.64 560.256L1224.7 568.438C1224.27 568.301 1223.74 568.173 1223.11 568.054C1222.5 567.935 1221.87 567.875 1221.22 567.875C1219.62 567.875 1218.5 568.25 1217.87 569C1217.24 569.733 1216.92 570.764 1216.92 572.094V614H1206.06ZM1247.74 614.767C1243.77 614.767 1240.33 613.923 1237.44 612.236C1234.55 610.531 1232.33 608.162 1230.76 605.128C1229.19 602.077 1228.41 598.54 1228.41 594.517C1228.41 590.46 1229.19 586.915 1230.76 583.881C1232.33 580.83 1234.55 578.46 1237.44 576.773C1240.33 575.068 1243.77 574.216 1247.74 574.216C1251.71 574.216 1255.14 575.068 1258.02 576.773C1260.92 578.46 1263.15 580.83 1264.72 583.881C1266.28 586.915 1267.07 590.46 1267.07 594.517C1267.07 598.54 1266.28 602.077 1264.72 605.128C1263.15 608.162 1260.92 610.531 1258.02 612.236C1255.14 613.923 1251.71 614.767 1247.74 614.767ZM1247.79 606.33C1249.6 606.33 1251.11 605.818 1252.32 604.795C1253.53 603.756 1254.44 602.341 1255.05 600.551C1255.68 598.761 1256 596.724 1256 594.44C1256 592.156 1255.68 590.119 1255.05 588.33C1254.44 586.54 1253.53 585.125 1252.32 584.085C1251.11 583.045 1249.6 582.526 1247.79 582.526C1245.97 582.526 1244.43 583.045 1243.19 584.085C1241.96 585.125 1241.03 586.54 1240.4 588.33C1239.79 590.119 1239.48 592.156 1239.48 594.44C1239.48 596.724 1239.79 598.761 1240.4 600.551C1241.03 602.341 1241.96 603.756 1243.19 604.795C1244.43 605.818 1245.97 606.33 1247.79 606.33ZM1274.15 614V574.727H1284.71V581.58H1285.12C1285.84 579.142 1287.04 577.301 1288.73 576.057C1290.41 574.795 1292.36 574.165 1294.55 574.165C1295.1 574.165 1295.69 574.199 1296.32 574.267C1296.95 574.335 1297.5 574.429 1297.98 574.548V584.213C1297.47 584.06 1296.76 583.923 1295.86 583.804C1294.96 583.685 1294.13 583.625 1293.38 583.625C1291.78 583.625 1290.34 583.974 1289.08 584.673C1287.84 585.355 1286.85 586.31 1286.12 587.537C1285.4 588.764 1285.04 590.179 1285.04 591.781V614H1274.15ZM1327 628.727C1325.62 628.727 1324.32 628.616 1323.11 628.395C1321.92 628.19 1320.93 627.926 1320.15 627.602L1322.6 619.472C1323.88 619.864 1325.03 620.077 1326.05 620.111C1327.09 620.145 1327.99 619.906 1328.74 619.395C1329.51 618.884 1330.13 618.014 1330.61 616.787L1331.25 615.125L1317.16 574.727H1328.61L1336.74 603.568H1337.15L1345.36 574.727H1356.89L1341.63 618.244C1340.89 620.358 1339.9 622.199 1338.63 623.767C1337.39 625.352 1335.81 626.571 1333.9 627.423C1332 628.293 1329.69 628.727 1327 628.727ZM1378.94 614.767C1374.97 614.767 1371.54 613.923 1368.64 612.236C1365.76 610.531 1363.53 608.162 1361.97 605.128C1360.4 602.077 1359.61 598.54 1359.61 594.517C1359.61 590.46 1360.4 586.915 1361.97 583.881C1363.53 580.83 1365.76 578.46 1368.64 576.773C1371.54 575.068 1374.97 574.216 1378.94 574.216C1382.91 574.216 1386.34 575.068 1389.22 576.773C1392.12 578.46 1394.35 580.83 1395.92 583.881C1397.49 586.915 1398.27 590.46 1398.27 594.517C1398.27 598.54 1397.49 602.077 1395.92 605.128C1394.35 608.162 1392.12 610.531 1389.22 612.236C1386.34 613.923 1382.91 614.767 1378.94 614.767ZM1378.99 606.33C1380.8 606.33 1382.31 605.818 1383.52 604.795C1384.73 603.756 1385.64 602.341 1386.25 600.551C1386.89 598.761 1387.2 596.724 1387.2 594.44C1387.2 592.156 1386.89 590.119 1386.25 588.33C1385.64 586.54 1384.73 585.125 1383.52 584.085C1382.31 583.045 1380.8 582.526 1378.99 582.526C1377.17 582.526 1375.64 583.045 1374.39 584.085C1373.16 585.125 1372.24 586.54 1371.6 588.33C1370.99 590.119 1370.68 592.156 1370.68 594.44C1370.68 596.724 1370.99 598.761 1371.6 600.551C1372.24 602.341 1373.16 603.756 1374.39 604.795C1375.64 605.818 1377.17 606.33 1378.99 606.33ZM1430.54 597.278V574.727H1441.43V614H1430.97V606.866H1430.56C1429.68 609.168 1428.2 611.017 1426.14 612.415C1424.1 613.812 1421.6 614.511 1418.65 614.511C1416.02 614.511 1413.72 613.915 1411.72 612.722C1409.73 611.528 1408.17 609.832 1407.04 607.634C1405.93 605.435 1405.37 602.801 1405.35 599.733V574.727H1416.25V597.79C1416.26 600.108 1416.89 601.94 1418.11 603.287C1419.34 604.634 1420.99 605.307 1423.05 605.307C1424.36 605.307 1425.59 605.009 1426.73 604.412C1427.87 603.798 1428.79 602.895 1429.49 601.702C1430.21 600.509 1430.56 599.034 1430.54 597.278ZM1450.14 614V574.727H1460.7V581.58H1461.11C1461.83 579.142 1463.03 577.301 1464.72 576.057C1466.4 574.795 1468.35 574.165 1470.55 574.165C1471.09 574.165 1471.68 574.199 1472.31 574.267C1472.94 574.335 1473.5 574.429 1473.97 574.548V584.213C1473.46 584.06 1472.75 583.923 1471.85 583.804C1470.95 583.685 1470.12 583.625 1469.37 583.625C1467.77 583.625 1466.34 583.974 1465.08 584.673C1463.83 585.355 1462.84 586.31 1462.11 587.537C1461.39 588.764 1461.04 590.179 1461.04 591.781V614H1450.14ZM1507.16 591.295V614H1496.27V561.636H1506.85V581.656H1507.31C1508.2 579.338 1509.63 577.523 1511.61 576.21C1513.59 574.881 1516.07 574.216 1519.05 574.216C1521.78 574.216 1524.15 574.812 1526.18 576.006C1528.23 577.182 1529.81 578.878 1530.94 581.094C1532.08 583.293 1532.64 585.926 1532.63 588.994V614H1521.73V590.938C1521.75 588.517 1521.14 586.634 1519.89 585.287C1518.67 583.94 1516.94 583.267 1514.73 583.267C1513.25 583.267 1511.93 583.582 1510.79 584.213C1509.67 584.844 1508.78 585.764 1508.13 586.974C1507.5 588.168 1507.18 589.608 1507.16 591.295ZM1559.1 614.767C1555.06 614.767 1551.58 613.949 1548.66 612.312C1545.77 610.659 1543.53 608.324 1541.97 605.307C1540.4 602.273 1539.61 598.685 1539.61 594.543C1539.61 590.503 1540.4 586.957 1541.97 583.906C1543.53 580.855 1545.74 578.477 1548.59 576.773C1551.45 575.068 1554.81 574.216 1558.66 574.216C1561.25 574.216 1563.66 574.634 1565.9 575.469C1568.15 576.287 1570.11 577.523 1571.78 579.176C1573.47 580.83 1574.78 582.909 1575.72 585.415C1576.65 587.903 1577.12 590.818 1577.12 594.159V597.151H1543.96V590.401H1566.87C1566.87 588.832 1566.53 587.443 1565.85 586.233C1565.16 585.023 1564.22 584.077 1563.01 583.395C1561.81 582.696 1560.43 582.347 1558.84 582.347C1557.19 582.347 1555.72 582.73 1554.44 583.497C1553.18 584.247 1552.19 585.261 1551.48 586.54C1550.76 587.801 1550.39 589.207 1550.38 590.759V597.176C1550.38 599.119 1550.74 600.798 1551.45 602.213C1552.18 603.628 1553.22 604.719 1554.54 605.486C1555.87 606.253 1557.45 606.636 1559.27 606.636C1560.49 606.636 1561.59 606.466 1562.6 606.125C1563.6 605.784 1564.47 605.273 1565.18 604.591C1565.9 603.909 1566.44 603.074 1566.82 602.085L1576.89 602.75C1576.38 605.17 1575.33 607.284 1573.75 609.091C1572.18 610.881 1570.15 612.278 1567.66 613.284C1565.19 614.273 1562.33 614.767 1559.1 614.767ZM1595.12 561.636V614H1584.23V561.636H1595.12ZM1603.85 628.727V574.727H1614.59V581.324H1615.07C1615.55 580.267 1616.24 579.193 1617.14 578.102C1618.06 576.994 1619.26 576.074 1620.72 575.341C1622.2 574.591 1624.05 574.216 1626.24 574.216C1629.11 574.216 1631.75 574.966 1634.17 576.466C1636.59 577.949 1638.53 580.19 1639.97 583.19C1641.42 586.173 1642.15 589.915 1642.15 594.415C1642.15 598.795 1641.44 602.494 1640.03 605.511C1638.63 608.511 1636.72 610.787 1634.3 612.338C1631.89 613.872 1629.2 614.639 1626.22 614.639C1624.11 614.639 1622.31 614.29 1620.82 613.591C1619.36 612.892 1618.16 612.014 1617.22 610.957C1616.28 609.884 1615.57 608.801 1615.07 607.71H1614.74V628.727H1603.85ZM1614.51 594.364C1614.51 596.699 1614.83 598.736 1615.48 600.474C1616.13 602.213 1617.07 603.568 1618.29 604.54C1619.52 605.494 1621.01 605.972 1622.77 605.972C1624.54 605.972 1626.04 605.486 1627.27 604.514C1628.49 603.526 1629.42 602.162 1630.05 600.423C1630.7 598.668 1631.03 596.648 1631.03 594.364C1631.03 592.097 1630.71 590.102 1630.08 588.381C1629.45 586.659 1628.52 585.312 1627.29 584.341C1626.07 583.369 1624.56 582.884 1622.77 582.884C1620.99 582.884 1619.49 583.352 1618.27 584.29C1617.06 585.227 1616.13 586.557 1615.48 588.278C1614.83 590 1614.51 592.028 1614.51 594.364ZM1655.78 614.665C1654.09 614.665 1652.64 614.068 1651.43 612.875C1650.24 611.665 1649.64 610.216 1649.64 608.528C1649.64 606.858 1650.24 605.426 1651.43 604.233C1652.64 603.04 1654.09 602.443 1655.78 602.443C1657.41 602.443 1658.84 603.04 1660.07 604.233C1661.3 605.426 1661.91 606.858 1661.91 608.528C1661.91 609.653 1661.62 610.685 1661.04 611.622C1660.48 612.543 1659.74 613.284 1658.82 613.847C1657.9 614.392 1656.88 614.665 1655.78 614.665Z" fill="white"/>
<rect x="100" y="716.5" width="451" height="106" rx="24" fill="url(#paint3_linear_303_2046)"/>
<path d="M150.455 743.955L161.705 779.318H162.136L173.409 743.955H184.318L168.273 790.5H155.591L139.523 743.955H150.455ZM189.739 790.5V755.591H199.42V790.5H189.739ZM194.602 751.091C193.163 751.091 191.928 750.614 190.898 749.659C189.883 748.689 189.375 747.53 189.375 746.182C189.375 744.848 189.883 743.705 190.898 742.75C191.928 741.78 193.163 741.295 194.602 741.295C196.042 741.295 197.269 741.78 198.284 742.75C199.314 743.705 199.83 744.848 199.83 746.182C199.83 747.53 199.314 748.689 198.284 749.659C197.269 750.614 196.042 751.091 194.602 751.091ZM223.085 791.182C219.494 791.182 216.403 790.455 213.812 789C211.237 787.53 209.252 785.455 207.858 782.773C206.464 780.076 205.767 776.886 205.767 773.205C205.767 769.614 206.464 766.462 207.858 763.75C209.252 761.038 211.214 758.924 213.744 757.409C216.29 755.894 219.275 755.136 222.699 755.136C225.002 755.136 227.146 755.508 229.131 756.25C231.131 756.977 232.873 758.076 234.358 759.545C235.858 761.015 237.025 762.864 237.858 765.091C238.691 767.303 239.108 769.894 239.108 772.864V775.523H209.631V769.523H229.994C229.994 768.129 229.691 766.894 229.085 765.818C228.479 764.742 227.638 763.902 226.562 763.295C225.502 762.674 224.267 762.364 222.858 762.364C221.388 762.364 220.085 762.705 218.949 763.386C217.828 764.053 216.949 764.955 216.312 766.091C215.676 767.212 215.35 768.462 215.335 769.841V775.545C215.335 777.273 215.653 778.765 216.29 780.023C216.941 781.28 217.858 782.25 219.04 782.932C220.222 783.614 221.623 783.955 223.244 783.955C224.32 783.955 225.305 783.803 226.199 783.5C227.093 783.197 227.858 782.742 228.494 782.136C229.131 781.53 229.616 780.788 229.949 779.909L238.903 780.5C238.449 782.652 237.517 784.53 236.108 786.136C234.714 787.727 232.911 788.97 230.699 789.864C228.502 790.742 225.964 791.182 223.085 791.182ZM255.108 743.955V790.5H245.426V743.955H255.108ZM278.773 791.182C275.182 791.182 272.091 790.455 269.5 789C266.924 787.53 264.939 785.455 263.545 782.773C262.152 780.076 261.455 776.886 261.455 773.205C261.455 769.614 262.152 766.462 263.545 763.75C264.939 761.038 266.902 758.924 269.432 757.409C271.977 755.894 274.962 755.136 278.386 755.136C280.689 755.136 282.833 755.508 284.818 756.25C286.818 756.977 288.561 758.076 290.045 759.545C291.545 761.015 292.712 762.864 293.545 765.091C294.379 767.303 294.795 769.894 294.795 772.864V775.523H265.318V769.523H285.682C285.682 768.129 285.379 766.894 284.773 765.818C284.167 764.742 283.326 763.902 282.25 763.295C281.189 762.674 279.955 762.364 278.545 762.364C277.076 762.364 275.773 762.705 274.636 763.386C273.515 764.053 272.636 764.955 272 766.091C271.364 767.212 271.038 768.462 271.023 769.841V775.545C271.023 777.273 271.341 778.765 271.977 780.023C272.629 781.28 273.545 782.25 274.727 782.932C275.909 783.614 277.311 783.955 278.932 783.955C280.008 783.955 280.992 783.803 281.886 783.5C282.78 783.197 283.545 782.742 284.182 782.136C284.818 781.53 285.303 780.788 285.636 779.909L294.591 780.5C294.136 782.652 293.205 784.53 291.795 786.136C290.402 787.727 288.598 788.97 286.386 789.864C284.189 790.742 281.652 791.182 278.773 791.182ZM310.795 770.318V790.5H301.114V755.591H310.341V761.75H310.75C311.523 759.72 312.818 758.114 314.636 756.932C316.455 755.735 318.659 755.136 321.25 755.136C323.674 755.136 325.788 755.667 327.591 756.727C329.394 757.788 330.795 759.303 331.795 761.273C332.795 763.227 333.295 765.561 333.295 768.273V790.5H323.614V770C323.629 767.864 323.083 766.197 321.977 765C320.871 763.788 319.348 763.182 317.409 763.182C316.106 763.182 314.955 763.462 313.955 764.023C312.97 764.583 312.197 765.402 311.636 766.477C311.091 767.538 310.811 768.818 310.795 770.318ZM372.42 790.5H355.92V743.955H372.557C377.239 743.955 381.269 744.886 384.648 746.75C388.027 748.598 390.625 751.258 392.443 754.727C394.277 758.197 395.193 762.348 395.193 767.182C395.193 772.03 394.277 776.197 392.443 779.682C390.625 783.167 388.011 785.841 384.602 787.705C381.208 789.568 377.148 790.5 372.42 790.5ZM365.761 782.068H372.011C374.92 782.068 377.367 781.553 379.352 780.523C381.352 779.477 382.852 777.864 383.852 775.682C384.867 773.485 385.375 770.652 385.375 767.182C385.375 763.742 384.867 760.932 383.852 758.75C382.852 756.568 381.36 754.962 379.375 753.932C377.39 752.902 374.943 752.386 372.034 752.386H365.761V782.068ZM412.256 791.159C410.028 791.159 408.044 790.773 406.301 790C404.559 789.212 403.18 788.053 402.165 786.523C401.165 784.977 400.665 783.053 400.665 780.75C400.665 778.811 401.021 777.182 401.733 775.864C402.445 774.545 403.415 773.485 404.642 772.682C405.869 771.879 407.263 771.273 408.824 770.864C410.4 770.455 412.051 770.167 413.778 770C415.809 769.788 417.445 769.591 418.688 769.409C419.93 769.212 420.831 768.924 421.392 768.545C421.953 768.167 422.233 767.606 422.233 766.864V766.727C422.233 765.288 421.778 764.174 420.869 763.386C419.975 762.598 418.703 762.205 417.051 762.205C415.309 762.205 413.922 762.591 412.892 763.364C411.862 764.121 411.18 765.076 410.847 766.227L401.892 765.5C402.347 763.379 403.241 761.545 404.574 760C405.907 758.439 407.627 757.242 409.733 756.409C411.854 755.561 414.309 755.136 417.097 755.136C419.036 755.136 420.892 755.364 422.665 755.818C424.453 756.273 426.036 756.977 427.415 757.932C428.809 758.886 429.907 760.114 430.71 761.614C431.513 763.098 431.915 764.879 431.915 766.955V790.5H422.733V785.659H422.46C421.9 786.75 421.15 787.712 420.21 788.545C419.271 789.364 418.142 790.008 416.824 790.477C415.506 790.932 413.983 791.159 412.256 791.159ZM415.028 784.477C416.453 784.477 417.71 784.197 418.801 783.636C419.892 783.061 420.748 782.288 421.369 781.318C421.991 780.348 422.301 779.25 422.301 778.023V774.318C421.998 774.515 421.581 774.697 421.051 774.864C420.536 775.015 419.953 775.159 419.301 775.295C418.65 775.417 417.998 775.53 417.347 775.636C416.695 775.727 416.104 775.811 415.574 775.886C414.438 776.053 413.445 776.318 412.597 776.682C411.748 777.045 411.089 777.538 410.619 778.159C410.15 778.765 409.915 779.523 409.915 780.432C409.915 781.75 410.392 782.758 411.347 783.455C412.316 784.136 413.544 784.477 415.028 784.477ZM449.108 770.318V790.5H439.426V755.591H448.653V761.75H449.062C449.835 759.72 451.131 758.114 452.949 756.932C454.767 755.735 456.972 755.136 459.562 755.136C461.987 755.136 464.1 755.667 465.903 756.727C467.706 757.788 469.108 759.303 470.108 761.273C471.108 763.227 471.608 765.561 471.608 768.273V790.5H461.926V770C461.941 767.864 461.396 766.197 460.29 765C459.184 763.788 457.661 763.182 455.722 763.182C454.419 763.182 453.267 763.462 452.267 764.023C451.282 764.583 450.509 765.402 449.949 766.477C449.403 767.538 449.123 768.818 449.108 770.318ZM488.011 780.455L488.034 768.841H489.443L500.625 755.591H511.739L496.716 773.136H494.42L488.011 780.455ZM479.239 790.5V743.955H488.92V790.5H479.239ZM501.057 790.5L490.784 775.295L497.239 768.455L512.398 790.5H501.057Z" fill="white"/>
<rect x="571" y="704" width="21" height="131" rx="10.5" fill="#BCBCBC"/>
<rect x="612" y="716.5" width="580" height="106" rx="24" fill="url(#paint4_linear_303_2046)"/>
<path d="M653.864 790.5V755.591H663.091V761.75H663.5C664.227 759.705 665.439 758.091 667.136 756.909C668.833 755.727 670.864 755.136 673.227 755.136C675.621 755.136 677.659 755.735 679.341 756.932C681.023 758.114 682.144 759.72 682.705 761.75H683.068C683.78 759.75 685.068 758.152 686.932 756.955C688.811 755.742 691.03 755.136 693.591 755.136C696.848 755.136 699.492 756.174 701.523 758.25C703.568 760.311 704.591 763.235 704.591 767.023V790.5H694.932V768.932C694.932 766.992 694.417 765.538 693.386 764.568C692.356 763.598 691.068 763.114 689.523 763.114C687.765 763.114 686.394 763.674 685.409 764.795C684.424 765.902 683.932 767.364 683.932 769.182V790.5H674.545V768.727C674.545 767.015 674.053 765.652 673.068 764.636C672.098 763.621 670.818 763.114 669.227 763.114C668.152 763.114 667.182 763.386 666.318 763.932C665.47 764.462 664.795 765.212 664.295 766.182C663.795 767.136 663.545 768.258 663.545 769.545V790.5H653.864ZM728.148 791.182C724.557 791.182 721.466 790.455 718.875 789C716.299 787.53 714.314 785.455 712.92 782.773C711.527 780.076 710.83 776.886 710.83 773.205C710.83 769.614 711.527 766.462 712.92 763.75C714.314 761.038 716.277 758.924 718.807 757.409C721.352 755.894 724.337 755.136 727.761 755.136C730.064 755.136 732.208 755.508 734.193 756.25C736.193 756.977 737.936 758.076 739.42 759.545C740.92 761.015 742.087 762.864 742.92 765.091C743.754 767.303 744.17 769.894 744.17 772.864V775.523H714.693V769.523H735.057C735.057 768.129 734.754 766.894 734.148 765.818C733.542 764.742 732.701 763.902 731.625 763.295C730.564 762.674 729.33 762.364 727.92 762.364C726.451 762.364 725.148 762.705 724.011 763.386C722.89 764.053 722.011 764.955 721.375 766.091C720.739 767.212 720.413 768.462 720.398 769.841V775.545C720.398 777.273 720.716 778.765 721.352 780.023C722.004 781.28 722.92 782.25 724.102 782.932C725.284 783.614 726.686 783.955 728.307 783.955C729.383 783.955 730.367 783.803 731.261 783.5C732.155 783.197 732.92 782.742 733.557 782.136C734.193 781.53 734.678 780.788 735.011 779.909L743.966 780.5C743.511 782.652 742.58 784.53 741.17 786.136C739.777 787.727 737.973 788.97 735.761 789.864C733.564 790.742 731.027 791.182 728.148 791.182ZM750.489 790.5V755.591H759.875V761.682H760.239C760.875 759.515 761.943 757.879 763.443 756.773C764.943 755.652 766.67 755.091 768.625 755.091C769.11 755.091 769.633 755.121 770.193 755.182C770.754 755.242 771.246 755.326 771.67 755.432V764.023C771.216 763.886 770.587 763.765 769.784 763.659C768.981 763.553 768.246 763.5 767.58 763.5C766.155 763.5 764.883 763.811 763.761 764.432C762.655 765.038 761.777 765.886 761.125 766.977C760.489 768.068 760.17 769.326 760.17 770.75V790.5H750.489ZM790.824 791.182C787.248 791.182 784.172 790.424 781.597 788.909C779.036 787.379 777.066 785.258 775.688 782.545C774.324 779.833 773.642 776.712 773.642 773.182C773.642 769.606 774.331 766.47 775.71 763.773C777.104 761.061 779.081 758.947 781.642 757.432C784.203 755.902 787.248 755.136 790.778 755.136C793.824 755.136 796.491 755.689 798.778 756.795C801.066 757.902 802.877 759.455 804.21 761.455C805.544 763.455 806.278 765.803 806.415 768.5H797.278C797.021 766.758 796.339 765.356 795.233 764.295C794.142 763.22 792.71 762.682 790.938 762.682C789.438 762.682 788.127 763.091 787.006 763.909C785.9 764.712 785.036 765.886 784.415 767.432C783.794 768.977 783.483 770.848 783.483 773.045C783.483 775.273 783.786 777.167 784.392 778.727C785.013 780.288 785.884 781.477 787.006 782.295C788.127 783.114 789.438 783.523 790.938 783.523C792.044 783.523 793.036 783.295 793.915 782.841C794.809 782.386 795.544 781.727 796.119 780.864C796.71 779.985 797.097 778.932 797.278 777.705H806.415C806.263 780.371 805.536 782.72 804.233 784.75C802.945 786.765 801.165 788.341 798.892 789.477C796.619 790.614 793.93 791.182 790.824 791.182ZM812.614 790.5V755.591H822.295V790.5H812.614ZM817.477 751.091C816.038 751.091 814.803 750.614 813.773 749.659C812.758 748.689 812.25 747.53 812.25 746.182C812.25 744.848 812.758 743.705 813.773 742.75C814.803 741.78 816.038 741.295 817.477 741.295C818.917 741.295 820.144 741.78 821.159 742.75C822.189 743.705 822.705 744.848 822.705 746.182C822.705 747.53 822.189 748.689 821.159 749.659C820.144 750.614 818.917 751.091 817.477 751.091ZM845.045 790.5V743.955H854.727V761.455H855.023C855.447 760.515 856.061 759.561 856.864 758.591C857.682 757.606 858.742 756.788 860.045 756.136C861.364 755.47 863 755.136 864.955 755.136C867.5 755.136 869.848 755.803 872 757.136C874.152 758.455 875.871 760.447 877.159 763.114C878.447 765.765 879.091 769.091 879.091 773.091C879.091 776.985 878.462 780.273 877.205 782.955C875.962 785.621 874.265 787.644 872.114 789.023C869.977 790.386 867.583 791.068 864.932 791.068C863.053 791.068 861.455 790.758 860.136 790.136C858.833 789.515 857.765 788.735 856.932 787.795C856.098 786.841 855.462 785.879 855.023 784.909H854.591V790.5H845.045ZM854.523 773.045C854.523 775.121 854.811 776.932 855.386 778.477C855.962 780.023 856.795 781.227 857.886 782.091C858.977 782.939 860.303 783.364 861.864 783.364C863.439 783.364 864.773 782.932 865.864 782.068C866.955 781.189 867.78 779.977 868.341 778.432C868.917 776.871 869.205 775.076 869.205 773.045C869.205 771.03 868.924 769.258 868.364 767.727C867.803 766.197 866.977 765 865.886 764.136C864.795 763.273 863.455 762.841 861.864 762.841C860.288 762.841 858.955 763.258 857.864 764.091C856.788 764.924 855.962 766.106 855.386 767.636C854.811 769.167 854.523 770.97 854.523 773.045ZM901.46 791.182C897.869 791.182 894.778 790.455 892.188 789C889.612 787.53 887.627 785.455 886.233 782.773C884.839 780.076 884.142 776.886 884.142 773.205C884.142 769.614 884.839 766.462 886.233 763.75C887.627 761.038 889.589 758.924 892.119 757.409C894.665 755.894 897.65 755.136 901.074 755.136C903.377 755.136 905.521 755.508 907.506 756.25C909.506 756.977 911.248 758.076 912.733 759.545C914.233 761.015 915.4 762.864 916.233 765.091C917.066 767.303 917.483 769.894 917.483 772.864V775.523H888.006V769.523H908.369C908.369 768.129 908.066 766.894 907.46 765.818C906.854 764.742 906.013 763.902 904.938 763.295C903.877 762.674 902.642 762.364 901.233 762.364C899.763 762.364 898.46 762.705 897.324 763.386C896.203 764.053 895.324 764.955 894.688 766.091C894.051 767.212 893.725 768.462 893.71 769.841V775.545C893.71 777.273 894.028 778.765 894.665 780.023C895.316 781.28 896.233 782.25 897.415 782.932C898.597 783.614 899.998 783.955 901.619 783.955C902.695 783.955 903.68 783.803 904.574 783.5C905.468 783.197 906.233 782.742 906.869 782.136C907.506 781.53 907.991 780.788 908.324 779.909L917.278 780.5C916.824 782.652 915.892 784.53 914.483 786.136C913.089 787.727 911.286 788.97 909.074 789.864C906.877 790.742 904.339 791.182 901.46 791.182ZM933.756 791.159C931.528 791.159 929.544 790.773 927.801 790C926.059 789.212 924.68 788.053 923.665 786.523C922.665 784.977 922.165 783.053 922.165 780.75C922.165 778.811 922.521 777.182 923.233 775.864C923.945 774.545 924.915 773.485 926.142 772.682C927.369 771.879 928.763 771.273 930.324 770.864C931.9 770.455 933.551 770.167 935.278 770C937.309 769.788 938.945 769.591 940.188 769.409C941.43 769.212 942.331 768.924 942.892 768.545C943.453 768.167 943.733 767.606 943.733 766.864V766.727C943.733 765.288 943.278 764.174 942.369 763.386C941.475 762.598 940.203 762.205 938.551 762.205C936.809 762.205 935.422 762.591 934.392 763.364C933.362 764.121 932.68 765.076 932.347 766.227L923.392 765.5C923.847 763.379 924.741 761.545 926.074 760C927.407 758.439 929.127 757.242 931.233 756.409C933.354 755.561 935.809 755.136 938.597 755.136C940.536 755.136 942.392 755.364 944.165 755.818C945.953 756.273 947.536 756.977 948.915 757.932C950.309 758.886 951.407 760.114 952.21 761.614C953.013 763.098 953.415 764.879 953.415 766.955V790.5H944.233V785.659H943.96C943.4 786.75 942.65 787.712 941.71 788.545C940.771 789.364 939.642 790.008 938.324 790.477C937.006 790.932 935.483 791.159 933.756 791.159ZM936.528 784.477C937.953 784.477 939.21 784.197 940.301 783.636C941.392 783.061 942.248 782.288 942.869 781.318C943.491 780.348 943.801 779.25 943.801 778.023V774.318C943.498 774.515 943.081 774.697 942.551 774.864C942.036 775.015 941.453 775.159 940.801 775.295C940.15 775.417 939.498 775.53 938.847 775.636C938.195 775.727 937.604 775.811 937.074 775.886C935.938 776.053 934.945 776.318 934.097 776.682C933.248 777.045 932.589 777.538 932.119 778.159C931.65 778.765 931.415 779.523 931.415 780.432C931.415 781.75 931.892 782.758 932.847 783.455C933.816 784.136 935.044 784.477 936.528 784.477ZM983.312 775.636V755.591H992.994V790.5H983.699V784.159H983.335C982.547 786.205 981.237 787.848 979.403 789.091C977.585 790.333 975.366 790.955 972.744 790.955C970.411 790.955 968.358 790.424 966.585 789.364C964.813 788.303 963.426 786.795 962.426 784.841C961.441 782.886 960.941 780.545 960.926 777.818V755.591H970.608V776.091C970.623 778.152 971.176 779.78 972.267 780.977C973.358 782.174 974.82 782.773 976.653 782.773C977.82 782.773 978.911 782.508 979.926 781.977C980.941 781.432 981.759 780.629 982.381 779.568C983.017 778.508 983.328 777.197 983.312 775.636ZM1016.51 791.182C1012.94 791.182 1009.86 790.424 1007.28 788.909C1004.72 787.379 1002.75 785.258 1001.38 782.545C1000.01 779.833 999.33 776.712 999.33 773.182C999.33 769.606 1000.02 766.47 1001.4 763.773C1002.79 761.061 1004.77 758.947 1007.33 757.432C1009.89 755.902 1012.94 755.136 1016.47 755.136C1019.51 755.136 1022.18 755.689 1024.47 756.795C1026.75 757.902 1028.56 759.455 1029.9 761.455C1031.23 763.455 1031.97 765.803 1032.1 768.5H1022.97C1022.71 766.758 1022.03 765.356 1020.92 764.295C1019.83 763.22 1018.4 762.682 1016.62 762.682C1015.12 762.682 1013.81 763.091 1012.69 763.909C1011.59 764.712 1010.72 765.886 1010.1 767.432C1009.48 768.977 1009.17 770.848 1009.17 773.045C1009.17 775.273 1009.47 777.167 1010.08 778.727C1010.7 780.288 1011.57 781.477 1012.69 782.295C1013.81 783.114 1015.12 783.523 1016.62 783.523C1017.73 783.523 1018.72 783.295 1019.6 782.841C1020.5 782.386 1021.23 781.727 1021.81 780.864C1022.4 779.985 1022.78 778.932 1022.97 777.705H1032.1C1031.95 780.371 1031.22 782.72 1029.92 784.75C1028.63 786.765 1026.85 788.341 1024.58 789.477C1022.31 790.614 1019.62 791.182 1016.51 791.182ZM1054.07 791.182C1050.54 791.182 1047.49 790.432 1044.91 788.932C1042.35 787.417 1040.38 785.311 1038.98 782.614C1037.59 779.902 1036.89 776.758 1036.89 773.182C1036.89 769.576 1037.59 766.424 1038.98 763.727C1040.38 761.015 1042.35 758.909 1044.91 757.409C1047.49 755.894 1050.54 755.136 1054.07 755.136C1057.6 755.136 1060.65 755.894 1063.21 757.409C1065.79 758.909 1067.77 761.015 1069.16 763.727C1070.56 766.424 1071.26 769.576 1071.26 773.182C1071.26 776.758 1070.56 779.902 1069.16 782.614C1067.77 785.311 1065.79 787.417 1063.21 788.932C1060.65 790.432 1057.6 791.182 1054.07 791.182ZM1054.12 783.682C1055.73 783.682 1057.07 783.227 1058.14 782.318C1059.22 781.394 1060.03 780.136 1060.57 778.545C1061.13 776.955 1061.41 775.144 1061.41 773.114C1061.41 771.083 1061.13 769.273 1060.57 767.682C1060.03 766.091 1059.22 764.833 1058.14 763.909C1057.07 762.985 1055.73 762.523 1054.12 762.523C1052.5 762.523 1051.13 762.985 1050.03 763.909C1048.94 764.833 1048.11 766.091 1047.55 767.682C1047.01 769.273 1046.73 771.083 1046.73 773.114C1046.73 775.144 1047.01 776.955 1047.55 778.545C1048.11 780.136 1048.94 781.394 1050.03 782.318C1051.13 783.227 1052.5 783.682 1054.12 783.682ZM1099.94 775.636V755.591H1109.62V790.5H1100.32V784.159H1099.96C1099.17 786.205 1097.86 787.848 1096.03 789.091C1094.21 790.333 1091.99 790.955 1089.37 790.955C1087.04 790.955 1084.98 790.424 1083.21 789.364C1081.44 788.303 1080.05 786.795 1079.05 784.841C1078.07 782.886 1077.57 780.545 1077.55 777.818V755.591H1087.23V776.091C1087.25 778.152 1087.8 779.78 1088.89 780.977C1089.98 782.174 1091.45 782.773 1093.28 782.773C1094.45 782.773 1095.54 782.508 1096.55 781.977C1097.57 781.432 1098.38 780.629 1099.01 779.568C1099.64 778.508 1099.95 777.197 1099.94 775.636ZM1117.36 803.591V755.591H1126.91V761.455H1127.34C1127.77 760.515 1128.38 759.561 1129.18 758.591C1130 757.606 1131.06 756.788 1132.36 756.136C1133.68 755.47 1135.32 755.136 1137.27 755.136C1139.82 755.136 1142.17 755.803 1144.32 757.136C1146.47 758.455 1148.19 760.447 1149.48 763.114C1150.77 765.765 1151.41 769.091 1151.41 773.091C1151.41 776.985 1150.78 780.273 1149.52 782.955C1148.28 785.621 1146.58 787.644 1144.43 789.023C1142.3 790.386 1139.9 791.068 1137.25 791.068C1135.37 791.068 1133.77 790.758 1132.45 790.136C1131.15 789.515 1130.08 788.735 1129.25 787.795C1128.42 786.841 1127.78 785.879 1127.34 784.909H1127.05V803.591H1117.36ZM1126.84 773.045C1126.84 775.121 1127.13 776.932 1127.7 778.477C1128.28 780.023 1129.11 781.227 1130.2 782.091C1131.3 782.939 1132.62 783.364 1134.18 783.364C1135.76 783.364 1137.09 782.932 1138.18 782.068C1139.27 781.189 1140.1 779.977 1140.66 778.432C1141.23 776.871 1141.52 775.076 1141.52 773.045C1141.52 771.03 1141.24 769.258 1140.68 767.727C1140.12 766.197 1139.3 765 1138.2 764.136C1137.11 763.273 1135.77 762.841 1134.18 762.841C1132.61 762.841 1131.27 763.258 1130.18 764.091C1129.11 764.924 1128.28 766.106 1127.7 767.636C1127.13 769.167 1126.84 770.97 1126.84 773.045Z" fill="white"/>
<rect x="1212" y="704" width="21" height="131" rx="10.5" fill="#BCBCBC"/>
<rect x="1253" y="716.5" width="492" height="106" rx="24" fill="url(#paint5_linear_303_2046)"/>
<path d="M1313.64 755.591V762.864H1292.09V755.591H1313.64ZM1297.02 790.5V753.068C1297.02 750.538 1297.52 748.439 1298.5 746.773C1299.5 745.106 1300.86 743.856 1302.59 743.023C1304.32 742.189 1306.28 741.773 1308.48 741.773C1309.96 741.773 1311.32 741.886 1312.55 742.114C1313.79 742.341 1314.71 742.545 1315.32 742.727L1313.59 750C1313.21 749.879 1312.74 749.765 1312.18 749.659C1311.64 749.553 1311.08 749.5 1310.5 749.5C1309.08 749.5 1308.08 749.833 1307.52 750.5C1306.96 751.152 1306.68 752.068 1306.68 753.25V790.5H1297.02ZM1334.07 791.182C1330.54 791.182 1327.49 790.432 1324.91 788.932C1322.35 787.417 1320.38 785.311 1318.98 782.614C1317.59 779.902 1316.89 776.758 1316.89 773.182C1316.89 769.576 1317.59 766.424 1318.98 763.727C1320.38 761.015 1322.35 758.909 1324.91 757.409C1327.49 755.894 1330.54 755.136 1334.07 755.136C1337.6 755.136 1340.65 755.894 1343.21 757.409C1345.79 758.909 1347.77 761.015 1349.16 763.727C1350.56 766.424 1351.26 769.576 1351.26 773.182C1351.26 776.758 1350.56 779.902 1349.16 782.614C1347.77 785.311 1345.79 787.417 1343.21 788.932C1340.65 790.432 1337.6 791.182 1334.07 791.182ZM1334.12 783.682C1335.73 783.682 1337.07 783.227 1338.14 782.318C1339.22 781.394 1340.03 780.136 1340.57 778.545C1341.13 776.955 1341.41 775.144 1341.41 773.114C1341.41 771.083 1341.13 769.273 1340.57 767.682C1340.03 766.091 1339.22 764.833 1338.14 763.909C1337.07 762.985 1335.73 762.523 1334.12 762.523C1332.5 762.523 1331.13 762.985 1330.03 763.909C1328.94 764.833 1328.11 766.091 1327.55 767.682C1327.01 769.273 1326.73 771.083 1326.73 773.114C1326.73 775.144 1327.01 776.955 1327.55 778.545C1328.11 780.136 1328.94 781.394 1330.03 782.318C1331.13 783.227 1332.5 783.682 1334.12 783.682ZM1357.55 790.5V755.591H1366.94V761.682H1367.3C1367.94 759.515 1369.01 757.879 1370.51 756.773C1372.01 755.652 1373.73 755.091 1375.69 755.091C1376.17 755.091 1376.7 755.121 1377.26 755.182C1377.82 755.242 1378.31 755.326 1378.73 755.432V764.023C1378.28 763.886 1377.65 763.765 1376.85 763.659C1376.04 763.553 1375.31 763.5 1374.64 763.5C1373.22 763.5 1371.95 763.811 1370.82 764.432C1369.72 765.038 1368.84 765.886 1368.19 766.977C1367.55 768.068 1367.23 769.326 1367.23 770.75V790.5H1357.55ZM1404.53 803.591C1403.3 803.591 1402.15 803.492 1401.07 803.295C1400.01 803.114 1399.13 802.879 1398.44 802.591L1400.62 795.364C1401.76 795.712 1402.78 795.902 1403.69 795.932C1404.61 795.962 1405.41 795.75 1406.07 795.295C1406.76 794.841 1407.31 794.068 1407.73 792.977L1408.3 791.5L1395.78 755.591H1405.96L1413.19 781.227H1413.55L1420.85 755.591H1431.1L1417.53 794.273C1416.88 796.152 1415.99 797.788 1414.87 799.182C1413.76 800.591 1412.36 801.674 1410.66 802.432C1408.97 803.205 1406.92 803.591 1404.53 803.591ZM1450.7 791.182C1447.17 791.182 1444.12 790.432 1441.54 788.932C1438.98 787.417 1437 785.311 1435.61 782.614C1434.21 779.902 1433.52 776.758 1433.52 773.182C1433.52 769.576 1434.21 766.424 1435.61 763.727C1437 761.015 1438.98 758.909 1441.54 757.409C1444.12 755.894 1447.17 755.136 1450.7 755.136C1454.23 755.136 1457.27 755.894 1459.84 757.409C1462.41 758.909 1464.4 761.015 1465.79 763.727C1467.18 766.424 1467.88 769.576 1467.88 773.182C1467.88 776.758 1467.18 779.902 1465.79 782.614C1464.4 785.311 1462.41 787.417 1459.84 788.932C1457.27 790.432 1454.23 791.182 1450.7 791.182ZM1450.74 783.682C1452.35 783.682 1453.69 783.227 1454.77 782.318C1455.84 781.394 1456.65 780.136 1457.2 778.545C1457.76 776.955 1458.04 775.144 1458.04 773.114C1458.04 771.083 1457.76 769.273 1457.2 767.682C1456.65 766.091 1455.84 764.833 1454.77 763.909C1453.69 762.985 1452.35 762.523 1450.74 762.523C1449.12 762.523 1447.76 762.985 1446.65 763.909C1445.56 764.833 1444.74 766.091 1444.18 767.682C1443.63 769.273 1443.36 771.083 1443.36 773.114C1443.36 775.144 1443.63 776.955 1444.18 778.545C1444.74 780.136 1445.56 781.394 1446.65 782.318C1447.76 783.227 1449.12 783.682 1450.74 783.682ZM1496.56 775.636V755.591H1506.24V790.5H1496.95V784.159H1496.59C1495.8 786.205 1494.49 787.848 1492.65 789.091C1490.84 790.333 1488.62 790.955 1485.99 790.955C1483.66 790.955 1481.61 790.424 1479.84 789.364C1478.06 788.303 1476.68 786.795 1475.68 784.841C1474.69 782.886 1474.19 780.545 1474.18 777.818V755.591H1483.86V776.091C1483.87 778.152 1484.43 779.78 1485.52 780.977C1486.61 782.174 1488.07 782.773 1489.9 782.773C1491.07 782.773 1492.16 782.508 1493.18 781.977C1494.19 781.432 1495.01 780.629 1495.63 779.568C1496.27 778.508 1496.58 777.197 1496.56 775.636ZM1513.99 790.5V755.591H1523.38V761.682H1523.74C1524.38 759.515 1525.44 757.879 1526.94 756.773C1528.44 755.652 1530.17 755.091 1532.12 755.091C1532.61 755.091 1533.13 755.121 1533.69 755.182C1534.25 755.242 1534.75 755.326 1535.17 755.432V764.023C1534.72 763.886 1534.09 763.765 1533.28 763.659C1532.48 763.553 1531.75 763.5 1531.08 763.5C1529.66 763.5 1528.38 763.811 1527.26 764.432C1526.16 765.038 1525.28 765.886 1524.62 766.977C1523.99 768.068 1523.67 769.326 1523.67 770.75V790.5H1513.99ZM1564.67 770.318V790.5H1554.99V743.955H1564.4V761.75H1564.81C1565.59 759.689 1566.87 758.076 1568.62 756.909C1570.38 755.727 1572.59 755.136 1575.24 755.136C1577.66 755.136 1579.78 755.667 1581.58 756.727C1583.4 757.773 1584.81 759.28 1585.81 761.25C1586.82 763.205 1587.32 765.545 1587.31 768.273V790.5H1577.62V770C1577.64 767.848 1577.09 766.174 1575.99 764.977C1574.9 763.78 1573.37 763.182 1571.4 763.182C1570.08 763.182 1568.91 763.462 1567.9 764.023C1566.9 764.583 1566.11 765.402 1565.53 766.477C1564.97 767.538 1564.69 768.818 1564.67 770.318ZM1610.84 791.182C1607.24 791.182 1604.15 790.455 1601.56 789C1598.99 787.53 1597 785.455 1595.61 782.773C1594.21 780.076 1593.52 776.886 1593.52 773.205C1593.52 769.614 1594.21 766.462 1595.61 763.75C1597 761.038 1598.96 758.924 1601.49 757.409C1604.04 755.894 1607.02 755.136 1610.45 755.136C1612.75 755.136 1614.9 755.508 1616.88 756.25C1618.88 756.977 1620.62 758.076 1622.11 759.545C1623.61 761.015 1624.77 762.864 1625.61 765.091C1626.44 767.303 1626.86 769.894 1626.86 772.864V775.523H1597.38V769.523H1617.74C1617.74 768.129 1617.44 766.894 1616.84 765.818C1616.23 764.742 1615.39 763.902 1614.31 763.295C1613.25 762.674 1612.02 762.364 1610.61 762.364C1609.14 762.364 1607.84 762.705 1606.7 763.386C1605.58 764.053 1604.7 764.955 1604.06 766.091C1603.43 767.212 1603.1 768.462 1603.09 769.841V775.545C1603.09 777.273 1603.4 778.765 1604.04 780.023C1604.69 781.28 1605.61 782.25 1606.79 782.932C1607.97 783.614 1609.37 783.955 1610.99 783.955C1612.07 783.955 1613.05 783.803 1613.95 783.5C1614.84 783.197 1615.61 782.742 1616.24 782.136C1616.88 781.53 1617.37 780.788 1617.7 779.909L1626.65 780.5C1626.2 782.652 1625.27 784.53 1623.86 786.136C1622.46 787.727 1620.66 788.97 1618.45 789.864C1616.25 790.742 1613.71 791.182 1610.84 791.182ZM1642.86 743.955V790.5H1633.18V743.955H1642.86ZM1650.61 803.591V755.591H1660.16V761.455H1660.59C1661.02 760.515 1661.63 759.561 1662.43 758.591C1663.25 757.606 1664.31 756.788 1665.61 756.136C1666.93 755.47 1668.57 755.136 1670.52 755.136C1673.07 755.136 1675.42 755.803 1677.57 757.136C1679.72 758.455 1681.44 760.447 1682.73 763.114C1684.02 765.765 1684.66 769.091 1684.66 773.091C1684.66 776.985 1684.03 780.273 1682.77 782.955C1681.53 785.621 1679.83 787.644 1677.68 789.023C1675.55 790.386 1673.15 791.068 1670.5 791.068C1668.62 791.068 1667.02 790.758 1665.7 790.136C1664.4 789.515 1663.33 788.735 1662.5 787.795C1661.67 786.841 1661.03 785.879 1660.59 784.909H1660.3V803.591H1650.61ZM1660.09 773.045C1660.09 775.121 1660.38 776.932 1660.95 778.477C1661.53 780.023 1662.36 781.227 1663.45 782.091C1664.55 782.939 1665.87 783.364 1667.43 783.364C1669.01 783.364 1670.34 782.932 1671.43 782.068C1672.52 781.189 1673.35 779.977 1673.91 778.432C1674.48 776.871 1674.77 775.076 1674.77 773.045C1674.77 771.03 1674.49 769.258 1673.93 767.727C1673.37 766.197 1672.55 765 1671.45 764.136C1670.36 763.273 1669.02 762.841 1667.43 762.841C1665.86 762.841 1664.52 763.258 1663.43 764.091C1662.36 764.924 1661.53 766.106 1660.95 767.636C1660.38 769.167 1660.09 770.97 1660.09 773.045ZM1696.77 791.091C1695.27 791.091 1693.98 790.561 1692.91 789.5C1691.85 788.424 1691.32 787.136 1691.32 785.636C1691.32 784.152 1691.85 782.879 1692.91 781.818C1693.98 780.758 1695.27 780.227 1696.77 780.227C1698.23 780.227 1699.5 780.758 1700.59 781.818C1701.68 782.879 1702.23 784.152 1702.23 785.636C1702.23 786.636 1701.97 787.553 1701.45 788.386C1700.95 789.205 1700.3 789.864 1699.48 790.364C1698.66 790.848 1697.76 791.091 1696.77 791.091Z" fill="white"/>
<defs>
<linearGradient id="paint0_linear_303_2046" x1="510.785" y1="327" x2="640.982" y2="516.695" gradientUnits="userSpaceOnUse">
<stop stop-color="#01B7F8"/>
<stop offset="1" stop-color="#046BF5"/>
</linearGradient>
<linearGradient id="paint1_linear_303_2046" x1="949.382" y1="327" x2="1087.43" y2="486.786" gradientUnits="userSpaceOnUse">
<stop stop-color="#01B7F8"/>
<stop offset="1" stop-color="#046BF5"/>
</linearGradient>
<linearGradient id="paint2_linear_303_2046" x1="1291.18" y1="327" x2="1411.18" y2="395.338" gradientUnits="userSpaceOnUse">
<stop stop-color="#01B7F8"/>
<stop offset="1" stop-color="#046BF5"/>
</linearGradient>
<linearGradient id="paint3_linear_303_2046" x1="191.327" y1="716.5" x2="280.006" y2="899.276" gradientUnits="userSpaceOnUse">
<stop stop-color="#01B7F8"/>
<stop offset="1" stop-color="#046BF5"/>
</linearGradient>
<linearGradient id="paint4_linear_303_2046" x1="729.45" y1="716.5" x2="804.023" y2="914.167" gradientUnits="userSpaceOnUse">
<stop stop-color="#01B7F8"/>
<stop offset="1" stop-color="#046BF5"/>
</linearGradient>
<linearGradient id="paint5_linear_303_2046" x1="1352.63" y1="716.5" x2="1436.47" y2="905.013" gradientUnits="userSpaceOnUse">
<stop stop-color="#01B7F8"/>
<stop offset="1" stop-color="#046BF5"/>
</linearGradient>
</defs>
</svg>
